<?xml version="1.0" encoding="UTF-8" standalone="no"?>
<!DOCTYPE svg PUBLIC "-//W3C//DTD SVG 1.1//EN"
 "http://www.w3.org/Graphics/SVG/1.1/DTD/svg11.dtd">
<!-- Generated by graphviz version 2.43.0 (0)
 -->
<!-- Title: snakemake_dag Pages: 1 -->
<svg width="858pt" height="476pt"
 viewBox="0.00 0.00 858.00 476.00" xmlns="http://www.w3.org/2000/svg" xmlns:xlink="http://www.w3.org/1999/xlink">
<g id="graph0" class="graph" transform="scale(1 1) rotate(0) translate(4 472)">
<title>snakemake_dag</title>
<polygon fill="white" stroke="transparent" points="-4,4 -4,-472 854,-472 854,4 -4,4"/>
<!-- 0 -->
<g id="node1" class="node">
<title>0</title>
<path fill="none" stroke="#56c1d8" stroke-width="2" d="M309,-36C309,-36 279,-36 279,-36 273,-36 267,-30 267,-24 267,-24 267,-12 267,-12 267,-6 273,0 279,0 279,0 309,0 309,0 315,0 321,-6 321,-12 321,-12 321,-24 321,-24 321,-30 315,-36 309,-36"/>
<text text-anchor="middle" x="294" y="-15.5" font-family="sans" font-size="10.00">all</text>
</g>
<!-- 1 -->
<g id="node2" class="node">
<title>1</title>
<path fill="none" stroke="#56a9d8" stroke-width="2" d="M193.5,-324C193.5,-324 148.5,-324 148.5,-324 142.5,-324 136.5,-318 136.5,-312 136.5,-312 136.5,-300 136.5,-300 136.5,-294 142.5,-288 148.5,-288 148.5,-288 193.5,-288 193.5,-288 199.5,-288 205.5,-294 205.5,-300 205.5,-300 205.5,-312 205.5,-312 205.5,-318 199.5,-324 193.5,-324"/>
<text text-anchor="middle" x="171" y="-303.5" font-family="sans" font-size="10.00">cnvkit_call</text>
</g>
<!-- 1&#45;&gt;0 -->
<g id="edge9" class="edge">
<title>1&#45;&gt;0</title>
<path fill="none" stroke="grey" stroke-width="2" d="M173.44,-287.96C176.31,-269.81 181.76,-240.4 190,-216 212.65,-148.95 222.9,-133.46 258,-72 263.24,-62.82 269.55,-53.16 275.41,-44.63"/>
<polygon fill="grey" stroke="grey" stroke-width="2" points="278.43,-46.43 281.3,-36.23 272.69,-42.41 278.43,-46.43"/>
</g>
<!-- 5 -->
<g id="node6" class="node">
<title>5</title>
<path fill="none" stroke="#d8c356" stroke-width="2" d="M254.5,-252C254.5,-252 211.5,-252 211.5,-252 205.5,-252 199.5,-246 199.5,-240 199.5,-240 199.5,-228 199.5,-228 199.5,-222 205.5,-216 211.5,-216 211.5,-216 254.5,-216 254.5,-216 260.5,-216 266.5,-222 266.5,-228 266.5,-228 266.5,-240 266.5,-240 266.5,-246 260.5,-252 254.5,-252"/>
<text text-anchor="middle" x="233" y="-231.5" font-family="sans" font-size="10.00">cnvkit_vcf</text>
</g>
<!-- 1&#45;&gt;5 -->
<g id="edge15" class="edge">
<title>1&#45;&gt;5</title>
<path fill="none" stroke="grey" stroke-width="2" d="M186.33,-287.7C193.76,-279.3 202.82,-269.07 210.98,-259.86"/>
<polygon fill="grey" stroke="grey" stroke-width="2" points="213.84,-261.91 217.85,-252.1 208.6,-257.27 213.84,-261.91"/>
</g>
<!-- 2 -->
<g id="node3" class="node">
<title>2</title>
<path fill="none" stroke="#d6d856" stroke-width="2" d="M108.5,-396C108.5,-396 53.5,-396 53.5,-396 47.5,-396 41.5,-390 41.5,-384 41.5,-384 41.5,-372 41.5,-372 41.5,-366 47.5,-360 53.5,-360 53.5,-360 108.5,-360 108.5,-360 114.5,-360 120.5,-366 120.5,-372 120.5,-372 120.5,-384 120.5,-384 120.5,-390 114.5,-396 108.5,-396"/>
<text text-anchor="middle" x="81" y="-375.5" font-family="sans" font-size="10.00">cnvkit_batch</text>
</g>
<!-- 2&#45;&gt;1 -->
<g id="edge12" class="edge">
<title>2&#45;&gt;1</title>
<path fill="none" stroke="grey" stroke-width="2" d="M103.25,-359.7C114.58,-350.88 128.53,-340.03 140.82,-330.47"/>
<polygon fill="grey" stroke="grey" stroke-width="2" points="143.26,-333.01 149.01,-324.1 138.97,-327.48 143.26,-333.01"/>
</g>
<!-- 3 -->
<g id="node4" class="node">
<title>3</title>
<path fill="none" stroke="#d88556" stroke-width="2" d="M131,-252C131,-252 63,-252 63,-252 57,-252 51,-246 51,-240 51,-240 51,-228 51,-228 51,-222 57,-216 63,-216 63,-216 131,-216 131,-216 137,-216 143,-222 143,-228 143,-228 143,-240 143,-240 143,-246 137,-252 131,-252"/>
<text text-anchor="middle" x="97" y="-231.5" font-family="sans" font-size="10.00">cnvkit_diagram</text>
</g>
<!-- 2&#45;&gt;3 -->
<g id="edge13" class="edge">
<title>2&#45;&gt;3</title>
<path fill="none" stroke="grey" stroke-width="2" d="M82.93,-359.87C85.66,-335.67 90.67,-291.21 93.91,-262.39"/>
<polygon fill="grey" stroke="grey" stroke-width="2" points="97.42,-262.52 95.06,-252.19 90.47,-261.73 97.42,-262.52"/>
</g>
<!-- 4 -->
<g id="node5" class="node">
<title>4</title>
<path fill="none" stroke="#d85656" stroke-width="2" d="M74,-180C74,-180 12,-180 12,-180 6,-180 0,-174 0,-168 0,-168 0,-156 0,-156 0,-150 6,-144 12,-144 12,-144 74,-144 74,-144 80,-144 86,-150 86,-156 86,-156 86,-168 86,-168 86,-174 80,-180 74,-180"/>
<text text-anchor="middle" x="43" y="-159.5" font-family="sans" font-size="10.00">cnvkit_scatter</text>
</g>
<!-- 2&#45;&gt;4 -->
<g id="edge14" class="edge">
<title>2&#45;&gt;4</title>
<path fill="none" stroke="grey" stroke-width="2" d="M73.88,-360C64.38,-336.31 48.06,-291.78 42,-252 39.59,-236.18 41.85,-232 42,-216 42.08,-207.68 42.23,-198.63 42.38,-190.4"/>
<polygon fill="grey" stroke="grey" stroke-width="2" points="45.89,-190.25 42.59,-180.18 38.89,-190.11 45.89,-190.25"/>
</g>
<!-- 3&#45;&gt;0 -->
<g id="edge6" class="edge">
<title>3&#45;&gt;0</title>
<path fill="none" stroke="grey" stroke-width="2" d="M98.76,-215.99C102.99,-183.67 116.54,-112.96 157,-72 183.97,-44.69 226.57,-31.18 257.11,-24.67"/>
<polygon fill="grey" stroke="grey" stroke-width="2" points="257.83,-28.1 266.96,-22.73 256.47,-21.23 257.83,-28.1"/>
</g>
<!-- 4&#45;&gt;0 -->
<g id="edge1" class="edge">
<title>4&#45;&gt;0</title>
<path fill="none" stroke="grey" stroke-width="2" d="M49.67,-143.88C58.41,-123.67 75.68,-90.49 101,-72 147.7,-37.91 215.23,-25.74 256.78,-21.4"/>
<polygon fill="grey" stroke="grey" stroke-width="2" points="257.13,-24.89 266.76,-20.46 256.47,-17.92 257.13,-24.89"/>
</g>
<!-- 5&#45;&gt;0 -->
<g id="edge4" class="edge">
<title>5&#45;&gt;0</title>
<path fill="none" stroke="grey" stroke-width="2" d="M236.24,-215.84C242.05,-186.13 255.22,-123.4 272,-72 274.84,-63.29 278.49,-53.99 281.98,-45.66"/>
<polygon fill="grey" stroke="grey" stroke-width="2" points="285.23,-46.98 285.97,-36.41 278.8,-44.21 285.23,-46.98"/>
</g>
<!-- 11 -->
<g id="node12" class="node">
<title>11</title>
<path fill="none" stroke="#afd856" stroke-width="2" d="M359.5,-180C359.5,-180 306.5,-180 306.5,-180 300.5,-180 294.5,-174 294.5,-168 294.5,-168 294.5,-156 294.5,-156 294.5,-150 300.5,-144 306.5,-144 306.5,-144 359.5,-144 359.5,-144 365.5,-144 371.5,-150 371.5,-156 371.5,-156 371.5,-168 371.5,-168 371.5,-174 365.5,-180 359.5,-180"/>
<text text-anchor="middle" x="333" y="-159.5" font-family="sans" font-size="10.00">svdb_merge</text>
</g>
<!-- 5&#45;&gt;11 -->
<g id="edge22" class="edge">
<title>5&#45;&gt;11</title>
<path fill="none" stroke="grey" stroke-width="2" d="M257.46,-215.88C270.3,-206.89 286.2,-195.76 300.09,-186.03"/>
<polygon fill="grey" stroke="grey" stroke-width="2" points="302.26,-188.79 308.44,-180.19 298.24,-183.06 302.26,-188.79"/>
</g>
<!-- 6 -->
<g id="node7" class="node">
<title>6</title>
<path fill="none" stroke="#59d856" stroke-width="2" d="M369,-252C369,-252 297,-252 297,-252 291,-252 285,-246 285,-240 285,-240 285,-228 285,-228 285,-222 291,-216 297,-216 297,-216 369,-216 369,-216 375,-216 381,-222 381,-228 381,-228 381,-240 381,-240 381,-246 375,-252 369,-252"/>
<text text-anchor="middle" x="333" y="-231.5" font-family="sans" font-size="10.00">gatk_cnv_to_vcf</text>
</g>
<!-- 6&#45;&gt;0 -->
<g id="edge3" class="edge">
<title>6&#45;&gt;0</title>
<path fill="none" stroke="grey" stroke-width="2" d="M311.73,-215.7C301.89,-206.31 291.24,-193.8 286,-180 269.06,-135.38 278.24,-78.76 286.26,-45.93"/>
<polygon fill="grey" stroke="grey" stroke-width="2" points="289.67,-46.71 288.79,-36.15 282.9,-44.96 289.67,-46.71"/>
</g>
<!-- 6&#45;&gt;11 -->
<g id="edge20" class="edge">
<title>6&#45;&gt;11</title>
<path fill="none" stroke="grey" stroke-width="2" d="M333,-215.7C333,-207.98 333,-198.71 333,-190.11"/>
<polygon fill="grey" stroke="grey" stroke-width="2" points="336.5,-190.1 333,-180.1 329.5,-190.1 336.5,-190.1"/>
</g>
<!-- 7 -->
<g id="node8" class="node">
<title>7</title>
<path fill="none" stroke="#56d8d8" stroke-width="2" d="M385,-324C385,-324 281,-324 281,-324 275,-324 269,-318 269,-312 269,-312 269,-300 269,-300 269,-294 275,-288 281,-288 281,-288 385,-288 385,-288 391,-288 397,-294 397,-300 397,-300 397,-312 397,-312 397,-318 391,-324 385,-324"/>
<text text-anchor="middle" x="333" y="-303.5" font-family="sans" font-size="10.00">gatk_model_segments</text>
</g>
<!-- 7&#45;&gt;6 -->
<g id="edge16" class="edge">
<title>7&#45;&gt;6</title>
<path fill="none" stroke="grey" stroke-width="2" d="M333,-287.7C333,-279.98 333,-270.71 333,-262.11"/>
<polygon fill="grey" stroke="grey" stroke-width="2" points="336.5,-262.1 333,-252.1 329.5,-262.1 336.5,-262.1"/>
</g>
<!-- 8 -->
<g id="node9" class="node">
<title>8</title>
<path fill="none" stroke="#d8ac56" stroke-width="2" d="M275,-396C275,-396 151,-396 151,-396 145,-396 139,-390 139,-384 139,-384 139,-372 139,-372 139,-366 145,-360 151,-360 151,-360 275,-360 275,-360 281,-360 287,-366 287,-372 287,-372 287,-384 287,-384 287,-390 281,-396 275,-396"/>
<text text-anchor="middle" x="213" y="-375.5" font-family="sans" font-size="10.00">gatk_collect_allelic_counts</text>
</g>
<!-- 8&#45;&gt;7 -->
<g id="edge18" class="edge">
<title>8&#45;&gt;7</title>
<path fill="none" stroke="grey" stroke-width="2" d="M242.36,-359.88C258.05,-350.72 277.56,-339.34 294.45,-329.48"/>
<polygon fill="grey" stroke="grey" stroke-width="2" points="296.66,-332.25 303.53,-324.19 293.13,-326.21 296.66,-332.25"/>
</g>
<!-- 9 -->
<g id="node10" class="node">
<title>9</title>
<path fill="none" stroke="#56d89a" stroke-width="2" d="M439,-396C439,-396 317,-396 317,-396 311,-396 305,-390 305,-384 305,-384 305,-372 305,-372 305,-366 311,-360 317,-360 317,-360 439,-360 439,-360 445,-360 451,-366 451,-372 451,-372 451,-384 451,-384 451,-390 445,-396 439,-396"/>
<text text-anchor="middle" x="378" y="-375.5" font-family="sans" font-size="10.00">gatk_denoise_read_counts</text>
</g>
<!-- 9&#45;&gt;7 -->
<g id="edge17" class="edge">
<title>9&#45;&gt;7</title>
<path fill="none" stroke="grey" stroke-width="2" d="M366.88,-359.7C361.64,-351.56 355.3,-341.69 349.52,-332.7"/>
<polygon fill="grey" stroke="grey" stroke-width="2" points="352.35,-330.62 344,-324.1 346.46,-334.41 352.35,-330.62"/>
</g>
<!-- 10 -->
<g id="node11" class="node">
<title>10</title>
<path fill="none" stroke="#68d856" stroke-width="2" d="M423,-468C423,-468 307,-468 307,-468 301,-468 295,-462 295,-456 295,-456 295,-444 295,-444 295,-438 301,-432 307,-432 307,-432 423,-432 423,-432 429,-432 435,-438 435,-444 435,-444 435,-456 435,-456 435,-462 429,-468 423,-468"/>
<text text-anchor="middle" x="365" y="-447.5" font-family="sans" font-size="10.00">gatk_collect_read_counts</text>
</g>
<!-- 10&#45;&gt;9 -->
<g id="edge19" class="edge">
<title>10&#45;&gt;9</title>
<path fill="none" stroke="grey" stroke-width="2" d="M368.21,-431.7C369.65,-423.98 371.37,-414.71 372.96,-406.11"/>
<polygon fill="grey" stroke="grey" stroke-width="2" points="376.44,-406.58 374.82,-396.1 369.56,-405.3 376.44,-406.58"/>
</g>
<!-- 11&#45;&gt;0 -->
<g id="edge5" class="edge">
<title>11&#45;&gt;0</title>
<path fill="none" stroke="grey" stroke-width="2" d="M326.3,-143.99C322.39,-133.68 317.54,-120.2 314,-108 308.07,-87.6 302.87,-64.14 299.25,-46.43"/>
<polygon fill="grey" stroke="grey" stroke-width="2" points="302.61,-45.34 297.22,-36.22 295.74,-46.71 302.61,-45.34"/>
</g>
<!-- 16 -->
<g id="node17" class="node">
<title>16</title>
<path fill="none" stroke="#566bd8" stroke-width="2" d="M383.5,-108C383.5,-108 334.5,-108 334.5,-108 328.5,-108 322.5,-102 322.5,-96 322.5,-96 322.5,-84 322.5,-84 322.5,-78 328.5,-72 334.5,-72 334.5,-72 383.5,-72 383.5,-72 389.5,-72 395.5,-78 395.5,-84 395.5,-84 395.5,-96 395.5,-96 395.5,-102 389.5,-108 383.5,-108"/>
<text text-anchor="middle" x="359" y="-87.5" font-family="sans" font-size="10.00">svdb_query</text>
</g>
<!-- 11&#45;&gt;16 -->
<g id="edge26" class="edge">
<title>11&#45;&gt;16</title>
<path fill="none" stroke="grey" stroke-width="2" d="M339.43,-143.7C342.36,-135.81 345.89,-126.3 349.14,-117.55"/>
<polygon fill="grey" stroke="grey" stroke-width="2" points="352.45,-118.7 352.65,-108.1 345.88,-116.26 352.45,-118.7"/>
</g>
<!-- 12 -->
<g id="node13" class="node">
<title>12</title>
<path fill="none" stroke="#5682d8" stroke-width="2" d="M599,-252C599,-252 411,-252 411,-252 405,-252 399,-246 399,-240 399,-240 399,-228 399,-228 399,-222 405,-216 411,-216 411,-216 599,-216 599,-216 605,-216 611,-222 611,-228 611,-228 611,-240 611,-240 611,-246 605,-252 599,-252"/>
<text text-anchor="middle" x="505" y="-231.5" font-family="sans" font-size="10.00">pindel_update_vcf_sequence_dictionary</text>
</g>
<!-- 12&#45;&gt;0 -->
<g id="edge10" class="edge">
<title>12&#45;&gt;0</title>
<path fill="none" stroke="grey" stroke-width="2" d="M498.2,-215.75C484.78,-183.63 452.07,-114.14 405,-72 383.56,-52.81 353.94,-39.13 330.69,-30.49"/>
<polygon fill="grey" stroke="grey" stroke-width="2" points="331.75,-27.15 321.15,-27.09 329.4,-33.74 331.75,-27.15"/>
</g>
<!-- 12&#45;&gt;11 -->
<g id="edge21" class="edge">
<title>12&#45;&gt;11</title>
<path fill="none" stroke="grey" stroke-width="2" d="M462.92,-215.88C438.23,-205.83 406.94,-193.09 381.25,-182.64"/>
<polygon fill="grey" stroke="grey" stroke-width="2" points="382.28,-179.28 371.7,-178.75 379.64,-185.76 382.28,-179.28"/>
</g>
<!-- 13 -->
<g id="node14" class="node">
<title>13</title>
<path fill="none" stroke="#56d8a9" stroke-width="2" d="M531,-324C531,-324 487,-324 487,-324 481,-324 475,-318 475,-312 475,-312 475,-300 475,-300 475,-294 481,-288 487,-288 487,-288 531,-288 531,-288 537,-288 543,-294 543,-300 543,-300 543,-312 543,-312 543,-318 537,-324 531,-324"/>
<text text-anchor="middle" x="509" y="-303.5" font-family="sans" font-size="10.00">pindel2vcf</text>
</g>
<!-- 13&#45;&gt;12 -->
<g id="edge23" class="edge">
<title>13&#45;&gt;12</title>
<path fill="none" stroke="grey" stroke-width="2" d="M508.01,-287.7C507.57,-279.98 507.04,-270.71 506.55,-262.11"/>
<polygon fill="grey" stroke="grey" stroke-width="2" points="510.04,-261.89 505.98,-252.1 503.05,-262.29 510.04,-261.89"/>
</g>
<!-- 14 -->
<g id="node15" class="node">
<title>14</title>
<path fill="none" stroke="#56d86b" stroke-width="2" d="M538.5,-396C538.5,-396 493.5,-396 493.5,-396 487.5,-396 481.5,-390 481.5,-384 481.5,-384 481.5,-372 481.5,-372 481.5,-366 487.5,-360 493.5,-360 493.5,-360 538.5,-360 538.5,-360 544.5,-360 550.5,-366 550.5,-372 550.5,-372 550.5,-384 550.5,-384 550.5,-390 544.5,-396 538.5,-396"/>
<text text-anchor="middle" x="516" y="-375.5" font-family="sans" font-size="10.00">pindel_call</text>
</g>
<!-- 14&#45;&gt;13 -->
<g id="edge24" class="edge">
<title>14&#45;&gt;13</title>
<path fill="none" stroke="grey" stroke-width="2" d="M514.27,-359.7C513.5,-351.98 512.57,-342.71 511.71,-334.11"/>
<polygon fill="grey" stroke="grey" stroke-width="2" points="515.19,-333.71 510.71,-324.1 508.22,-334.4 515.19,-333.71"/>
</g>
<!-- 15 -->
<g id="node16" class="node">
<title>15</title>
<path fill="none" stroke="#d89556" stroke-width="2" d="M571,-468C571,-468 465,-468 465,-468 459,-468 453,-462 453,-456 453,-456 453,-444 453,-444 453,-438 459,-432 465,-432 465,-432 571,-432 571,-432 577,-432 583,-438 583,-444 583,-444 583,-456 583,-456 583,-462 577,-468 571,-468"/>
<text text-anchor="middle" x="518" y="-447.5" font-family="sans" font-size="10.00">pindel_generate_config</text>
</g>
<!-- 15&#45;&gt;14 -->
<g id="edge25" class="edge">
<title>15&#45;&gt;14</title>
<path fill="none" stroke="grey" stroke-width="2" d="M517.51,-431.7C517.29,-423.98 517.02,-414.71 516.77,-406.11"/>
<polygon fill="grey" stroke="grey" stroke-width="2" points="520.27,-406 516.49,-396.1 513.28,-406.2 520.27,-406"/>
</g>
<!-- 16&#45;&gt;0 -->
<g id="edge11" class="edge">
<title>16&#45;&gt;0</title>
<path fill="none" stroke="grey" stroke-width="2" d="M342.93,-71.7C335.06,-63.22 325.44,-52.86 316.83,-43.58"/>
<polygon fill="grey" stroke="grey" stroke-width="2" points="319.25,-41.05 309.88,-36.1 314.12,-45.81 319.25,-41.05"/>
</g>
<!-- 17 -->
<g id="node18" class="node">
<title>17</title>
<path fill="none" stroke="#80d856" stroke-width="2" d="M540,-108C540,-108 464,-108 464,-108 458,-108 452,-102 452,-96 452,-96 452,-84 452,-84 452,-78 458,-72 464,-72 464,-72 540,-72 540,-72 546,-72 552,-78 552,-84 552,-84 552,-96 552,-96 552,-102 546,-108 540,-108"/>
<text text-anchor="middle" x="502" y="-87.5" font-family="sans" font-size="10.00">exomedepth_call</text>
</g>
<!-- 17&#45;&gt;0 -->
<g id="edge2" class="edge">
<title>17&#45;&gt;0</title>
<path fill="none" stroke="grey" stroke-width="2" d="M451.91,-72.14C414.66,-59.61 364.64,-42.77 330.96,-31.44"/>
<polygon fill="grey" stroke="grey" stroke-width="2" points="331.66,-27.98 321.07,-28.11 329.43,-34.62 331.66,-27.98"/>
</g>
<!-- 18 -->
<g id="node19" class="node">
<title>18</title>
<path fill="none" stroke="#97d856" stroke-width="2" d="M692,-108C692,-108 582,-108 582,-108 576,-108 570,-102 570,-96 570,-96 570,-84 570,-84 570,-78 576,-72 582,-72 582,-72 692,-72 692,-72 698,-72 704,-78 704,-84 704,-84 704,-96 704,-96 704,-102 698,-108 692,-108"/>
<text text-anchor="middle" x="637" y="-87.5" font-family="sans" font-size="10.00">manta_run_workflow_tn</text>
</g>
<!-- 18&#45;&gt;0 -->
<g id="edge7" class="edge">
<title>18&#45;&gt;0</title>
<path fill="none" stroke="grey" stroke-width="2" d="M569.88,-73.89C566.88,-73.25 563.91,-72.61 561,-72 479.24,-54.74 383.05,-36.04 331.36,-26.12"/>
<polygon fill="grey" stroke="grey" stroke-width="2" points="331.81,-22.64 321.33,-24.2 330.5,-29.52 331.81,-22.64"/>
</g>
<!-- 19 -->
<g id="node20" class="node">
<title>19</title>
<path fill="none" stroke="#c6d856" stroke-width="2" d="M674,-180C674,-180 600,-180 600,-180 594,-180 588,-174 588,-168 588,-168 588,-156 588,-156 588,-150 594,-144 600,-144 600,-144 674,-144 674,-144 680,-144 686,-150 686,-156 686,-156 686,-168 686,-168 686,-174 680,-180 674,-180"/>
<text text-anchor="middle" x="637" y="-159.5" font-family="sans" font-size="10.00">manta_config_tn</text>
</g>
<!-- 19&#45;&gt;18 -->
<g id="edge27" class="edge">
<title>19&#45;&gt;18</title>
<path fill="none" stroke="grey" stroke-width="2" d="M637,-143.7C637,-135.98 637,-126.71 637,-118.11"/>
<polygon fill="grey" stroke="grey" stroke-width="2" points="640.5,-118.1 637,-108.1 633.5,-118.1 640.5,-118.1"/>
</g>
<!-- 20 -->
<g id="node21" class="node">
<title>20</title>
<path fill="none" stroke="#56d8c1" stroke-width="2" d="M838,-108C838,-108 734,-108 734,-108 728,-108 722,-102 722,-96 722,-96 722,-84 722,-84 722,-78 728,-72 734,-72 734,-72 838,-72 838,-72 844,-72 850,-78 850,-84 850,-84 850,-96 850,-96 850,-102 844,-108 838,-108"/>
<text text-anchor="middle" x="786" y="-87.5" font-family="sans" font-size="10.00">manta_run_workflow_t</text>
</g>
<!-- 20&#45;&gt;0 -->
<g id="edge8" class="edge">
<title>20&#45;&gt;0</title>
<path fill="none" stroke="grey" stroke-width="2" d="M721.98,-73.7C718.95,-73.1 715.95,-72.53 713,-72 573.01,-46.92 404.62,-29.42 331.23,-22.41"/>
<polygon fill="grey" stroke="grey" stroke-width="2" points="331.39,-18.91 321.11,-21.45 330.73,-25.88 331.39,-18.91"/>
</g>
<!-- 21 -->
<g id="node22" class="node">
<title>21</title>
<path fill="none" stroke="#d86e56" stroke-width="2" d="M820,-180C820,-180 752,-180 752,-180 746,-180 740,-174 740,-168 740,-168 740,-156 740,-156 740,-150 746,-144 752,-144 752,-144 820,-144 820,-144 826,-144 832,-150 832,-156 832,-156 832,-168 832,-168 832,-174 826,-180 820,-180"/>
<text text-anchor="middle" x="786" y="-159.5" font-family="sans" font-size="10.00">manta_config_t</text>
</g>
<!-- 21&#45;&gt;20 -->
<g id="edge28" class="edge">
<title>21&#45;&gt;20</title>
<path fill="none" stroke="grey" stroke-width="2" d="M786,-143.7C786,-135.98 786,-126.71 786,-118.11"/>
<polygon fill="grey" stroke="grey" stroke-width="2" points="789.5,-118.1 786,-108.1 782.5,-118.1 789.5,-118.1"/>
</g>
</g>
</svg>
