<?xml version="1.0" encoding="UTF-8" standalone="no"?>
<!DOCTYPE svg PUBLIC "-//W3C//DTD SVG 1.1//EN"
 "http://www.w3.org/Graphics/SVG/1.1/DTD/svg11.dtd">
<!-- Generated by graphviz version 2.40.1 (0)
 -->
<!-- Title: snakemake_dag Pages: 1 -->
<svg width="1536pt" height="548pt"
 viewBox="0.00 0.00 1535.50 548.00" xmlns="http://www.w3.org/2000/svg" xmlns:xlink="http://www.w3.org/1999/xlink">
<g id="graph0" class="graph" transform="scale(1 1) rotate(0) translate(4 544)">
<title>snakemake_dag</title>
<polygon fill="#ffffff" stroke="transparent" points="-4,4 -4,-544 1531.5,-544 1531.5,4 -4,4"/>
<!-- 0 -->
<g id="node1" class="node">
<title>0</title>
<path fill="none" stroke="#bed856" stroke-width="2" d="M772,-36C772,-36 742,-36 742,-36 736,-36 730,-30 730,-24 730,-24 730,-12 730,-12 730,-6 736,0 742,0 742,0 772,0 772,0 778,0 784,-6 784,-12 784,-12 784,-24 784,-24 784,-30 778,-36 772,-36"/>
<text text-anchor="middle" x="757" y="-15.5" font-family="sans" font-size="10.00" fill="#000000">all</text>
</g>
<!-- 1 -->
<g id="node2" class="node">
<title>1</title>
<path fill="none" stroke="#88d856" stroke-width="2" d="M193.5,-396C193.5,-396 148.5,-396 148.5,-396 142.5,-396 136.5,-390 136.5,-384 136.5,-384 136.5,-372 136.5,-372 136.5,-366 142.5,-360 148.5,-360 148.5,-360 193.5,-360 193.5,-360 199.5,-360 205.5,-366 205.5,-372 205.5,-372 205.5,-384 205.5,-384 205.5,-390 199.5,-396 193.5,-396"/>
<text text-anchor="middle" x="171" y="-375.5" font-family="sans" font-size="10.00" fill="#000000">cnvkit_call</text>
</g>
<!-- 1&#45;&gt;0 -->
<g id="edge12" class="edge">
<title>1&#45;&gt;0</title>
<path fill="none" stroke="#c0c0c0" stroke-width="2" d="M171,-359.8146C171,-332.4983 171,-279.25 171,-234 171,-234 171,-234 171,-162 171,-48.5109 590.7318,-23.9768 719.7364,-19.1164"/>
<polygon fill="#c0c0c0" stroke="#c0c0c0" stroke-width="2" points="720.0431,-22.6078 729.9113,-18.7516 719.7922,-15.6123 720.0431,-22.6078"/>
</g>
<!-- 6 -->
<g id="node7" class="node">
<title>6</title>
<path fill="none" stroke="#97d856" stroke-width="2" d="M362.5,-324C362.5,-324 319.5,-324 319.5,-324 313.5,-324 307.5,-318 307.5,-312 307.5,-312 307.5,-300 307.5,-300 307.5,-294 313.5,-288 319.5,-288 319.5,-288 362.5,-288 362.5,-288 368.5,-288 374.5,-294 374.5,-300 374.5,-300 374.5,-312 374.5,-312 374.5,-318 368.5,-324 362.5,-324"/>
<text text-anchor="middle" x="341" y="-303.5" font-family="sans" font-size="10.00" fill="#000000">cnvkit_vcf</text>
</g>
<!-- 1&#45;&gt;6 -->
<g id="edge25" class="edge">
<title>1&#45;&gt;6</title>
<path fill="none" stroke="#c0c0c0" stroke-width="2" d="M205.8123,-363.256C232.5182,-351.9452 269.5219,-336.2731 298.0646,-324.1844"/>
<polygon fill="#c0c0c0" stroke="#c0c0c0" stroke-width="2" points="299.5497,-327.3565 307.3928,-320.2336 296.8197,-320.9107 299.5497,-327.3565"/>
</g>
<!-- 2 -->
<g id="node3" class="node">
<title>2</title>
<path fill="none" stroke="#56b1d8" stroke-width="2" d="M124.5,-468C124.5,-468 69.5,-468 69.5,-468 63.5,-468 57.5,-462 57.5,-456 57.5,-456 57.5,-444 57.5,-444 57.5,-438 63.5,-432 69.5,-432 69.5,-432 124.5,-432 124.5,-432 130.5,-432 136.5,-438 136.5,-444 136.5,-444 136.5,-456 136.5,-456 136.5,-462 130.5,-468 124.5,-468"/>
<text text-anchor="middle" x="97" y="-447.5" font-family="sans" font-size="10.00" fill="#000000">cnvkit_batch</text>
</g>
<!-- 2&#45;&gt;1 -->
<g id="edge14" class="edge">
<title>2&#45;&gt;1</title>
<path fill="none" stroke="#c0c0c0" stroke-width="2" d="M115.6733,-431.8314C124.5249,-423.219 135.2486,-412.7851 144.8895,-403.4048"/>
<polygon fill="#c0c0c0" stroke="#c0c0c0" stroke-width="2" points="147.6061,-405.645 152.3326,-396.1628 142.7246,-400.6279 147.6061,-405.645"/>
</g>
<!-- 3 -->
<g id="node4" class="node">
<title>3</title>
<path fill="none" stroke="#56d863" stroke-width="2" d="M131,-324C131,-324 63,-324 63,-324 57,-324 51,-318 51,-312 51,-312 51,-300 51,-300 51,-294 57,-288 63,-288 63,-288 131,-288 131,-288 137,-288 143,-294 143,-300 143,-300 143,-312 143,-312 143,-318 137,-324 131,-324"/>
<text text-anchor="middle" x="97" y="-303.5" font-family="sans" font-size="10.00" fill="#000000">cnvkit_diagram</text>
</g>
<!-- 2&#45;&gt;3 -->
<g id="edge15" class="edge">
<title>2&#45;&gt;3</title>
<path fill="none" stroke="#c0c0c0" stroke-width="2" d="M97,-431.7623C97,-407.201 97,-363.2474 97,-334.3541"/>
<polygon fill="#c0c0c0" stroke="#c0c0c0" stroke-width="2" points="100.5001,-334.0896 97,-324.0896 93.5001,-334.0897 100.5001,-334.0896"/>
</g>
<!-- 4 -->
<g id="node5" class="node">
<title>4</title>
<path fill="none" stroke="#56c1d8" stroke-width="2" d="M74,-252C74,-252 12,-252 12,-252 6,-252 0,-246 0,-240 0,-240 0,-228 0,-228 0,-222 6,-216 12,-216 12,-216 74,-216 74,-216 80,-216 86,-222 86,-228 86,-228 86,-240 86,-240 86,-246 80,-252 74,-252"/>
<text text-anchor="middle" x="43" y="-231.5" font-family="sans" font-size="10.00" fill="#000000">cnvkit_scatter</text>
</g>
<!-- 2&#45;&gt;4 -->
<g id="edge16" class="edge">
<title>2&#45;&gt;4</title>
<path fill="none" stroke="#c0c0c0" stroke-width="2" d="M86.0653,-431.6007C72.5887,-407.752 50.4376,-364.4208 42,-324 37.7493,-303.6369 38.1899,-280.1143 39.5922,-262.2249"/>
<polygon fill="#c0c0c0" stroke="#c0c0c0" stroke-width="2" points="43.0879,-262.4326 40.5283,-252.1516 36.1179,-261.7848 43.0879,-262.4326"/>
</g>
<!-- 3&#45;&gt;0 -->
<g id="edge7" class="edge">
<title>3&#45;&gt;0</title>
<path fill="none" stroke="#c0c0c0" stroke-width="2" d="M98.9906,-287.7469C104.8406,-237.7316 123.6948,-100.3256 157,-72 199.8681,-35.5413 594.752,-22.2178 719.4503,-18.8986"/>
<polygon fill="#c0c0c0" stroke="#c0c0c0" stroke-width="2" points="719.744,-22.3922 729.6497,-18.6335 719.5621,-15.3946 719.744,-22.3922"/>
</g>
<!-- 4&#45;&gt;0 -->
<g id="edge6" class="edge">
<title>4&#45;&gt;0</title>
<path fill="none" stroke="#c0c0c0" stroke-width="2" d="M43.4988,-215.7731C45.5222,-181.3531 55.2612,-107.1012 101,-72 150.2078,-34.2366 587.8186,-21.6863 719.6075,-18.7452"/>
<polygon fill="#c0c0c0" stroke="#c0c0c0" stroke-width="2" points="719.7064,-22.244 729.6279,-18.5271 719.554,-15.2456 719.7064,-22.244"/>
</g>
<!-- 5 -->
<g id="node6" class="node">
<title>5</title>
<path fill="none" stroke="#56d8b9" stroke-width="2" d="M545,-108C545,-108 515,-108 515,-108 509,-108 503,-102 503,-96 503,-96 503,-84 503,-84 503,-78 509,-72 515,-72 515,-72 545,-72 545,-72 551,-72 557,-78 557,-84 557,-84 557,-96 557,-96 557,-102 551,-108 545,-108"/>
<text text-anchor="middle" x="530" y="-87.5" font-family="sans" font-size="10.00" fill="#000000">bgzip</text>
</g>
<!-- 5&#45;&gt;0 -->
<g id="edge4" class="edge">
<title>5&#45;&gt;0</title>
<path fill="none" stroke="#c0c0c0" stroke-width="2" d="M557.1663,-76.476C560.7708,-74.8758 564.4478,-73.3384 568,-72 619.7398,-52.5051 681.6932,-36.0566 720.2071,-26.6072"/>
<polygon fill="#c0c0c0" stroke="#c0c0c0" stroke-width="2" points="721.0536,-30.0034 729.9465,-24.2444 719.4032,-23.2007 721.0536,-30.0034"/>
</g>
<!-- 6&#45;&gt;5 -->
<g id="edge22" class="edge">
<title>6&#45;&gt;5</title>
<path fill="none" stroke="#c0c0c0" stroke-width="2" d="M335.5179,-287.9268C326.8467,-255.3734 314.1092,-186.3409 347,-144 364.8907,-120.969 444.7453,-104.0734 492.8608,-95.7688"/>
<polygon fill="#c0c0c0" stroke="#c0c0c0" stroke-width="2" points="493.6214,-99.1901 502.9027,-94.0805 492.4607,-92.287 493.6214,-99.1901"/>
</g>
<!-- 15 -->
<g id="node16" class="node">
<title>15</title>
<path fill="none" stroke="#56d892" stroke-width="2" d="M515.5,-252C515.5,-252 462.5,-252 462.5,-252 456.5,-252 450.5,-246 450.5,-240 450.5,-240 450.5,-228 450.5,-228 450.5,-222 456.5,-216 462.5,-216 462.5,-216 515.5,-216 515.5,-216 521.5,-216 527.5,-222 527.5,-228 527.5,-228 527.5,-240 527.5,-240 527.5,-246 521.5,-252 515.5,-252"/>
<text text-anchor="middle" x="489" y="-231.5" font-family="sans" font-size="10.00" fill="#000000">svdb_merge</text>
</g>
<!-- 6&#45;&gt;15 -->
<g id="edge32" class="edge">
<title>6&#45;&gt;15</title>
<path fill="none" stroke="#c0c0c0" stroke-width="2" d="M374.5835,-289.6621C394.7322,-279.86 420.6475,-267.2526 442.7177,-256.5157"/>
<polygon fill="#c0c0c0" stroke="#c0c0c0" stroke-width="2" points="444.4518,-259.5644 451.913,-252.0423 441.3895,-253.2697 444.4518,-259.5644"/>
</g>
<!-- 7 -->
<g id="node8" class="node">
<title>7</title>
<path fill="none" stroke="#d89556" stroke-width="2" d="M287.5,-180C287.5,-180 224.5,-180 224.5,-180 218.5,-180 212.5,-174 212.5,-168 212.5,-168 212.5,-156 212.5,-156 212.5,-150 218.5,-144 224.5,-144 224.5,-144 287.5,-144 287.5,-144 293.5,-144 299.5,-150 299.5,-156 299.5,-156 299.5,-168 299.5,-168 299.5,-174 293.5,-180 287.5,-180"/>
<text text-anchor="middle" x="256" y="-159.5" font-family="sans" font-size="10.00" fill="#000000">cnvpytor_filter</text>
</g>
<!-- 7&#45;&gt;5 -->
<g id="edge20" class="edge">
<title>7&#45;&gt;5</title>
<path fill="none" stroke="#c0c0c0" stroke-width="2" d="M299.6268,-148.174C304.4651,-146.7261 309.3297,-145.3074 314,-144 376.5458,-126.4912 450.0418,-108.7027 493.1677,-98.5448"/>
<polygon fill="#c0c0c0" stroke="#c0c0c0" stroke-width="2" points="493.9972,-101.9453 502.9329,-96.2529 492.3977,-95.1304 493.9972,-101.9453"/>
</g>
<!-- 8 -->
<g id="node9" class="node">
<title>8</title>
<path fill="none" stroke="#56a9d8" stroke-width="2" d="M301,-252C301,-252 211,-252 211,-252 205,-252 199,-246 199,-240 199,-240 199,-228 199,-228 199,-222 205,-216 211,-216 211,-216 301,-216 301,-216 307,-216 313,-222 313,-228 313,-228 313,-240 313,-240 313,-246 307,-252 301,-252"/>
<text text-anchor="middle" x="256" y="-231.5" font-family="sans" font-size="10.00" fill="#000000">cnvpytor_readdepth</text>
</g>
<!-- 8&#45;&gt;7 -->
<g id="edge26" class="edge">
<title>8&#45;&gt;7</title>
<path fill="none" stroke="#c0c0c0" stroke-width="2" d="M256,-215.8314C256,-208.131 256,-198.9743 256,-190.4166"/>
<polygon fill="#c0c0c0" stroke="#c0c0c0" stroke-width="2" points="259.5001,-190.4132 256,-180.4133 252.5001,-190.4133 259.5001,-190.4132"/>
</g>
<!-- 9 -->
<g id="node10" class="node">
<title>9</title>
<path fill="none" stroke="#56b9d8" stroke-width="2" d="M720,-252C720,-252 646,-252 646,-252 640,-252 634,-246 634,-240 634,-240 634,-228 634,-228 634,-222 640,-216 646,-216 646,-216 720,-216 720,-216 726,-216 732,-222 732,-228 732,-228 732,-240 732,-240 732,-246 726,-252 720,-252"/>
<text text-anchor="middle" x="683" y="-231.5" font-family="sans" font-size="10.00" fill="#000000">expansionhunter</text>
</g>
<!-- 9&#45;&gt;5 -->
<g id="edge17" class="edge">
<title>9&#45;&gt;5</title>
<path fill="none" stroke="#c0c0c0" stroke-width="2" d="M673.3041,-215.7469C662.3013,-196.2647 642.8815,-165.3268 620,-144 604.2544,-129.3243 583.8774,-116.6947 566.4956,-107.3477"/>
<polygon fill="#c0c0c0" stroke="#c0c0c0" stroke-width="2" points="567.6811,-104.0187 557.1956,-102.5005 564.4457,-110.2262 567.6811,-104.0187"/>
</g>
<!-- 24 -->
<g id="node25" class="node">
<title>24</title>
<path fill="none" stroke="#565bd8" stroke-width="2" d="M696.5,-108C696.5,-108 661.5,-108 661.5,-108 655.5,-108 649.5,-102 649.5,-96 649.5,-96 649.5,-84 649.5,-84 649.5,-78 655.5,-72 661.5,-72 661.5,-72 696.5,-72 696.5,-72 702.5,-72 708.5,-78 708.5,-84 708.5,-84 708.5,-96 708.5,-96 708.5,-102 702.5,-108 696.5,-108"/>
<text text-anchor="middle" x="679" y="-87.5" font-family="sans" font-size="10.00" fill="#000000">reviewer</text>
</g>
<!-- 9&#45;&gt;24 -->
<g id="edge38" class="edge">
<title>9&#45;&gt;24</title>
<path fill="none" stroke="#c0c0c0" stroke-width="2" d="M682.4934,-215.7623C681.8111,-191.201 680.5902,-147.2474 679.7876,-118.3541"/>
<polygon fill="#c0c0c0" stroke="#c0c0c0" stroke-width="2" points="683.2789,-117.9885 679.5025,-108.0896 676.2816,-118.183 683.2789,-117.9885"/>
</g>
<!-- 25 -->
<g id="node26" class="node">
<title>25</title>
<path fill="none" stroke="#5663d8" stroke-width="2" d="M857.5,-180C857.5,-180 722.5,-180 722.5,-180 716.5,-180 710.5,-174 710.5,-168 710.5,-168 710.5,-156 710.5,-156 710.5,-150 716.5,-144 722.5,-144 722.5,-144 857.5,-144 857.5,-144 863.5,-144 869.5,-150 869.5,-156 869.5,-156 869.5,-168 869.5,-168 869.5,-174 863.5,-180 857.5,-180"/>
<text text-anchor="middle" x="790" y="-159.5" font-family="sans" font-size="10.00" fill="#000000">reviewer_generate_locus_list</text>
</g>
<!-- 9&#45;&gt;25 -->
<g id="edge40" class="edge">
<title>9&#45;&gt;25</title>
<path fill="none" stroke="#c0c0c0" stroke-width="2" d="M710.0006,-215.8314C723.4331,-206.7927 739.8473,-195.7476 754.3039,-186.0198"/>
<polygon fill="#c0c0c0" stroke="#c0c0c0" stroke-width="2" points="756.6654,-188.6494 763.008,-180.1628 752.7575,-182.8418 756.6654,-188.6494"/>
</g>
<!-- 10 -->
<g id="node11" class="node">
<title>10</title>
<path fill="none" stroke="#9fd856" stroke-width="2" d="M514,-324C514,-324 464,-324 464,-324 458,-324 452,-318 452,-312 452,-312 452,-300 452,-300 452,-294 458,-288 464,-288 464,-288 514,-288 514,-288 520,-288 526,-294 526,-300 526,-300 526,-312 526,-312 526,-318 520,-324 514,-324"/>
<text text-anchor="middle" x="489" y="-303.5" font-family="sans" font-size="10.00" fill="#000000">gatk_to_vcf</text>
</g>
<!-- 10&#45;&gt;5 -->
<g id="edge21" class="edge">
<title>10&#45;&gt;5</title>
<path fill="none" stroke="#c0c0c0" stroke-width="2" d="M511.2213,-287.9032C521.1308,-278.3888 531.74,-265.8349 537,-252 553.8813,-207.5989 545.4673,-151.3482 537.7698,-118.1593"/>
<polygon fill="#c0c0c0" stroke="#c0c0c0" stroke-width="2" points="541.1167,-117.1124 535.3288,-108.2382 534.3194,-118.7849 541.1167,-117.1124"/>
</g>
<!-- 10&#45;&gt;15 -->
<g id="edge33" class="edge">
<title>10&#45;&gt;15</title>
<path fill="none" stroke="#c0c0c0" stroke-width="2" d="M489,-287.8314C489,-280.131 489,-270.9743 489,-262.4166"/>
<polygon fill="#c0c0c0" stroke="#c0c0c0" stroke-width="2" points="492.5001,-262.4132 489,-252.4133 485.5001,-262.4133 492.5001,-262.4132"/>
</g>
<!-- 11 -->
<g id="node12" class="node">
<title>11</title>
<path fill="none" stroke="#56d8c1" stroke-width="2" d="M536,-396C536,-396 432,-396 432,-396 426,-396 420,-390 420,-384 420,-384 420,-372 420,-372 420,-366 426,-360 432,-360 432,-360 536,-360 536,-360 542,-360 548,-366 548,-372 548,-372 548,-384 548,-384 548,-390 542,-396 536,-396"/>
<text text-anchor="middle" x="484" y="-375.5" font-family="sans" font-size="10.00" fill="#000000">gatk_model_segments</text>
</g>
<!-- 11&#45;&gt;10 -->
<g id="edge27" class="edge">
<title>11&#45;&gt;10</title>
<path fill="none" stroke="#c0c0c0" stroke-width="2" d="M485.2617,-359.8314C485.7965,-352.131 486.4323,-342.9743 487.0266,-334.4166"/>
<polygon fill="#c0c0c0" stroke="#c0c0c0" stroke-width="2" points="490.52,-334.6317 487.7213,-324.4133 483.5368,-334.1467 490.52,-334.6317"/>
</g>
<!-- 12 -->
<g id="node13" class="node">
<title>12</title>
<path fill="none" stroke="#d8cb56" stroke-width="2" d="M381,-468C381,-468 257,-468 257,-468 251,-468 245,-462 245,-456 245,-456 245,-444 245,-444 245,-438 251,-432 257,-432 257,-432 381,-432 381,-432 387,-432 393,-438 393,-444 393,-444 393,-456 393,-456 393,-462 387,-468 381,-468"/>
<text text-anchor="middle" x="319" y="-447.5" font-family="sans" font-size="10.00" fill="#000000">gatk_collect_allelic_counts</text>
</g>
<!-- 12&#45;&gt;11 -->
<g id="edge28" class="edge">
<title>12&#45;&gt;11</title>
<path fill="none" stroke="#c0c0c0" stroke-width="2" d="M360.6365,-431.8314C382.7042,-422.2018 409.9907,-410.295 433.2857,-400.1299"/>
<polygon fill="#c0c0c0" stroke="#c0c0c0" stroke-width="2" points="434.8974,-403.2454 442.6629,-396.038 432.0977,-396.8296 434.8974,-403.2454"/>
</g>
<!-- 13 -->
<g id="node14" class="node">
<title>13</title>
<path fill="none" stroke="#d8d356" stroke-width="2" d="M545,-468C545,-468 423,-468 423,-468 417,-468 411,-462 411,-456 411,-456 411,-444 411,-444 411,-438 417,-432 423,-432 423,-432 545,-432 545,-432 551,-432 557,-438 557,-444 557,-444 557,-456 557,-456 557,-462 551,-468 545,-468"/>
<text text-anchor="middle" x="484" y="-447.5" font-family="sans" font-size="10.00" fill="#000000">gatk_denoise_read_counts</text>
</g>
<!-- 13&#45;&gt;11 -->
<g id="edge29" class="edge">
<title>13&#45;&gt;11</title>
<path fill="none" stroke="#c0c0c0" stroke-width="2" d="M484,-431.8314C484,-424.131 484,-414.9743 484,-406.4166"/>
<polygon fill="#c0c0c0" stroke="#c0c0c0" stroke-width="2" points="487.5001,-406.4132 484,-396.4133 480.5001,-406.4133 487.5001,-406.4132"/>
</g>
<!-- 14 -->
<g id="node15" class="node">
<title>14</title>
<path fill="none" stroke="#d8bc56" stroke-width="2" d="M535,-540C535,-540 419,-540 419,-540 413,-540 407,-534 407,-528 407,-528 407,-516 407,-516 407,-510 413,-504 419,-504 419,-504 535,-504 535,-504 541,-504 547,-510 547,-516 547,-516 547,-528 547,-528 547,-534 541,-540 535,-540"/>
<text text-anchor="middle" x="477" y="-519.5" font-family="sans" font-size="10.00" fill="#000000">gatk_collect_read_counts</text>
</g>
<!-- 14&#45;&gt;13 -->
<g id="edge30" class="edge">
<title>14&#45;&gt;13</title>
<path fill="none" stroke="#c0c0c0" stroke-width="2" d="M478.7664,-503.8314C479.515,-496.131 480.4053,-486.9743 481.2373,-478.4166"/>
<polygon fill="#c0c0c0" stroke="#c0c0c0" stroke-width="2" points="484.7256,-478.7051 482.2098,-468.4133 477.7585,-478.0276 484.7256,-478.7051"/>
</g>
<!-- 15&#45;&gt;5 -->
<g id="edge19" class="edge">
<title>15&#45;&gt;5</title>
<path fill="none" stroke="#c0c0c0" stroke-width="2" d="M497.3656,-215.8016C501.8736,-205.467 507.2615,-192.195 511,-180 517.2311,-159.6744 522.1196,-136.1504 525.3768,-118.2509"/>
<polygon fill="#c0c0c0" stroke="#c0c0c0" stroke-width="2" points="528.8645,-118.6254 527.1477,-108.1706 521.9701,-117.4142 528.8645,-118.6254"/>
</g>
<!-- 20 -->
<g id="node21" class="node">
<title>20</title>
<path fill="none" stroke="#d88d56" stroke-width="2" d="M417.5,-180C417.5,-180 368.5,-180 368.5,-180 362.5,-180 356.5,-174 356.5,-168 356.5,-168 356.5,-156 356.5,-156 356.5,-150 362.5,-144 368.5,-144 368.5,-144 417.5,-144 417.5,-144 423.5,-144 429.5,-150 429.5,-156 429.5,-156 429.5,-168 429.5,-168 429.5,-174 423.5,-180 417.5,-180"/>
<text text-anchor="middle" x="393" y="-159.5" font-family="sans" font-size="10.00" fill="#000000">svdb_query</text>
</g>
<!-- 15&#45;&gt;20 -->
<g id="edge37" class="edge">
<title>15&#45;&gt;20</title>
<path fill="none" stroke="#c0c0c0" stroke-width="2" d="M464.7751,-215.8314C452.8372,-206.8779 438.2744,-195.9558 425.394,-186.2955"/>
<polygon fill="#c0c0c0" stroke="#c0c0c0" stroke-width="2" points="427.3171,-183.3629 417.2171,-180.1628 423.1171,-188.9629 427.3171,-183.3629"/>
</g>
<!-- 16 -->
<g id="node17" class="node">
<title>16</title>
<path fill="none" stroke="#d8a456" stroke-width="2" d="M647,-324C647,-324 565,-324 565,-324 559,-324 553,-318 553,-312 553,-312 553,-300 553,-300 553,-294 559,-288 565,-288 565,-288 647,-288 647,-288 653,-288 659,-294 659,-300 659,-300 659,-312 659,-312 659,-318 653,-324 647,-324"/>
<text text-anchor="middle" x="606" y="-303.5" font-family="sans" font-size="10.00" fill="#000000">pindel_update_vcf</text>
</g>
<!-- 16&#45;&gt;5 -->
<g id="edge23" class="edge">
<title>16&#45;&gt;5</title>
<path fill="none" stroke="#c0c0c0" stroke-width="2" d="M601.7718,-287.6372C594.495,-257.1924 578.3998,-194.6033 558,-144 554.3853,-135.0335 549.7752,-125.5744 545.3439,-117.1215"/>
<polygon fill="#c0c0c0" stroke="#c0c0c0" stroke-width="2" points="548.3014,-115.2315 540.4793,-108.0855 542.1378,-118.5498 548.3014,-115.2315"/>
</g>
<!-- 16&#45;&gt;15 -->
<g id="edge31" class="edge">
<title>16&#45;&gt;15</title>
<path fill="none" stroke="#c0c0c0" stroke-width="2" d="M576.476,-287.8314C561.5109,-278.6221 543.1614,-267.3301 527.1397,-257.4706"/>
<polygon fill="#c0c0c0" stroke="#c0c0c0" stroke-width="2" points="528.8655,-254.423 518.5146,-252.1628 525.1968,-260.3847 528.8655,-254.423"/>
</g>
<!-- 17 -->
<g id="node18" class="node">
<title>17</title>
<path fill="none" stroke="#56d8d0" stroke-width="2" d="M633,-396C633,-396 589,-396 589,-396 583,-396 577,-390 577,-384 577,-384 577,-372 577,-372 577,-366 583,-360 589,-360 589,-360 633,-360 633,-360 639,-360 645,-366 645,-372 645,-372 645,-384 645,-384 645,-390 639,-396 633,-396"/>
<text text-anchor="middle" x="611" y="-375.5" font-family="sans" font-size="10.00" fill="#000000">pindel2vcf</text>
</g>
<!-- 17&#45;&gt;16 -->
<g id="edge34" class="edge">
<title>17&#45;&gt;16</title>
<path fill="none" stroke="#c0c0c0" stroke-width="2" d="M609.7383,-359.8314C609.2035,-352.131 608.5677,-342.9743 607.9734,-334.4166"/>
<polygon fill="#c0c0c0" stroke="#c0c0c0" stroke-width="2" points="611.4632,-334.1467 607.2787,-324.4133 604.48,-334.6317 611.4632,-334.1467"/>
</g>
<!-- 18 -->
<g id="node19" class="node">
<title>18</title>
<path fill="none" stroke="#56d88a" stroke-width="2" d="M645.5,-468C645.5,-468 600.5,-468 600.5,-468 594.5,-468 588.5,-462 588.5,-456 588.5,-456 588.5,-444 588.5,-444 588.5,-438 594.5,-432 600.5,-432 600.5,-432 645.5,-432 645.5,-432 651.5,-432 657.5,-438 657.5,-444 657.5,-444 657.5,-456 657.5,-456 657.5,-462 651.5,-468 645.5,-468"/>
<text text-anchor="middle" x="623" y="-447.5" font-family="sans" font-size="10.00" fill="#000000">pindel_call</text>
</g>
<!-- 18&#45;&gt;17 -->
<g id="edge35" class="edge">
<title>18&#45;&gt;17</title>
<path fill="none" stroke="#c0c0c0" stroke-width="2" d="M619.9719,-431.8314C618.6885,-424.131 617.1624,-414.9743 615.7361,-406.4166"/>
<polygon fill="#c0c0c0" stroke="#c0c0c0" stroke-width="2" points="619.1653,-405.7018 614.0689,-396.4133 612.2606,-406.8526 619.1653,-405.7018"/>
</g>
<!-- 19 -->
<g id="node20" class="node">
<title>19</title>
<path fill="none" stroke="#80d856" stroke-width="2" d="M683,-540C683,-540 577,-540 577,-540 571,-540 565,-534 565,-528 565,-528 565,-516 565,-516 565,-510 571,-504 577,-504 577,-504 683,-504 683,-504 689,-504 695,-510 695,-516 695,-516 695,-528 695,-528 695,-534 689,-540 683,-540"/>
<text text-anchor="middle" x="630" y="-519.5" font-family="sans" font-size="10.00" fill="#000000">pindel_generate_config</text>
</g>
<!-- 19&#45;&gt;18 -->
<g id="edge36" class="edge">
<title>19&#45;&gt;18</title>
<path fill="none" stroke="#c0c0c0" stroke-width="2" d="M628.2336,-503.8314C627.485,-496.131 626.5947,-486.9743 625.7627,-478.4166"/>
<polygon fill="#c0c0c0" stroke="#c0c0c0" stroke-width="2" points="629.2415,-478.0276 624.7902,-468.4133 622.2744,-478.7051 629.2415,-478.0276"/>
</g>
<!-- 20&#45;&gt;5 -->
<g id="edge18" class="edge">
<title>20&#45;&gt;5</title>
<path fill="none" stroke="#c0c0c0" stroke-width="2" d="M427.5709,-143.8314C447.7805,-133.2103 473.2614,-119.8188 493.7527,-109.0497"/>
<polygon fill="#c0c0c0" stroke="#c0c0c0" stroke-width="2" points="495.5559,-112.056 502.7797,-104.3056 492.2994,-105.8596 495.5559,-112.056"/>
</g>
<!-- 21 -->
<g id="node22" class="node">
<title>21</title>
<path fill="none" stroke="#56d87b" stroke-width="2" d="M1515.5,-180C1515.5,-180 1438.5,-180 1438.5,-180 1432.5,-180 1426.5,-174 1426.5,-168 1426.5,-168 1426.5,-156 1426.5,-156 1426.5,-150 1432.5,-144 1438.5,-144 1438.5,-144 1515.5,-144 1515.5,-144 1521.5,-144 1527.5,-150 1527.5,-156 1527.5,-156 1527.5,-168 1527.5,-168 1527.5,-174 1521.5,-180 1515.5,-180"/>
<text text-anchor="middle" x="1477" y="-159.5" font-family="sans" font-size="10.00" fill="#000000">exomedepth_sex</text>
</g>
<!-- 35 -->
<g id="node36" class="node">
<title>35</title>
<path fill="none" stroke="#8fd856" stroke-width="2" d="M1515.5,-108C1515.5,-108 1438.5,-108 1438.5,-108 1432.5,-108 1426.5,-102 1426.5,-96 1426.5,-96 1426.5,-84 1426.5,-84 1426.5,-78 1432.5,-72 1438.5,-72 1438.5,-72 1515.5,-72 1515.5,-72 1521.5,-72 1527.5,-78 1527.5,-84 1527.5,-84 1527.5,-96 1527.5,-96 1527.5,-102 1521.5,-108 1515.5,-108"/>
<text text-anchor="middle" x="1477" y="-87.5" font-family="sans" font-size="10.00" fill="#000000">exomedepth_call</text>
</g>
<!-- 21&#45;&gt;35 -->
<g id="edge44" class="edge">
<title>21&#45;&gt;35</title>
<path fill="none" stroke="#c0c0c0" stroke-width="2" d="M1477,-143.8314C1477,-136.131 1477,-126.9743 1477,-118.4166"/>
<polygon fill="#c0c0c0" stroke="#c0c0c0" stroke-width="2" points="1480.5001,-118.4132 1477,-108.4133 1473.5001,-118.4133 1480.5001,-118.4132"/>
</g>
<!-- 22 -->
<g id="node23" class="node">
<title>22</title>
<path fill="none" stroke="#d8b456" stroke-width="2" d="M490,-180C490,-180 460,-180 460,-180 454,-180 448,-174 448,-168 448,-168 448,-156 448,-156 448,-150 454,-144 460,-144 460,-144 490,-144 490,-144 496,-144 502,-150 502,-156 502,-156 502,-168 502,-168 502,-174 496,-180 490,-180"/>
<text text-anchor="middle" x="475" y="-159.5" font-family="sans" font-size="10.00" fill="#000000">tiddit</text>
</g>
<!-- 22&#45;&gt;5 -->
<g id="edge24" class="edge">
<title>22&#45;&gt;5</title>
<path fill="none" stroke="#c0c0c0" stroke-width="2" d="M488.8788,-143.8314C495.2136,-135.5386 502.8384,-125.557 509.7926,-116.4533"/>
<polygon fill="#c0c0c0" stroke="#c0c0c0" stroke-width="2" points="512.6452,-118.4847 515.9343,-108.4133 507.0825,-114.2353 512.6452,-118.4847"/>
</g>
<!-- 23 -->
<g id="node24" class="node">
<title>23</title>
<path fill="none" stroke="#56d8a2" stroke-width="2" d="M619,-108C619,-108 589,-108 589,-108 583,-108 577,-102 577,-96 577,-96 577,-84 577,-84 577,-78 583,-72 589,-72 589,-72 619,-72 619,-72 625,-72 631,-78 631,-84 631,-84 631,-96 631,-96 631,-102 625,-108 619,-108"/>
<text text-anchor="middle" x="604" y="-87.5" font-family="sans" font-size="10.00" fill="#000000">scanitd</text>
</g>
<!-- 23&#45;&gt;0 -->
<g id="edge13" class="edge">
<title>23&#45;&gt;0</title>
<path fill="none" stroke="#c0c0c0" stroke-width="2" d="M631.0522,-76.7735C634.3983,-75.157 637.775,-73.535 641,-72 667.5017,-59.3863 697.5469,-45.4087 720.4185,-34.8349"/>
<polygon fill="#c0c0c0" stroke="#c0c0c0" stroke-width="2" points="722.1389,-37.8957 729.7502,-30.5256 719.2041,-31.5406 722.1389,-37.8957"/>
</g>
<!-- 24&#45;&gt;0 -->
<g id="edge10" class="edge">
<title>24&#45;&gt;0</title>
<path fill="none" stroke="#c0c0c0" stroke-width="2" d="M698.6827,-71.8314C708.1051,-63.1337 719.5401,-52.5783 729.7796,-43.1265"/>
<polygon fill="#c0c0c0" stroke="#c0c0c0" stroke-width="2" points="732.3495,-45.5175 737.3236,-36.1628 727.6016,-40.3738 732.3495,-45.5175"/>
</g>
<!-- 25&#45;&gt;24 -->
<g id="edge39" class="edge">
<title>25&#45;&gt;24</title>
<path fill="none" stroke="#c0c0c0" stroke-width="2" d="M761.99,-143.8314C747.9239,-134.7074 730.706,-123.539 715.6067,-113.7449"/>
<polygon fill="#c0c0c0" stroke="#c0c0c0" stroke-width="2" points="717.2953,-110.6684 707.001,-108.1628 713.486,-116.5412 717.2953,-110.6684"/>
</g>
<!-- 26 -->
<g id="node27" class="node">
<title>26</title>
<path fill="none" stroke="#56c9d8" stroke-width="2" d="M775,-108C775,-108 739,-108 739,-108 733,-108 727,-102 727,-96 727,-96 727,-84 727,-84 727,-78 733,-72 739,-72 739,-72 775,-72 775,-72 781,-72 787,-78 787,-84 787,-84 787,-96 787,-96 787,-102 781,-108 775,-108"/>
<text text-anchor="middle" x="757" y="-87.5" font-family="sans" font-size="10.00" fill="#000000">automap</text>
</g>
<!-- 26&#45;&gt;0 -->
<g id="edge3" class="edge">
<title>26&#45;&gt;0</title>
<path fill="none" stroke="#c0c0c0" stroke-width="2" d="M757,-71.8314C757,-64.131 757,-54.9743 757,-46.4166"/>
<polygon fill="#c0c0c0" stroke="#c0c0c0" stroke-width="2" points="760.5001,-46.4132 757,-36.4133 753.5001,-46.4133 760.5001,-46.4132"/>
</g>
<!-- 27 -->
<g id="node28" class="node">
<title>27</title>
<path fill="none" stroke="#61d856" stroke-width="2" d="M927,-108C927,-108 817,-108 817,-108 811,-108 805,-102 805,-96 805,-96 805,-84 805,-84 805,-78 811,-72 817,-72 817,-72 927,-72 927,-72 933,-72 939,-78 939,-84 939,-84 939,-96 939,-96 939,-102 933,-108 927,-108"/>
<text text-anchor="middle" x="872" y="-87.5" font-family="sans" font-size="10.00" fill="#000000">manta_run_workflow_tn</text>
</g>
<!-- 27&#45;&gt;0 -->
<g id="edge1" class="edge">
<title>27&#45;&gt;0</title>
<path fill="none" stroke="#c0c0c0" stroke-width="2" d="M842.9806,-71.8314C827.71,-62.2706 808.8539,-50.4651 792.6949,-40.3481"/>
<polygon fill="#c0c0c0" stroke="#c0c0c0" stroke-width="2" points="794.3682,-37.2664 784.0351,-34.9263 790.6536,-43.1995 794.3682,-37.2664"/>
</g>
<!-- 28 -->
<g id="node29" class="node">
<title>28</title>
<path fill="none" stroke="#56d89a" stroke-width="2" d="M974,-180C974,-180 900,-180 900,-180 894,-180 888,-174 888,-168 888,-168 888,-156 888,-156 888,-150 894,-144 900,-144 900,-144 974,-144 974,-144 980,-144 986,-150 986,-156 986,-156 986,-168 986,-168 986,-174 980,-180 974,-180"/>
<text text-anchor="middle" x="937" y="-159.5" font-family="sans" font-size="10.00" fill="#000000">manta_config_tn</text>
</g>
<!-- 28&#45;&gt;27 -->
<g id="edge41" class="edge">
<title>28&#45;&gt;27</title>
<path fill="none" stroke="#c0c0c0" stroke-width="2" d="M920.5978,-143.8314C912.9585,-135.3694 903.7317,-125.1489 895.3793,-115.8971"/>
<polygon fill="#c0c0c0" stroke="#c0c0c0" stroke-width="2" points="897.9221,-113.4906 888.6231,-108.4133 892.7262,-118.1813 897.9221,-113.4906"/>
</g>
<!-- 29 -->
<g id="node30" class="node">
<title>29</title>
<path fill="none" stroke="#d86e56" stroke-width="2" d="M1073,-108C1073,-108 969,-108 969,-108 963,-108 957,-102 957,-96 957,-96 957,-84 957,-84 957,-78 963,-72 969,-72 969,-72 1073,-72 1073,-72 1079,-72 1085,-78 1085,-84 1085,-84 1085,-96 1085,-96 1085,-102 1079,-108 1073,-108"/>
<text text-anchor="middle" x="1021" y="-87.5" font-family="sans" font-size="10.00" fill="#000000">manta_run_workflow_t</text>
</g>
<!-- 29&#45;&gt;0 -->
<g id="edge8" class="edge">
<title>29&#45;&gt;0</title>
<path fill="none" stroke="#c0c0c0" stroke-width="2" d="M956.7559,-72.4789C905.7137,-58.5583 836.1271,-39.5801 793.9981,-28.0904"/>
<polygon fill="#c0c0c0" stroke="#c0c0c0" stroke-width="2" points="794.7315,-24.6626 784.1629,-25.4081 792.8896,-31.416 794.7315,-24.6626"/>
</g>
<!-- 30 -->
<g id="node31" class="node">
<title>30</title>
<path fill="none" stroke="#56d85b" stroke-width="2" d="M1084,-180C1084,-180 1016,-180 1016,-180 1010,-180 1004,-174 1004,-168 1004,-168 1004,-156 1004,-156 1004,-150 1010,-144 1016,-144 1016,-144 1084,-144 1084,-144 1090,-144 1096,-150 1096,-156 1096,-156 1096,-168 1096,-168 1096,-174 1090,-180 1084,-180"/>
<text text-anchor="middle" x="1050" y="-159.5" font-family="sans" font-size="10.00" fill="#000000">manta_config_t</text>
</g>
<!-- 30&#45;&gt;29 -->
<g id="edge42" class="edge">
<title>30&#45;&gt;29</title>
<path fill="none" stroke="#c0c0c0" stroke-width="2" d="M1042.6821,-143.8314C1039.5124,-135.9617 1035.73,-126.5712 1032.2187,-117.8533"/>
<polygon fill="#c0c0c0" stroke="#c0c0c0" stroke-width="2" points="1035.3992,-116.3815 1028.4165,-108.4133 1028.9061,-118.9968 1035.3992,-116.3815"/>
</g>
<!-- 31 -->
<g id="node32" class="node">
<title>31</title>
<path fill="none" stroke="#a7d856" stroke-width="2" d="M1221,-108C1221,-108 1115,-108 1115,-108 1109,-108 1103,-102 1103,-96 1103,-96 1103,-84 1103,-84 1103,-78 1109,-72 1115,-72 1115,-72 1221,-72 1221,-72 1227,-72 1233,-78 1233,-84 1233,-84 1233,-96 1233,-96 1233,-102 1227,-108 1221,-108"/>
<text text-anchor="middle" x="1168" y="-87.5" font-family="sans" font-size="10.00" fill="#000000">manta_run_workflow_n</text>
</g>
<!-- 31&#45;&gt;0 -->
<g id="edge9" class="edge">
<title>31&#45;&gt;0</title>
<path fill="none" stroke="#c0c0c0" stroke-width="2" d="M1102.6931,-73.8155C1099.7595,-73.1829 1096.8515,-72.5743 1094,-72 985.8268,-50.2132 856.7006,-31.5482 794.3489,-22.9922"/>
<polygon fill="#c0c0c0" stroke="#c0c0c0" stroke-width="2" points="794.5963,-19.4936 784.215,-21.6102 793.6503,-26.4294 794.5963,-19.4936"/>
</g>
<!-- 32 -->
<g id="node33" class="node">
<title>32</title>
<path fill="none" stroke="#70d856" stroke-width="2" d="M1203,-180C1203,-180 1133,-180 1133,-180 1127,-180 1121,-174 1121,-168 1121,-168 1121,-156 1121,-156 1121,-150 1127,-144 1133,-144 1133,-144 1203,-144 1203,-144 1209,-144 1215,-150 1215,-156 1215,-156 1215,-168 1215,-168 1215,-174 1209,-180 1203,-180"/>
<text text-anchor="middle" x="1168" y="-159.5" font-family="sans" font-size="10.00" fill="#000000">manta_config_n</text>
</g>
<!-- 32&#45;&gt;31 -->
<g id="edge43" class="edge">
<title>32&#45;&gt;31</title>
<path fill="none" stroke="#c0c0c0" stroke-width="2" d="M1168,-143.8314C1168,-136.131 1168,-126.9743 1168,-118.4166"/>
<polygon fill="#c0c0c0" stroke="#c0c0c0" stroke-width="2" points="1171.5001,-118.4132 1168,-108.4133 1164.5001,-118.4133 1171.5001,-118.4132"/>
</g>
<!-- 33 -->
<g id="node34" class="node">
<title>33</title>
<path fill="none" stroke="#d85656" stroke-width="2" d="M1315,-108C1315,-108 1263,-108 1263,-108 1257,-108 1251,-102 1251,-96 1251,-96 1251,-84 1251,-84 1251,-78 1257,-72 1263,-72 1263,-72 1315,-72 1315,-72 1321,-72 1327,-78 1327,-84 1327,-84 1327,-96 1327,-96 1327,-102 1321,-108 1315,-108"/>
<text text-anchor="middle" x="1289" y="-87.5" font-family="sans" font-size="10.00" fill="#000000">upd_regions</text>
</g>
<!-- 33&#45;&gt;0 -->
<g id="edge2" class="edge">
<title>33&#45;&gt;0</title>
<path fill="none" stroke="#c0c0c0" stroke-width="2" d="M1250.7797,-74.4504C1247.8359,-73.5338 1244.8868,-72.7013 1242,-72 1078.3445,-32.2429 876.4098,-21.6691 794.3233,-18.9286"/>
<polygon fill="#c0c0c0" stroke="#c0c0c0" stroke-width="2" points="794.3382,-15.4274 784.2332,-18.6116 794.1183,-22.424 794.3382,-15.4274"/>
</g>
<!-- 34 -->
<g id="node35" class="node">
<title>34</title>
<path fill="none" stroke="#56d8a9" stroke-width="2" d="M1396.5,-108C1396.5,-108 1357.5,-108 1357.5,-108 1351.5,-108 1345.5,-102 1345.5,-96 1345.5,-96 1345.5,-84 1345.5,-84 1345.5,-78 1351.5,-72 1357.5,-72 1357.5,-72 1396.5,-72 1396.5,-72 1402.5,-72 1408.5,-78 1408.5,-84 1408.5,-84 1408.5,-96 1408.5,-96 1408.5,-102 1402.5,-108 1396.5,-108"/>
<text text-anchor="middle" x="1377" y="-87.5" font-family="sans" font-size="10.00" fill="#000000">upd_sites</text>
</g>
<!-- 34&#45;&gt;0 -->
<g id="edge11" class="edge">
<title>34&#45;&gt;0</title>
<path fill="none" stroke="#c0c0c0" stroke-width="2" d="M1345.1193,-74.8456C1342.0808,-73.7546 1339.0103,-72.7794 1336,-72 1232.6801,-45.2499 905.0839,-25.8517 794.1449,-19.908"/>
<polygon fill="#c0c0c0" stroke="#c0c0c0" stroke-width="2" points="794.2715,-16.4099 784.1001,-19.375 793.9005,-23.4001 794.2715,-16.4099"/>
</g>
<!-- 35&#45;&gt;0 -->
<g id="edge5" class="edge">
<title>35&#45;&gt;0</title>
<path fill="none" stroke="#c0c0c0" stroke-width="2" d="M1426.3249,-73.7848C1423.5228,-73.1247 1420.7349,-72.5226 1418,-72 1296.8307,-48.8457 915.3865,-26.6191 794.2854,-19.99"/>
<polygon fill="#c0c0c0" stroke="#c0c0c0" stroke-width="2" points="794.2216,-16.4814 784.0462,-19.4328 793.8412,-23.4711 794.2216,-16.4814"/>
</g>
</g>
</svg>
