<?xml version="1.0" encoding="UTF-8" standalone="no"?>
<!DOCTYPE svg PUBLIC "-//W3C//DTD SVG 1.1//EN"
 "http://www.w3.org/Graphics/SVG/1.1/DTD/svg11.dtd">
<!-- Generated by graphviz version 2.43.0 (0)
 -->
<!-- Title: snakemake_dag Pages: 1 -->
<svg width="1577pt" height="476pt"
 viewBox="0.00 0.00 1577.00 476.00" xmlns="http://www.w3.org/2000/svg" xmlns:xlink="http://www.w3.org/1999/xlink">
<g id="graph0" class="graph" transform="scale(1 1) rotate(0) translate(4 472)">
<title>snakemake_dag</title>
<polygon fill="white" stroke="transparent" points="-4,4 -4,-472 1573,-472 1573,4 -4,4"/>
<!-- 0 -->
<g id="node1" class="node">
<title>0</title>
<path fill="none" stroke="#5692d8" stroke-width="2" d="M606,-36C606,-36 576,-36 576,-36 570,-36 564,-30 564,-24 564,-24 564,-12 564,-12 564,-6 570,0 576,0 576,0 606,0 606,0 612,0 618,-6 618,-12 618,-12 618,-24 618,-24 618,-30 612,-36 606,-36"/>
<text text-anchor="middle" x="591" y="-15.5" font-family="sans" font-size="10.00">all</text>
</g>
<!-- 1 -->
<g id="node2" class="node">
<title>1</title>
<path fill="none" stroke="#56d882" stroke-width="2" d="M212.5,-324C212.5,-324 167.5,-324 167.5,-324 161.5,-324 155.5,-318 155.5,-312 155.5,-312 155.5,-300 155.5,-300 155.5,-294 161.5,-288 167.5,-288 167.5,-288 212.5,-288 212.5,-288 218.5,-288 224.5,-294 224.5,-300 224.5,-300 224.5,-312 224.5,-312 224.5,-318 218.5,-324 212.5,-324"/>
<text text-anchor="middle" x="190" y="-303.5" font-family="sans" font-size="10.00">cnvkit_call</text>
</g>
<!-- 1&#45;&gt;0 -->
<g id="edge13" class="edge">
<title>1&#45;&gt;0</title>
<path fill="none" stroke="grey" stroke-width="2" d="M187.55,-287.88C182.43,-244.64 175.69,-130.29 237,-72 281.93,-29.28 471.89,-20.96 553.5,-19.36"/>
<polygon fill="grey" stroke="grey" stroke-width="2" points="553.87,-22.86 563.81,-19.19 553.75,-15.86 553.87,-22.86"/>
</g>
<!-- 5 -->
<g id="node6" class="node">
<title>5</title>
<path fill="none" stroke="#c6d856" stroke-width="2" d="M273.5,-252C273.5,-252 230.5,-252 230.5,-252 224.5,-252 218.5,-246 218.5,-240 218.5,-240 218.5,-228 218.5,-228 218.5,-222 224.5,-216 230.5,-216 230.5,-216 273.5,-216 273.5,-216 279.5,-216 285.5,-222 285.5,-228 285.5,-228 285.5,-240 285.5,-240 285.5,-246 279.5,-252 273.5,-252"/>
<text text-anchor="middle" x="252" y="-231.5" font-family="sans" font-size="10.00">cnvkit_vcf</text>
</g>
<!-- 1&#45;&gt;5 -->
<g id="edge23" class="edge">
<title>1&#45;&gt;5</title>
<path fill="none" stroke="grey" stroke-width="2" d="M205.33,-287.7C212.76,-279.3 221.82,-269.07 229.98,-259.86"/>
<polygon fill="grey" stroke="grey" stroke-width="2" points="232.84,-261.91 236.85,-252.1 227.6,-257.27 232.84,-261.91"/>
</g>
<!-- 2 -->
<g id="node3" class="node">
<title>2</title>
<path fill="none" stroke="#56d8c9" stroke-width="2" d="M141.5,-396C141.5,-396 86.5,-396 86.5,-396 80.5,-396 74.5,-390 74.5,-384 74.5,-384 74.5,-372 74.5,-372 74.5,-366 80.5,-360 86.5,-360 86.5,-360 141.5,-360 141.5,-360 147.5,-360 153.5,-366 153.5,-372 153.5,-372 153.5,-384 153.5,-384 153.5,-390 147.5,-396 141.5,-396"/>
<text text-anchor="middle" x="114" y="-375.5" font-family="sans" font-size="10.00">cnvkit_batch</text>
</g>
<!-- 2&#45;&gt;1 -->
<g id="edge20" class="edge">
<title>2&#45;&gt;1</title>
<path fill="none" stroke="grey" stroke-width="2" d="M132.79,-359.7C142.17,-351.05 153.68,-340.45 163.91,-331.03"/>
<polygon fill="grey" stroke="grey" stroke-width="2" points="166.45,-333.45 171.43,-324.1 161.7,-328.3 166.45,-333.45"/>
</g>
<!-- 3 -->
<g id="node4" class="node">
<title>3</title>
<path fill="none" stroke="#d87d56" stroke-width="2" d="M150,-252C150,-252 82,-252 82,-252 76,-252 70,-246 70,-240 70,-240 70,-228 70,-228 70,-222 76,-216 82,-216 82,-216 150,-216 150,-216 156,-216 162,-222 162,-228 162,-228 162,-240 162,-240 162,-246 156,-252 150,-252"/>
<text text-anchor="middle" x="116" y="-231.5" font-family="sans" font-size="10.00">cnvkit_diagram</text>
</g>
<!-- 2&#45;&gt;3 -->
<g id="edge21" class="edge">
<title>2&#45;&gt;3</title>
<path fill="none" stroke="grey" stroke-width="2" d="M114.24,-359.87C114.58,-335.67 115.21,-291.21 115.61,-262.39"/>
<polygon fill="grey" stroke="grey" stroke-width="2" points="119.12,-262.24 115.76,-252.19 112.12,-262.14 119.12,-262.24"/>
</g>
<!-- 4 -->
<g id="node5" class="node">
<title>4</title>
<path fill="none" stroke="#56d88a" stroke-width="2" d="M74,-324C74,-324 12,-324 12,-324 6,-324 0,-318 0,-312 0,-312 0,-300 0,-300 0,-294 6,-288 12,-288 12,-288 74,-288 74,-288 80,-288 86,-294 86,-300 86,-300 86,-312 86,-312 86,-318 80,-324 74,-324"/>
<text text-anchor="middle" x="43" y="-303.5" font-family="sans" font-size="10.00">cnvkit_scatter</text>
</g>
<!-- 2&#45;&gt;4 -->
<g id="edge22" class="edge">
<title>2&#45;&gt;4</title>
<path fill="none" stroke="grey" stroke-width="2" d="M96.45,-359.7C87.77,-351.14 77.14,-340.66 67.65,-331.3"/>
<polygon fill="grey" stroke="grey" stroke-width="2" points="69.93,-328.63 60.35,-324.1 65.01,-333.62 69.93,-328.63"/>
</g>
<!-- 3&#45;&gt;0 -->
<g id="edge3" class="edge">
<title>3&#45;&gt;0</title>
<path fill="none" stroke="grey" stroke-width="2" d="M116.85,-215.83C119.53,-182.26 130.54,-108.05 176,-72 234.02,-25.98 462.94,-19.65 553.67,-18.97"/>
<polygon fill="grey" stroke="grey" stroke-width="2" points="553.8,-22.47 563.78,-18.92 553.76,-15.47 553.8,-22.47"/>
</g>
<!-- 4&#45;&gt;0 -->
<g id="edge14" class="edge">
<title>4&#45;&gt;0</title>
<path fill="none" stroke="grey" stroke-width="2" d="M44.27,-287.87C48.63,-243.03 67.24,-122.23 143,-72 210.17,-27.47 458.84,-20.28 553.8,-19.18"/>
<polygon fill="grey" stroke="grey" stroke-width="2" points="553.85,-22.68 563.82,-19.08 553.78,-15.68 553.85,-22.68"/>
</g>
<!-- 5&#45;&gt;0 -->
<g id="edge10" class="edge">
<title>5&#45;&gt;0</title>
<path fill="none" stroke="grey" stroke-width="2" d="M246.36,-215.93C236.63,-182.87 221.23,-110.01 260,-72 301.08,-31.73 476.12,-22.05 553.71,-19.73"/>
<polygon fill="grey" stroke="grey" stroke-width="2" points="554.09,-23.22 563.99,-19.45 553.9,-16.22 554.09,-23.22"/>
</g>
<!-- 14 -->
<g id="node15" class="node">
<title>14</title>
<path fill="none" stroke="#d8d356" stroke-width="2" d="M491.5,-180C491.5,-180 438.5,-180 438.5,-180 432.5,-180 426.5,-174 426.5,-168 426.5,-168 426.5,-156 426.5,-156 426.5,-150 432.5,-144 438.5,-144 438.5,-144 491.5,-144 491.5,-144 497.5,-144 503.5,-150 503.5,-156 503.5,-156 503.5,-168 503.5,-168 503.5,-174 497.5,-180 491.5,-180"/>
<text text-anchor="middle" x="465" y="-159.5" font-family="sans" font-size="10.00">svdb_merge</text>
</g>
<!-- 5&#45;&gt;14 -->
<g id="edge31" class="edge">
<title>5&#45;&gt;14</title>
<path fill="none" stroke="grey" stroke-width="2" d="M285.75,-221.91C321.08,-210.3 376.87,-191.96 416.82,-178.83"/>
<polygon fill="grey" stroke="grey" stroke-width="2" points="417.95,-182.15 426.36,-175.7 415.77,-175.5 417.95,-182.15"/>
</g>
<!-- 6 -->
<g id="node7" class="node">
<title>6</title>
<path fill="none" stroke="#5663d8" stroke-width="2" d="M344.5,-108C344.5,-108 281.5,-108 281.5,-108 275.5,-108 269.5,-102 269.5,-96 269.5,-96 269.5,-84 269.5,-84 269.5,-78 275.5,-72 281.5,-72 281.5,-72 344.5,-72 344.5,-72 350.5,-72 356.5,-78 356.5,-84 356.5,-84 356.5,-96 356.5,-96 356.5,-102 350.5,-108 344.5,-108"/>
<text text-anchor="middle" x="313" y="-87.5" font-family="sans" font-size="10.00">cnvpytor_filter</text>
</g>
<!-- 6&#45;&gt;0 -->
<g id="edge18" class="edge">
<title>6&#45;&gt;0</title>
<path fill="none" stroke="grey" stroke-width="2" d="M356.64,-75.96C361.48,-74.59 366.34,-73.24 371,-72 434.96,-54.93 510.03,-37.37 553.88,-27.36"/>
<polygon fill="grey" stroke="grey" stroke-width="2" points="554.82,-30.74 563.8,-25.1 553.27,-23.91 554.82,-30.74"/>
</g>
<!-- 7 -->
<g id="node8" class="node">
<title>7</title>
<path fill="none" stroke="#56a2d8" stroke-width="2" d="M358,-180C358,-180 268,-180 268,-180 262,-180 256,-174 256,-168 256,-168 256,-156 256,-156 256,-150 262,-144 268,-144 268,-144 358,-144 358,-144 364,-144 370,-150 370,-156 370,-156 370,-168 370,-168 370,-174 364,-180 358,-180"/>
<text text-anchor="middle" x="313" y="-159.5" font-family="sans" font-size="10.00">cnvpytor_readdepth</text>
</g>
<!-- 7&#45;&gt;6 -->
<g id="edge24" class="edge">
<title>7&#45;&gt;6</title>
<path fill="none" stroke="grey" stroke-width="2" d="M313,-143.7C313,-135.98 313,-126.71 313,-118.11"/>
<polygon fill="grey" stroke="grey" stroke-width="2" points="316.5,-118.1 313,-108.1 309.5,-118.1 316.5,-118.1"/>
</g>
<!-- 8 -->
<g id="node9" class="node">
<title>8</title>
<path fill="none" stroke="#d8ac56" stroke-width="2" d="M735,-252C735,-252 661,-252 661,-252 655,-252 649,-246 649,-240 649,-240 649,-228 649,-228 649,-222 655,-216 661,-216 661,-216 735,-216 735,-216 741,-216 747,-222 747,-228 747,-228 747,-240 747,-240 747,-246 741,-252 735,-252"/>
<text text-anchor="middle" x="698" y="-231.5" font-family="sans" font-size="10.00">expansionhunter</text>
</g>
<!-- 8&#45;&gt;0 -->
<g id="edge6" class="edge">
<title>8&#45;&gt;0</title>
<path fill="none" stroke="grey" stroke-width="2" d="M652.87,-215.86C636.78,-207.48 620.15,-195.73 610,-180 583.7,-139.24 584.2,-80.39 587.33,-46.28"/>
<polygon fill="grey" stroke="grey" stroke-width="2" points="590.84,-46.45 588.42,-36.13 583.88,-45.71 590.84,-46.45"/>
</g>
<!-- 22 -->
<g id="node23" class="node">
<title>22</title>
<path fill="none" stroke="#d8c356" stroke-width="2" d="M738.5,-108C738.5,-108 703.5,-108 703.5,-108 697.5,-108 691.5,-102 691.5,-96 691.5,-96 691.5,-84 691.5,-84 691.5,-78 697.5,-72 703.5,-72 703.5,-72 738.5,-72 738.5,-72 744.5,-72 750.5,-78 750.5,-84 750.5,-84 750.5,-96 750.5,-96 750.5,-102 744.5,-108 738.5,-108"/>
<text text-anchor="middle" x="721" y="-87.5" font-family="sans" font-size="10.00">reviewer</text>
</g>
<!-- 8&#45;&gt;22 -->
<g id="edge36" class="edge">
<title>8&#45;&gt;22</title>
<path fill="none" stroke="grey" stroke-width="2" d="M746.03,-215.85C761.97,-207.6 777.94,-195.95 787,-180 794.91,-166.09 793.92,-158.43 787,-144 780.92,-131.33 770.18,-120.73 759.1,-112.42"/>
<polygon fill="grey" stroke="grey" stroke-width="2" points="760.84,-109.37 750.63,-106.52 756.84,-115.11 760.84,-109.37"/>
</g>
<!-- 23 -->
<g id="node24" class="node">
<title>23</title>
<path fill="none" stroke="#80d856" stroke-width="2" d="M765.5,-180C765.5,-180 630.5,-180 630.5,-180 624.5,-180 618.5,-174 618.5,-168 618.5,-168 618.5,-156 618.5,-156 618.5,-150 624.5,-144 630.5,-144 630.5,-144 765.5,-144 765.5,-144 771.5,-144 777.5,-150 777.5,-156 777.5,-156 777.5,-168 777.5,-168 777.5,-174 771.5,-180 765.5,-180"/>
<text text-anchor="middle" x="698" y="-159.5" font-family="sans" font-size="10.00">reviewer_generate_locus_list</text>
</g>
<!-- 8&#45;&gt;23 -->
<g id="edge38" class="edge">
<title>8&#45;&gt;23</title>
<path fill="none" stroke="grey" stroke-width="2" d="M698,-215.7C698,-207.98 698,-198.71 698,-190.11"/>
<polygon fill="grey" stroke="grey" stroke-width="2" points="701.5,-190.1 698,-180.1 694.5,-190.1 701.5,-190.1"/>
</g>
<!-- 9 -->
<g id="node10" class="node">
<title>9</title>
<path fill="none" stroke="#56d8d8" stroke-width="2" d="M427,-252C427,-252 377,-252 377,-252 371,-252 365,-246 365,-240 365,-240 365,-228 365,-228 365,-222 371,-216 377,-216 377,-216 427,-216 427,-216 433,-216 439,-222 439,-228 439,-228 439,-240 439,-240 439,-246 433,-252 427,-252"/>
<text text-anchor="middle" x="402" y="-231.5" font-family="sans" font-size="10.00">gatk_to_vcf</text>
</g>
<!-- 9&#45;&gt;0 -->
<g id="edge16" class="edge">
<title>9&#45;&gt;0</title>
<path fill="none" stroke="grey" stroke-width="2" d="M399.93,-216C396.99,-183.68 395.52,-112.99 432,-72 462.9,-37.28 517.14,-25.25 553.57,-21.12"/>
<polygon fill="grey" stroke="grey" stroke-width="2" points="554.18,-24.57 563.79,-20.11 553.5,-17.61 554.18,-24.57"/>
</g>
<!-- 9&#45;&gt;14 -->
<g id="edge30" class="edge">
<title>9&#45;&gt;14</title>
<path fill="none" stroke="grey" stroke-width="2" d="M417.57,-215.7C425.2,-207.22 434.52,-196.86 442.88,-187.58"/>
<polygon fill="grey" stroke="grey" stroke-width="2" points="445.52,-189.88 449.61,-180.1 440.31,-185.2 445.52,-189.88"/>
</g>
<!-- 10 -->
<g id="node11" class="node">
<title>10</title>
<path fill="none" stroke="#56d89a" stroke-width="2" d="M454,-324C454,-324 350,-324 350,-324 344,-324 338,-318 338,-312 338,-312 338,-300 338,-300 338,-294 344,-288 350,-288 350,-288 454,-288 454,-288 460,-288 466,-294 466,-300 466,-300 466,-312 466,-312 466,-318 460,-324 454,-324"/>
<text text-anchor="middle" x="402" y="-303.5" font-family="sans" font-size="10.00">gatk_model_segments</text>
</g>
<!-- 10&#45;&gt;9 -->
<g id="edge25" class="edge">
<title>10&#45;&gt;9</title>
<path fill="none" stroke="grey" stroke-width="2" d="M402,-287.7C402,-279.98 402,-270.71 402,-262.11"/>
<polygon fill="grey" stroke="grey" stroke-width="2" points="405.5,-262.1 402,-252.1 398.5,-262.1 405.5,-262.1"/>
</g>
<!-- 11 -->
<g id="node12" class="node">
<title>11</title>
<path fill="none" stroke="#a7d856" stroke-width="2" d="M308,-396C308,-396 184,-396 184,-396 178,-396 172,-390 172,-384 172,-384 172,-372 172,-372 172,-366 178,-360 184,-360 184,-360 308,-360 308,-360 314,-360 320,-366 320,-372 320,-372 320,-384 320,-384 320,-390 314,-396 308,-396"/>
<text text-anchor="middle" x="246" y="-375.5" font-family="sans" font-size="10.00">gatk_collect_allelic_counts</text>
</g>
<!-- 11&#45;&gt;10 -->
<g id="edge27" class="edge">
<title>11&#45;&gt;10</title>
<path fill="none" stroke="grey" stroke-width="2" d="M284.16,-359.88C305.39,-350.35 332.01,-338.41 354.57,-328.28"/>
<polygon fill="grey" stroke="grey" stroke-width="2" points="356.27,-331.36 363.96,-324.07 353.41,-324.97 356.27,-331.36"/>
</g>
<!-- 12 -->
<g id="node13" class="node">
<title>12</title>
<path fill="none" stroke="#566bd8" stroke-width="2" d="M472,-396C472,-396 350,-396 350,-396 344,-396 338,-390 338,-384 338,-384 338,-372 338,-372 338,-366 344,-360 350,-360 350,-360 472,-360 472,-360 478,-360 484,-366 484,-372 484,-372 484,-384 484,-384 484,-390 478,-396 472,-396"/>
<text text-anchor="middle" x="411" y="-375.5" font-family="sans" font-size="10.00">gatk_denoise_read_counts</text>
</g>
<!-- 12&#45;&gt;10 -->
<g id="edge26" class="edge">
<title>12&#45;&gt;10</title>
<path fill="none" stroke="grey" stroke-width="2" d="M408.78,-359.7C407.78,-351.98 406.59,-342.71 405.49,-334.11"/>
<polygon fill="grey" stroke="grey" stroke-width="2" points="408.95,-333.58 404.2,-324.1 402,-334.47 408.95,-333.58"/>
</g>
<!-- 13 -->
<g id="node14" class="node">
<title>13</title>
<path fill="none" stroke="#d88556" stroke-width="2" d="M466,-468C466,-468 350,-468 350,-468 344,-468 338,-462 338,-456 338,-456 338,-444 338,-444 338,-438 344,-432 350,-432 350,-432 466,-432 466,-432 472,-432 478,-438 478,-444 478,-444 478,-456 478,-456 478,-462 472,-468 466,-468"/>
<text text-anchor="middle" x="408" y="-447.5" font-family="sans" font-size="10.00">gatk_collect_read_counts</text>
</g>
<!-- 13&#45;&gt;12 -->
<g id="edge28" class="edge">
<title>13&#45;&gt;12</title>
<path fill="none" stroke="grey" stroke-width="2" d="M408.74,-431.7C409.07,-423.98 409.47,-414.71 409.84,-406.11"/>
<polygon fill="grey" stroke="grey" stroke-width="2" points="413.34,-406.25 410.27,-396.1 406.34,-405.95 413.34,-406.25"/>
</g>
<!-- 14&#45;&gt;0 -->
<g id="edge7" class="edge">
<title>14&#45;&gt;0</title>
<path fill="none" stroke="grey" stroke-width="2" d="M453.11,-143.74C441.56,-124.61 427.79,-93.6 443,-72 467.85,-36.71 518.47,-24.79 553.55,-20.84"/>
<polygon fill="grey" stroke="grey" stroke-width="2" points="554.27,-24.29 563.89,-19.85 553.6,-17.32 554.27,-24.29"/>
</g>
<!-- 19 -->
<g id="node20" class="node">
<title>19</title>
<path fill="none" stroke="#56b9d8" stroke-width="2" d="M512.5,-108C512.5,-108 463.5,-108 463.5,-108 457.5,-108 451.5,-102 451.5,-96 451.5,-96 451.5,-84 451.5,-84 451.5,-78 457.5,-72 463.5,-72 463.5,-72 512.5,-72 512.5,-72 518.5,-72 524.5,-78 524.5,-84 524.5,-84 524.5,-96 524.5,-96 524.5,-102 518.5,-108 512.5,-108"/>
<text text-anchor="middle" x="488" y="-87.5" font-family="sans" font-size="10.00">svdb_query</text>
</g>
<!-- 14&#45;&gt;19 -->
<g id="edge35" class="edge">
<title>14&#45;&gt;19</title>
<path fill="none" stroke="grey" stroke-width="2" d="M470.69,-143.7C473.25,-135.9 476.33,-126.51 479.18,-117.83"/>
<polygon fill="grey" stroke="grey" stroke-width="2" points="482.58,-118.7 482.38,-108.1 475.93,-116.51 482.58,-118.7"/>
</g>
<!-- 15 -->
<g id="node16" class="node">
<title>15</title>
<path fill="none" stroke="#56d873" stroke-width="2" d="M594,-252C594,-252 512,-252 512,-252 506,-252 500,-246 500,-240 500,-240 500,-228 500,-228 500,-222 506,-216 512,-216 512,-216 594,-216 594,-216 600,-216 606,-222 606,-228 606,-228 606,-240 606,-240 606,-246 600,-252 594,-252"/>
<text text-anchor="middle" x="553" y="-231.5" font-family="sans" font-size="10.00">pindel_update_vcf</text>
</g>
<!-- 15&#45;&gt;0 -->
<g id="edge12" class="edge">
<title>15&#45;&gt;0</title>
<path fill="none" stroke="grey" stroke-width="2" d="M554.91,-215.97C558.36,-186.47 566.28,-124.04 577,-72 578.75,-63.48 581.04,-54.29 583.26,-45.99"/>
<polygon fill="grey" stroke="grey" stroke-width="2" points="586.71,-46.64 585.98,-36.07 579.96,-44.79 586.71,-46.64"/>
</g>
<!-- 15&#45;&gt;14 -->
<g id="edge29" class="edge">
<title>15&#45;&gt;14</title>
<path fill="none" stroke="grey" stroke-width="2" d="M531.25,-215.7C520.16,-206.88 506.53,-196.03 494.51,-186.47"/>
<polygon fill="grey" stroke="grey" stroke-width="2" points="496.51,-183.59 486.5,-180.1 492.15,-189.07 496.51,-183.59"/>
</g>
<!-- 16 -->
<g id="node17" class="node">
<title>16</title>
<path fill="none" stroke="#d8b456" stroke-width="2" d="M576,-324C576,-324 532,-324 532,-324 526,-324 520,-318 520,-312 520,-312 520,-300 520,-300 520,-294 526,-288 532,-288 532,-288 576,-288 576,-288 582,-288 588,-294 588,-300 588,-300 588,-312 588,-312 588,-318 582,-324 576,-324"/>
<text text-anchor="middle" x="554" y="-303.5" font-family="sans" font-size="10.00">pindel2vcf</text>
</g>
<!-- 16&#45;&gt;15 -->
<g id="edge32" class="edge">
<title>16&#45;&gt;15</title>
<path fill="none" stroke="grey" stroke-width="2" d="M553.75,-287.7C553.64,-279.98 553.51,-270.71 553.39,-262.11"/>
<polygon fill="grey" stroke="grey" stroke-width="2" points="556.89,-262.05 553.24,-252.1 549.89,-262.15 556.89,-262.05"/>
</g>
<!-- 17 -->
<g id="node18" class="node">
<title>17</title>
<path fill="none" stroke="#56d0d8" stroke-width="2" d="M582.5,-396C582.5,-396 537.5,-396 537.5,-396 531.5,-396 525.5,-390 525.5,-384 525.5,-384 525.5,-372 525.5,-372 525.5,-366 531.5,-360 537.5,-360 537.5,-360 582.5,-360 582.5,-360 588.5,-360 594.5,-366 594.5,-372 594.5,-372 594.5,-384 594.5,-384 594.5,-390 588.5,-396 582.5,-396"/>
<text text-anchor="middle" x="560" y="-375.5" font-family="sans" font-size="10.00">pindel_call</text>
</g>
<!-- 17&#45;&gt;16 -->
<g id="edge33" class="edge">
<title>17&#45;&gt;16</title>
<path fill="none" stroke="grey" stroke-width="2" d="M558.52,-359.7C557.86,-351.98 557.06,-342.71 556.32,-334.11"/>
<polygon fill="grey" stroke="grey" stroke-width="2" points="559.81,-333.77 555.47,-324.1 552.83,-334.37 559.81,-333.77"/>
</g>
<!-- 18 -->
<g id="node19" class="node">
<title>18</title>
<path fill="none" stroke="#bed856" stroke-width="2" d="M614,-468C614,-468 508,-468 508,-468 502,-468 496,-462 496,-456 496,-456 496,-444 496,-444 496,-438 502,-432 508,-432 508,-432 614,-432 614,-432 620,-432 626,-438 626,-444 626,-444 626,-456 626,-456 626,-462 620,-468 614,-468"/>
<text text-anchor="middle" x="561" y="-447.5" font-family="sans" font-size="10.00">pindel_generate_config</text>
</g>
<!-- 18&#45;&gt;17 -->
<g id="edge34" class="edge">
<title>18&#45;&gt;17</title>
<path fill="none" stroke="grey" stroke-width="2" d="M560.75,-431.7C560.64,-423.98 560.51,-414.71 560.39,-406.11"/>
<polygon fill="grey" stroke="grey" stroke-width="2" points="563.89,-406.05 560.24,-396.1 556.89,-406.15 563.89,-406.05"/>
</g>
<!-- 19&#45;&gt;0 -->
<g id="edge19" class="edge">
<title>19&#45;&gt;0</title>
<path fill="none" stroke="grey" stroke-width="2" d="M513.2,-71.88C526.41,-62.89 542.79,-51.76 557.11,-42.03"/>
<polygon fill="grey" stroke="grey" stroke-width="2" points="559.4,-44.71 565.71,-36.19 555.47,-38.92 559.4,-44.71"/>
</g>
<!-- 20 -->
<g id="node21" class="node">
<title>20</title>
<path fill="none" stroke="#56d86b" stroke-width="2" d="M1557,-180C1557,-180 1481,-180 1481,-180 1475,-180 1469,-174 1469,-168 1469,-168 1469,-156 1469,-156 1469,-150 1475,-144 1481,-144 1481,-144 1557,-144 1557,-144 1563,-144 1569,-150 1569,-156 1569,-156 1569,-168 1569,-168 1569,-174 1563,-180 1557,-180"/>
<text text-anchor="middle" x="1519" y="-159.5" font-family="sans" font-size="10.00">exomedepth_sex</text>
</g>
<!-- 33 -->
<g id="node34" class="node">
<title>33</title>
<path fill="none" stroke="#56d8c1" stroke-width="2" d="M1557,-108C1557,-108 1481,-108 1481,-108 1475,-108 1469,-102 1469,-96 1469,-96 1469,-84 1469,-84 1469,-78 1475,-72 1481,-72 1481,-72 1557,-72 1557,-72 1563,-72 1569,-78 1569,-84 1569,-84 1569,-96 1569,-96 1569,-102 1563,-108 1557,-108"/>
<text text-anchor="middle" x="1519" y="-87.5" font-family="sans" font-size="10.00">exomedepth_call</text>
</g>
<!-- 20&#45;&gt;33 -->
<g id="edge42" class="edge">
<title>20&#45;&gt;33</title>
<path fill="none" stroke="grey" stroke-width="2" d="M1519,-143.7C1519,-135.98 1519,-126.71 1519,-118.11"/>
<polygon fill="grey" stroke="grey" stroke-width="2" points="1522.5,-118.1 1519,-108.1 1515.5,-118.1 1522.5,-118.1"/>
</g>
<!-- 21 -->
<g id="node22" class="node">
<title>21</title>
<path fill="none" stroke="#d6d856" stroke-width="2" d="M661,-108C661,-108 631,-108 631,-108 625,-108 619,-102 619,-96 619,-96 619,-84 619,-84 619,-78 625,-72 631,-72 631,-72 661,-72 661,-72 667,-72 673,-78 673,-84 673,-84 673,-96 673,-96 673,-102 667,-108 661,-108"/>
<text text-anchor="middle" x="646" y="-87.5" font-family="sans" font-size="10.00">tiddit</text>
</g>
<!-- 21&#45;&gt;0 -->
<g id="edge8" class="edge">
<title>21&#45;&gt;0</title>
<path fill="none" stroke="grey" stroke-width="2" d="M632.4,-71.7C625.88,-63.39 617.93,-53.28 610.75,-44.14"/>
<polygon fill="grey" stroke="grey" stroke-width="2" points="613.37,-41.81 604.44,-36.1 607.87,-46.13 613.37,-41.81"/>
</g>
<!-- 22&#45;&gt;0 -->
<g id="edge9" class="edge">
<title>22&#45;&gt;0</title>
<path fill="none" stroke="grey" stroke-width="2" d="M691.18,-72.94C672.06,-62.65 647.15,-49.23 626.94,-38.35"/>
<polygon fill="grey" stroke="grey" stroke-width="2" points="628.5,-35.21 618.03,-33.56 625.18,-41.38 628.5,-35.21"/>
</g>
<!-- 23&#45;&gt;22 -->
<g id="edge37" class="edge">
<title>23&#45;&gt;22</title>
<path fill="none" stroke="grey" stroke-width="2" d="M703.69,-143.7C706.25,-135.9 709.33,-126.51 712.18,-117.83"/>
<polygon fill="grey" stroke="grey" stroke-width="2" points="715.58,-118.7 715.38,-108.1 708.93,-116.51 715.58,-118.7"/>
</g>
<!-- 24 -->
<g id="node25" class="node">
<title>24</title>
<path fill="none" stroke="#d86e56" stroke-width="2" d="M817,-108C817,-108 781,-108 781,-108 775,-108 769,-102 769,-96 769,-96 769,-84 769,-84 769,-78 775,-72 781,-72 781,-72 817,-72 817,-72 823,-72 829,-78 829,-84 829,-84 829,-96 829,-96 829,-102 823,-108 817,-108"/>
<text text-anchor="middle" x="799" y="-87.5" font-family="sans" font-size="10.00">automap</text>
</g>
<!-- 24&#45;&gt;0 -->
<g id="edge2" class="edge">
<title>24&#45;&gt;0</title>
<path fill="none" stroke="grey" stroke-width="2" d="M768.9,-75.5C765.91,-74.27 762.91,-73.09 760,-72 715.17,-55.25 662.38,-39.28 627.89,-29.33"/>
<polygon fill="grey" stroke="grey" stroke-width="2" points="628.81,-25.95 618.23,-26.56 626.88,-32.68 628.81,-25.95"/>
</g>
<!-- 25 -->
<g id="node26" class="node">
<title>25</title>
<path fill="none" stroke="#d89556" stroke-width="2" d="M969,-108C969,-108 859,-108 859,-108 853,-108 847,-102 847,-96 847,-96 847,-84 847,-84 847,-78 853,-72 859,-72 859,-72 969,-72 969,-72 975,-72 981,-78 981,-84 981,-84 981,-96 981,-96 981,-102 975,-108 969,-108"/>
<text text-anchor="middle" x="914" y="-87.5" font-family="sans" font-size="10.00">manta_run_workflow_tn</text>
</g>
<!-- 25&#45;&gt;0 -->
<g id="edge5" class="edge">
<title>25&#45;&gt;0</title>
<path fill="none" stroke="grey" stroke-width="2" d="M846.87,-73.95C843.87,-73.29 840.91,-72.64 838,-72 763.56,-55.69 676.39,-37.1 628.05,-26.85"/>
<polygon fill="grey" stroke="grey" stroke-width="2" points="628.57,-23.38 618.06,-24.73 627.12,-30.23 628.57,-23.38"/>
</g>
<!-- 26 -->
<g id="node27" class="node">
<title>26</title>
<path fill="none" stroke="#567bd8" stroke-width="2" d="M951,-180C951,-180 877,-180 877,-180 871,-180 865,-174 865,-168 865,-168 865,-156 865,-156 865,-150 871,-144 877,-144 877,-144 951,-144 951,-144 957,-144 963,-150 963,-156 963,-156 963,-168 963,-168 963,-174 957,-180 951,-180"/>
<text text-anchor="middle" x="914" y="-159.5" font-family="sans" font-size="10.00">manta_config_tn</text>
</g>
<!-- 26&#45;&gt;25 -->
<g id="edge39" class="edge">
<title>26&#45;&gt;25</title>
<path fill="none" stroke="grey" stroke-width="2" d="M914,-143.7C914,-135.98 914,-126.71 914,-118.11"/>
<polygon fill="grey" stroke="grey" stroke-width="2" points="917.5,-118.1 914,-108.1 910.5,-118.1 917.5,-118.1"/>
</g>
<!-- 27 -->
<g id="node28" class="node">
<title>27</title>
<path fill="none" stroke="#d89c56" stroke-width="2" d="M1115,-108C1115,-108 1011,-108 1011,-108 1005,-108 999,-102 999,-96 999,-96 999,-84 999,-84 999,-78 1005,-72 1011,-72 1011,-72 1115,-72 1115,-72 1121,-72 1127,-78 1127,-84 1127,-84 1127,-96 1127,-96 1127,-102 1121,-108 1115,-108"/>
<text text-anchor="middle" x="1063" y="-87.5" font-family="sans" font-size="10.00">manta_run_workflow_t</text>
</g>
<!-- 27&#45;&gt;0 -->
<g id="edge4" class="edge">
<title>27&#45;&gt;0</title>
<path fill="none" stroke="grey" stroke-width="2" d="M998.98,-73.72C995.95,-73.11 992.94,-72.54 990,-72 857.92,-47.91 699.34,-30.12 628.44,-22.75"/>
<polygon fill="grey" stroke="grey" stroke-width="2" points="628.54,-19.24 618.23,-21.7 627.82,-26.21 628.54,-19.24"/>
</g>
<!-- 28 -->
<g id="node29" class="node">
<title>28</title>
<path fill="none" stroke="#56d8a2" stroke-width="2" d="M1097,-180C1097,-180 1029,-180 1029,-180 1023,-180 1017,-174 1017,-168 1017,-168 1017,-156 1017,-156 1017,-150 1023,-144 1029,-144 1029,-144 1097,-144 1097,-144 1103,-144 1109,-150 1109,-156 1109,-156 1109,-168 1109,-168 1109,-174 1103,-180 1097,-180"/>
<text text-anchor="middle" x="1063" y="-159.5" font-family="sans" font-size="10.00">manta_config_t</text>
</g>
<!-- 28&#45;&gt;27 -->
<g id="edge40" class="edge">
<title>28&#45;&gt;27</title>
<path fill="none" stroke="grey" stroke-width="2" d="M1063,-143.7C1063,-135.98 1063,-126.71 1063,-118.11"/>
<polygon fill="grey" stroke="grey" stroke-width="2" points="1066.5,-118.1 1063,-108.1 1059.5,-118.1 1066.5,-118.1"/>
</g>
<!-- 29 -->
<g id="node30" class="node">
<title>29</title>
<path fill="none" stroke="#97d856" stroke-width="2" d="M1263,-108C1263,-108 1157,-108 1157,-108 1151,-108 1145,-102 1145,-96 1145,-96 1145,-84 1145,-84 1145,-78 1151,-72 1157,-72 1157,-72 1263,-72 1263,-72 1269,-72 1275,-78 1275,-84 1275,-84 1275,-96 1275,-96 1275,-102 1269,-108 1263,-108"/>
<text text-anchor="middle" x="1210" y="-87.5" font-family="sans" font-size="10.00">manta_run_workflow_n</text>
</g>
<!-- 29&#45;&gt;0 -->
<g id="edge11" class="edge">
<title>29&#45;&gt;0</title>
<path fill="none" stroke="grey" stroke-width="2" d="M1144.72,-73.52C1141.78,-72.98 1138.86,-72.47 1136,-72 946.43,-41.14 716.63,-25.98 628.17,-20.96"/>
<polygon fill="grey" stroke="grey" stroke-width="2" points="628.27,-17.46 618.1,-20.4 627.88,-24.45 628.27,-17.46"/>
</g>
<!-- 30 -->
<g id="node31" class="node">
<title>30</title>
<path fill="none" stroke="#56d85b" stroke-width="2" d="M1245,-180C1245,-180 1175,-180 1175,-180 1169,-180 1163,-174 1163,-168 1163,-168 1163,-156 1163,-156 1163,-150 1169,-144 1175,-144 1175,-144 1245,-144 1245,-144 1251,-144 1257,-150 1257,-156 1257,-156 1257,-168 1257,-168 1257,-174 1251,-180 1245,-180"/>
<text text-anchor="middle" x="1210" y="-159.5" font-family="sans" font-size="10.00">manta_config_n</text>
</g>
<!-- 30&#45;&gt;29 -->
<g id="edge41" class="edge">
<title>30&#45;&gt;29</title>
<path fill="none" stroke="grey" stroke-width="2" d="M1210,-143.7C1210,-135.98 1210,-126.71 1210,-118.11"/>
<polygon fill="grey" stroke="grey" stroke-width="2" points="1213.5,-118.1 1210,-108.1 1206.5,-118.1 1213.5,-118.1"/>
</g>
<!-- 31 -->
<g id="node32" class="node">
<title>31</title>
<path fill="none" stroke="#d85656" stroke-width="2" d="M1357,-108C1357,-108 1305,-108 1305,-108 1299,-108 1293,-102 1293,-96 1293,-96 1293,-84 1293,-84 1293,-78 1299,-72 1305,-72 1305,-72 1357,-72 1357,-72 1363,-72 1369,-78 1369,-84 1369,-84 1369,-96 1369,-96 1369,-102 1363,-108 1357,-108"/>
<text text-anchor="middle" x="1331" y="-87.5" font-family="sans" font-size="10.00">upd_regions</text>
</g>
<!-- 31&#45;&gt;0 -->
<g id="edge1" class="edge">
<title>31&#45;&gt;0</title>
<path fill="none" stroke="grey" stroke-width="2" d="M1292.77,-74.22C1289.83,-73.37 1286.88,-72.62 1284,-72 1037.93,-19.12 732.78,-17.22 628.19,-18.34"/>
<polygon fill="grey" stroke="grey" stroke-width="2" points="628.09,-14.84 618.13,-18.46 628.17,-21.84 628.09,-14.84"/>
</g>
<!-- 32 -->
<g id="node33" class="node">
<title>32</title>
<path fill="none" stroke="#56c1d8" stroke-width="2" d="M1438.5,-108C1438.5,-108 1399.5,-108 1399.5,-108 1393.5,-108 1387.5,-102 1387.5,-96 1387.5,-96 1387.5,-84 1387.5,-84 1387.5,-78 1393.5,-72 1399.5,-72 1399.5,-72 1438.5,-72 1438.5,-72 1444.5,-72 1450.5,-78 1450.5,-84 1450.5,-84 1450.5,-96 1450.5,-96 1450.5,-102 1444.5,-108 1438.5,-108"/>
<text text-anchor="middle" x="1419" y="-87.5" font-family="sans" font-size="10.00">upd_sites</text>
</g>
<!-- 32&#45;&gt;0 -->
<g id="edge17" class="edge">
<title>32&#45;&gt;0</title>
<path fill="none" stroke="grey" stroke-width="2" d="M1387.1,-74.62C1384.07,-73.6 1381,-72.7 1378,-72 1232.77,-37.97 764.8,-23.48 628.55,-19.91"/>
<polygon fill="grey" stroke="grey" stroke-width="2" points="628.31,-16.41 618.22,-19.65 628.13,-23.4 628.31,-16.41"/>
</g>
<!-- 33&#45;&gt;0 -->
<g id="edge15" class="edge">
<title>33&#45;&gt;0</title>
<path fill="none" stroke="grey" stroke-width="2" d="M1468.96,-73.77C1465.95,-73.11 1462.94,-72.51 1460,-72 1141.91,-17.16 749.79,-16.93 628.51,-18.37"/>
<polygon fill="grey" stroke="grey" stroke-width="2" points="628.23,-14.87 618.28,-18.5 628.33,-21.87 628.23,-14.87"/>
</g>
</g>
</svg>
