<?xml version="1.0" encoding="UTF-8" standalone="no"?>
<!DOCTYPE svg PUBLIC "-//W3C//DTD SVG 1.1//EN"
 "http://www.w3.org/Graphics/SVG/1.1/DTD/svg11.dtd">
<!-- Generated by graphviz version 14.1.2 (20260124.0452)
 -->
<!-- Title: snakemake_dag Pages: 1 -->
<svg width="1712pt" height="548pt"
 viewBox="0.00 0.00 1712.00 548.00" xmlns="http://www.w3.org/2000/svg" xmlns:xlink="http://www.w3.org/1999/xlink">
<g id="graph0" class="graph" transform="scale(1 1) rotate(0) translate(4 544)">
<title>snakemake_dag</title>
<polygon fill="white" stroke="none" points="-4,4 -4,-544 1707.8,-544 1707.8,4 -4,4"/>
<!-- 0 -->
<g id="node1" class="node">
<title>0</title>
<path fill="none" stroke="#d88556" stroke-width="2" d="M1016.68,-36C1016.68,-36 986.68,-36 986.68,-36 980.68,-36 974.68,-30 974.68,-24 974.68,-24 974.68,-12 974.68,-12 974.68,-6 980.68,0 986.68,0 986.68,0 1016.68,0 1016.68,0 1022.68,0 1028.68,-6 1028.68,-12 1028.68,-12 1028.68,-24 1028.68,-24 1028.68,-30 1022.68,-36 1016.68,-36"/>
<text xml:space="preserve" text-anchor="middle" x="1001.68" y="-14.12" font-family="sans" font-size="10.00">all</text>
</g>
<!-- 1 -->
<g id="node2" class="node">
<title>1</title>
<path fill="none" stroke="#56d87b" stroke-width="2" d="M856.93,-396C856.93,-396 818.43,-396 818.43,-396 812.43,-396 806.43,-390 806.43,-384 806.43,-384 806.43,-372 806.43,-372 806.43,-366 812.43,-360 818.43,-360 818.43,-360 856.93,-360 856.93,-360 862.93,-360 868.93,-366 868.93,-372 868.93,-372 868.93,-384 868.93,-384 868.93,-390 862.93,-396 856.93,-396"/>
<text xml:space="preserve" text-anchor="middle" x="837.68" y="-374.12" font-family="sans" font-size="10.00">cnvkit_call</text>
</g>
<!-- 1&#45;&gt;0 -->
<g id="edge7" class="edge">
<title>1&#45;&gt;0</title>
<path fill="none" stroke="grey" stroke-width="2" d="M844.52,-359.37C854.18,-332.83 870.68,-280.81 870.68,-235 870.68,-235 870.68,-235 870.68,-161 870.68,-106.05 924.33,-63.28 962.96,-39.6"/>
<polygon fill="grey" stroke="grey" stroke-width="2" points="964.45,-42.78 971.29,-34.69 960.9,-36.75 964.45,-42.78"/>
</g>
<!-- 6 -->
<g id="node7" class="node">
<title>6</title>
<path fill="none" stroke="#56d8d0" stroke-width="2" d="M681.18,-324C681.18,-324 644.18,-324 644.18,-324 638.18,-324 632.18,-318 632.18,-312 632.18,-312 632.18,-300 632.18,-300 632.18,-294 638.18,-288 644.18,-288 644.18,-288 681.18,-288 681.18,-288 687.18,-288 693.18,-294 693.18,-300 693.18,-300 693.18,-312 693.18,-312 693.18,-318 687.18,-324 681.18,-324"/>
<text xml:space="preserve" text-anchor="middle" x="662.68" y="-302.12" font-family="sans" font-size="10.00">cnvkit_vcf</text>
</g>
<!-- 1&#45;&gt;6 -->
<g id="edge29" class="edge">
<title>1&#45;&gt;6</title>
<path fill="none" stroke="grey" stroke-width="2" d="M805.85,-363.33C803.09,-362.19 800.34,-361.06 797.68,-360 759,-344.54 746.11,-341.56 706.15,-325.71"/>
<polygon fill="grey" stroke="grey" stroke-width="2" points="707.51,-322.48 696.93,-322 704.9,-328.98 707.51,-322.48"/>
</g>
<!-- 2 -->
<g id="node3" class="node">
<title>2</title>
<path fill="none" stroke="#c6d856" stroke-width="2" d="M951.43,-468C951.43,-468 903.93,-468 903.93,-468 897.93,-468 891.93,-462 891.93,-456 891.93,-456 891.93,-444 891.93,-444 891.93,-438 897.93,-432 903.93,-432 903.93,-432 951.43,-432 951.43,-432 957.43,-432 963.43,-438 963.43,-444 963.43,-444 963.43,-456 963.43,-456 963.43,-462 957.43,-468 951.43,-468"/>
<text xml:space="preserve" text-anchor="middle" x="927.68" y="-446.12" font-family="sans" font-size="10.00">cnvkit_batch</text>
</g>
<!-- 2&#45;&gt;1 -->
<g id="edge18" class="edge">
<title>2&#45;&gt;1</title>
<path fill="none" stroke="grey" stroke-width="2" d="M904.97,-431.34C894.6,-423.27 882.12,-413.57 870.74,-404.72"/>
<polygon fill="grey" stroke="grey" stroke-width="2" points="873.13,-402.14 863.08,-398.76 868.83,-407.66 873.13,-402.14"/>
</g>
<!-- 3 -->
<g id="node4" class="node">
<title>3</title>
<path fill="none" stroke="#8fd856" stroke-width="2" d="M956.68,-396C956.68,-396 898.68,-396 898.68,-396 892.68,-396 886.68,-390 886.68,-384 886.68,-384 886.68,-372 886.68,-372 886.68,-366 892.68,-360 898.68,-360 898.68,-360 956.68,-360 956.68,-360 962.68,-360 968.68,-366 968.68,-372 968.68,-372 968.68,-384 968.68,-384 968.68,-390 962.68,-396 956.68,-396"/>
<text xml:space="preserve" text-anchor="middle" x="927.68" y="-374.12" font-family="sans" font-size="10.00">cnvkit_diagram</text>
</g>
<!-- 2&#45;&gt;3 -->
<g id="edge19" class="edge">
<title>2&#45;&gt;3</title>
<path fill="none" stroke="grey" stroke-width="2" d="M927.68,-431.34C927.68,-424.75 927.68,-417.08 927.68,-409.67"/>
<polygon fill="grey" stroke="grey" stroke-width="2" points="931.18,-409.93 927.68,-399.93 924.18,-409.93 931.18,-409.93"/>
</g>
<!-- 4 -->
<g id="node5" class="node">
<title>4</title>
<path fill="none" stroke="#d8c356" stroke-width="2" d="M1013.43,-252C1013.43,-252 959.93,-252 959.93,-252 953.93,-252 947.93,-246 947.93,-240 947.93,-240 947.93,-228 947.93,-228 947.93,-222 953.93,-216 959.93,-216 959.93,-216 1013.43,-216 1013.43,-216 1019.43,-216 1025.43,-222 1025.43,-228 1025.43,-228 1025.43,-240 1025.43,-240 1025.43,-246 1019.43,-252 1013.43,-252"/>
<text xml:space="preserve" text-anchor="middle" x="986.68" y="-230.12" font-family="sans" font-size="10.00">cnvkit_scatter</text>
</g>
<!-- 2&#45;&gt;4 -->
<g id="edge20" class="edge">
<title>2&#45;&gt;4</title>
<path fill="none" stroke="grey" stroke-width="2" d="M950.72,-431.12C960.89,-421.84 971.83,-409.6 977.68,-396 995.95,-353.5 994.38,-298.79 990.98,-265.34"/>
<polygon fill="grey" stroke="grey" stroke-width="2" points="994.5,-265.34 989.86,-255.82 987.55,-266.16 994.5,-265.34"/>
</g>
<!-- 3&#45;&gt;0 -->
<g id="edge9" class="edge">
<title>3&#45;&gt;0</title>
<path fill="none" stroke="grey" stroke-width="2" d="M923.74,-359.17C918.18,-332.36 908.68,-280.02 908.68,-235 908.68,-235 908.68,-235 908.68,-161 908.68,-114.6 943.85,-71.57 970.94,-45.31"/>
<polygon fill="grey" stroke="grey" stroke-width="2" points="972.98,-48.19 977.9,-38.81 968.2,-43.07 972.98,-48.19"/>
</g>
<!-- 4&#45;&gt;0 -->
<g id="edge15" class="edge">
<title>4&#45;&gt;0</title>
<path fill="none" stroke="grey" stroke-width="2" d="M979.55,-215.2C968.53,-185.07 950.18,-122.38 965.68,-72 968.36,-63.29 973.01,-54.72 978.1,-47.1"/>
<polygon fill="grey" stroke="grey" stroke-width="2" points="980.84,-49.29 983.91,-39.15 975.18,-45.16 980.84,-49.29"/>
</g>
<!-- 5 -->
<g id="node6" class="node">
<title>5</title>
<path fill="none" stroke="#56d892" stroke-width="2" d="M535.68,-108C535.68,-108 505.68,-108 505.68,-108 499.68,-108 493.68,-102 493.68,-96 493.68,-96 493.68,-84 493.68,-84 493.68,-78 499.68,-72 505.68,-72 505.68,-72 535.68,-72 535.68,-72 541.68,-72 547.68,-78 547.68,-84 547.68,-84 547.68,-96 547.68,-96 547.68,-102 541.68,-108 535.68,-108"/>
<text xml:space="preserve" text-anchor="middle" x="520.68" y="-86.12" font-family="sans" font-size="10.00">bgzip</text>
</g>
<!-- 5&#45;&gt;0 -->
<g id="edge8" class="edge">
<title>5&#45;&gt;0</title>
<path fill="none" stroke="grey" stroke-width="2" d="M548.62,-84.93C629.82,-73.12 866.06,-38.74 961.24,-24.89"/>
<polygon fill="grey" stroke="grey" stroke-width="2" points="961.57,-28.37 970.97,-23.47 960.57,-21.45 961.57,-28.37"/>
</g>
<!-- 6&#45;&gt;5 -->
<g id="edge26" class="edge">
<title>6&#45;&gt;5</title>
<path fill="none" stroke="grey" stroke-width="2" d="M671.71,-287.05C686.41,-255.02 710.9,-187.32 679.68,-144 652.82,-106.73 598.61,-95.27 561,-91.96"/>
<polygon fill="grey" stroke="grey" stroke-width="2" points="561.7,-88.5 551.49,-91.31 561.22,-95.49 561.7,-88.5"/>
</g>
<!-- 15 -->
<g id="node19" class="node">
<title>15</title>
<path fill="none" stroke="#d87d56" stroke-width="2" d="M531.3,-252C531.3,-252 486.05,-252 486.05,-252 480.05,-252 474.05,-246 474.05,-240 474.05,-240 474.05,-228 474.05,-228 474.05,-222 480.05,-216 486.05,-216 486.05,-216 531.3,-216 531.3,-216 537.3,-216 543.3,-222 543.3,-228 543.3,-228 543.3,-240 543.3,-240 543.3,-246 537.3,-252 531.3,-252"/>
<text xml:space="preserve" text-anchor="middle" x="508.68" y="-230.12" font-family="sans" font-size="10.00">svdb_merge</text>
</g>
<!-- 6&#45;&gt;15 -->
<g id="edge35" class="edge">
<title>6&#45;&gt;15</title>
<path fill="none" stroke="grey" stroke-width="2" d="M631.51,-290.83C609.76,-280.95 580.34,-267.57 555.74,-256.39"/>
<polygon fill="grey" stroke="grey" stroke-width="2" points="557.41,-253.31 546.86,-252.36 554.52,-259.68 557.41,-253.31"/>
</g>
<!-- 7 -->
<g id="node8" class="node">
<title>7</title>
<path fill="none" stroke="#d89556" stroke-width="2" d="M350.43,-180C350.43,-180 296.93,-180 296.93,-180 290.93,-180 284.93,-174 284.93,-168 284.93,-168 284.93,-156 284.93,-156 284.93,-150 290.93,-144 296.93,-144 296.93,-144 350.43,-144 350.43,-144 356.43,-144 362.43,-150 362.43,-156 362.43,-156 362.43,-168 362.43,-168 362.43,-174 356.43,-180 350.43,-180"/>
<text xml:space="preserve" text-anchor="middle" x="323.68" y="-158.12" font-family="sans" font-size="10.00">cnvpytor_filter</text>
</g>
<!-- 7&#45;&gt;5 -->
<g id="edge25" class="edge">
<title>7&#45;&gt;5</title>
<path fill="none" stroke="grey" stroke-width="2" d="M363.07,-147C397.27,-134.85 446.56,-117.34 480.88,-105.14"/>
<polygon fill="grey" stroke="grey" stroke-width="2" points="481.69,-108.57 489.94,-101.92 479.34,-101.97 481.69,-108.57"/>
</g>
<!-- 8 -->
<g id="node9" class="node">
<title>8</title>
<path fill="none" stroke="#a7d856" stroke-width="2" d="M350.43,-252C350.43,-252 272.93,-252 272.93,-252 266.93,-252 260.93,-246 260.93,-240 260.93,-240 260.93,-228 260.93,-228 260.93,-222 266.93,-216 272.93,-216 272.93,-216 350.43,-216 350.43,-216 356.43,-216 362.43,-222 362.43,-228 362.43,-228 362.43,-240 362.43,-240 362.43,-246 356.43,-252 350.43,-252"/>
<text xml:space="preserve" text-anchor="middle" x="311.68" y="-230.12" font-family="sans" font-size="10.00">cnvpytor_readdepth</text>
</g>
<!-- 8&#45;&gt;7 -->
<g id="edge30" class="edge">
<title>8&#45;&gt;7</title>
<path fill="none" stroke="grey" stroke-width="2" d="M314.71,-215.34C315.83,-208.75 317.15,-201.08 318.42,-193.67"/>
<polygon fill="grey" stroke="grey" stroke-width="2" points="321.86,-194.33 320.1,-183.89 314.96,-193.15 321.86,-194.33"/>
</g>
<!-- 9 -->
<g id="node10" class="node">
<title>9</title>
<path fill="none" stroke="#d8cb56" stroke-width="2" d="M117.3,-252C117.3,-252 54.05,-252 54.05,-252 48.05,-252 42.05,-246 42.05,-240 42.05,-240 42.05,-228 42.05,-228 42.05,-222 48.05,-216 54.05,-216 54.05,-216 117.3,-216 117.3,-216 123.3,-216 129.3,-222 129.3,-228 129.3,-228 129.3,-240 129.3,-240 129.3,-246 123.3,-252 117.3,-252"/>
<text xml:space="preserve" text-anchor="middle" x="85.68" y="-230.12" font-family="sans" font-size="10.00">expansionhunter</text>
</g>
<!-- 9&#45;&gt;5 -->
<g id="edge28" class="edge">
<title>9&#45;&gt;5</title>
<path fill="none" stroke="grey" stroke-width="2" d="M115.41,-215.04C130.85,-205.28 149.77,-192.65 165.68,-180 183.89,-165.52 182.85,-154.37 203.68,-144 294.88,-98.58 417.26,-90.99 479.94,-90.37"/>
<polygon fill="grey" stroke="grey" stroke-width="2" points="479.72,-93.87 489.71,-90.34 479.7,-86.87 479.72,-93.87"/>
</g>
<!-- 23 -->
<g id="node27" class="node">
<title>23</title>
<path fill="none" stroke="#d6d856" stroke-width="2" d="M100.68,-108C100.68,-108 70.68,-108 70.68,-108 64.68,-108 58.68,-102 58.68,-96 58.68,-96 58.68,-84 58.68,-84 58.68,-78 64.68,-72 70.68,-72 70.68,-72 100.68,-72 100.68,-72 106.68,-72 112.68,-78 112.68,-84 112.68,-84 112.68,-96 112.68,-96 112.68,-102 106.68,-108 100.68,-108"/>
<text xml:space="preserve" text-anchor="middle" x="85.68" y="-86.12" font-family="sans" font-size="10.00">reviewer</text>
</g>
<!-- 9&#45;&gt;23 -->
<g id="edge42" class="edge">
<title>9&#45;&gt;23</title>
<path fill="none" stroke="grey" stroke-width="2" d="M42.81,-215.04C28.33,-206.65 13.8,-195.12 5.68,-180 -1.89,-165.9 -1.89,-158.1 5.68,-144 14.41,-127.74 30.56,-115.63 46.08,-107.12"/>
<polygon fill="grey" stroke="grey" stroke-width="2" points="47.61,-110.27 54.98,-102.66 44.47,-104.01 47.61,-110.27"/>
</g>
<!-- 24 -->
<g id="node28" class="node">
<title>24</title>
<path fill="none" stroke="#567bd8" stroke-width="2" d="M144.68,-180C144.68,-180 26.68,-180 26.68,-180 20.68,-180 14.68,-174 14.68,-168 14.68,-168 14.68,-156 14.68,-156 14.68,-150 20.68,-144 26.68,-144 26.68,-144 144.68,-144 144.68,-144 150.68,-144 156.68,-150 156.68,-156 156.68,-156 156.68,-168 156.68,-168 156.68,-174 150.68,-180 144.68,-180"/>
<text xml:space="preserve" text-anchor="middle" x="85.68" y="-158.12" font-family="sans" font-size="10.00">reviewer_generate_locus_list</text>
</g>
<!-- 9&#45;&gt;24 -->
<g id="edge44" class="edge">
<title>9&#45;&gt;24</title>
<path fill="none" stroke="grey" stroke-width="2" d="M85.68,-215.34C85.68,-208.75 85.68,-201.08 85.68,-193.67"/>
<polygon fill="grey" stroke="grey" stroke-width="2" points="89.18,-193.93 85.68,-183.93 82.18,-193.93 89.18,-193.93"/>
</g>
<!-- 10 -->
<g id="node11" class="node">
<title>10</title>
<path fill="none" stroke="#78d856" stroke-width="2" d="M602.18,-324C602.18,-324 559.18,-324 559.18,-324 553.18,-324 547.18,-318 547.18,-312 547.18,-312 547.18,-300 547.18,-300 547.18,-294 553.18,-288 559.18,-288 559.18,-288 602.18,-288 602.18,-288 608.18,-288 614.18,-294 614.18,-300 614.18,-300 614.18,-312 614.18,-312 614.18,-318 608.18,-324 602.18,-324"/>
<text xml:space="preserve" text-anchor="middle" x="580.68" y="-302.12" font-family="sans" font-size="10.00">gatk_to_vcf</text>
</g>
<!-- 10&#45;&gt;5 -->
<g id="edge24" class="edge">
<title>10&#45;&gt;5</title>
<path fill="none" stroke="grey" stroke-width="2" d="M578.39,-287.22C574.21,-257.13 564.09,-194.5 546.68,-144 543.95,-136.08 540.31,-127.82 536.63,-120.24"/>
<polygon fill="grey" stroke="grey" stroke-width="2" points="539.76,-118.69 532.1,-111.37 533.53,-121.87 539.76,-118.69"/>
</g>
<!-- 10&#45;&gt;15 -->
<g id="edge37" class="edge">
<title>10&#45;&gt;15</title>
<path fill="none" stroke="grey" stroke-width="2" d="M562.51,-287.34C554.55,-279.6 545.05,-270.36 536.25,-261.81"/>
<polygon fill="grey" stroke="grey" stroke-width="2" points="538.87,-259.47 529.26,-255.01 533.99,-264.49 538.87,-259.47"/>
</g>
<!-- 11 -->
<g id="node12" class="node">
<title>11</title>
<path fill="none" stroke="#61d856" stroke-width="2" d="M626.8,-396C626.8,-396 536.55,-396 536.55,-396 530.55,-396 524.55,-390 524.55,-384 524.55,-384 524.55,-372 524.55,-372 524.55,-366 530.55,-360 536.55,-360 536.55,-360 626.8,-360 626.8,-360 632.8,-360 638.8,-366 638.8,-372 638.8,-372 638.8,-384 638.8,-384 638.8,-390 632.8,-396 626.8,-396"/>
<text xml:space="preserve" text-anchor="middle" x="581.68" y="-374.12" font-family="sans" font-size="10.00">gatk_model_segments</text>
</g>
<!-- 11&#45;&gt;10 -->
<g id="edge31" class="edge">
<title>11&#45;&gt;10</title>
<path fill="none" stroke="grey" stroke-width="2" d="M581.43,-359.34C581.33,-352.75 581.22,-345.08 581.12,-337.67"/>
<polygon fill="grey" stroke="grey" stroke-width="2" points="584.62,-337.88 580.98,-327.93 577.62,-337.98 584.62,-337.88"/>
</g>
<!-- 12 -->
<g id="node13" class="node">
<title>12</title>
<path fill="none" stroke="#88d856" stroke-width="2" d="M787.18,-468C787.18,-468 678.18,-468 678.18,-468 672.18,-468 666.18,-462 666.18,-456 666.18,-456 666.18,-444 666.18,-444 666.18,-438 672.18,-432 678.18,-432 678.18,-432 787.18,-432 787.18,-432 793.18,-432 799.18,-438 799.18,-444 799.18,-444 799.18,-456 799.18,-456 799.18,-462 793.18,-468 787.18,-468"/>
<text xml:space="preserve" text-anchor="middle" x="732.68" y="-446.12" font-family="sans" font-size="10.00">gatk_collect_allelic_counts</text>
</g>
<!-- 12&#45;&gt;11 -->
<g id="edge33" class="edge">
<title>12&#45;&gt;11</title>
<path fill="none" stroke="grey" stroke-width="2" d="M694.18,-431.15C675.27,-422.38 652.23,-411.71 631.94,-402.3"/>
<polygon fill="grey" stroke="grey" stroke-width="2" points="633.65,-399.24 623.11,-398.21 630.71,-405.59 633.65,-399.24"/>
</g>
<!-- 13 -->
<g id="node14" class="node">
<title>13</title>
<path fill="none" stroke="#56d89a" stroke-width="2" d="M635.8,-468C635.8,-468 527.55,-468 527.55,-468 521.55,-468 515.55,-462 515.55,-456 515.55,-456 515.55,-444 515.55,-444 515.55,-438 521.55,-432 527.55,-432 527.55,-432 635.8,-432 635.8,-432 641.8,-432 647.8,-438 647.8,-444 647.8,-444 647.8,-456 647.8,-456 647.8,-462 641.8,-468 635.8,-468"/>
<text xml:space="preserve" text-anchor="middle" x="581.68" y="-446.12" font-family="sans" font-size="10.00">gatk_denoise_read_counts</text>
</g>
<!-- 13&#45;&gt;11 -->
<g id="edge32" class="edge">
<title>13&#45;&gt;11</title>
<path fill="none" stroke="grey" stroke-width="2" d="M581.68,-431.34C581.68,-424.75 581.68,-417.08 581.68,-409.67"/>
<polygon fill="grey" stroke="grey" stroke-width="2" points="585.18,-409.93 581.68,-399.93 578.18,-409.93 585.18,-409.93"/>
</g>
<!-- 14 -->
<g id="node15" class="node">
<title>14</title>
<path fill="none" stroke="#56b9d8" stroke-width="2" d="M644.18,-540C644.18,-540 541.18,-540 541.18,-540 535.18,-540 529.18,-534 529.18,-528 529.18,-528 529.18,-516 529.18,-516 529.18,-510 535.18,-504 541.18,-504 541.18,-504 644.18,-504 644.18,-504 650.18,-504 656.18,-510 656.18,-516 656.18,-516 656.18,-528 656.18,-528 656.18,-534 650.18,-540 644.18,-540"/>
<text xml:space="preserve" text-anchor="middle" x="592.68" y="-518.12" font-family="sans" font-size="10.00">gatk_collect_read_counts</text>
</g>
<!-- 14&#45;&gt;13 -->
<g id="edge34" class="edge">
<title>14&#45;&gt;13</title>
<path fill="none" stroke="grey" stroke-width="2" d="M589.9,-503.34C588.87,-496.75 587.66,-489.08 586.5,-481.67"/>
<polygon fill="grey" stroke="grey" stroke-width="2" points="589.97,-481.23 584.96,-471.89 583.06,-482.31 589.97,-481.23"/>
</g>
<!-- 35 -->
<g id="node16" class="node">
<title>35</title>
<path fill="none" stroke="#56b9d8" stroke-width="2" d="M400.3,-468C400.3,-468 361.05,-468 361.05,-468 355.05,-468 349.05,-462 349.05,-456 349.05,-456 349.05,-444 349.05,-444 349.05,-438 355.05,-432 361.05,-432 361.05,-432 400.3,-432 400.3,-432 406.3,-432 412.3,-438 412.3,-444 412.3,-444 412.3,-456 412.3,-456 412.3,-462 406.3,-468 400.3,-468"/>
<text xml:space="preserve" text-anchor="middle" x="380.68" y="-446.12" font-family="sans" font-size="10.00">jumble_run</text>
</g>
<!-- 36 -->
<g id="node17" class="node">
<title>36</title>
<path fill="none" stroke="#56b9d8" stroke-width="2" d="M416.8,-396C416.8,-396 344.55,-396 344.55,-396 338.55,-396 332.55,-390 332.55,-384 332.55,-384 332.55,-372 332.55,-372 332.55,-366 338.55,-360 344.55,-360 344.55,-360 416.8,-360 416.8,-360 422.8,-360 428.8,-366 428.8,-372 428.8,-372 428.8,-384 428.8,-384 428.8,-390 422.8,-396 416.8,-396"/>
<text xml:space="preserve" text-anchor="middle" x="380.68" y="-374.12" font-family="sans" font-size="10.00">jumble_cnvkit_call</text>
</g>
<!-- 35&#45;&gt;36 -->
<g id="edge1" class="edge">
<title>35&#45;&gt;36</title>
<path fill="none" stroke="grey" stroke-width="2" d="M380.68,-431.34C380.68,-424.75 380.68,-417.08 380.68,-409.67"/>
<polygon fill="grey" stroke="grey" stroke-width="2" points="384.18,-409.93 380.68,-399.93 377.18,-409.93 384.18,-409.93"/>
</g>
<!-- 37 -->
<g id="node18" class="node">
<title>37</title>
<path fill="none" stroke="#56b9d8" stroke-width="2" d="M402.3,-324C402.3,-324 363.05,-324 363.05,-324 357.05,-324 351.05,-318 351.05,-312 351.05,-312 351.05,-300 351.05,-300 351.05,-294 357.05,-288 363.05,-288 363.05,-288 402.3,-288 402.3,-288 408.3,-288 414.3,-294 414.3,-300 414.3,-300 414.3,-312 414.3,-312 414.3,-318 408.3,-324 402.3,-324"/>
<text xml:space="preserve" text-anchor="middle" x="382.68" y="-302.12" font-family="sans" font-size="10.00">jumble_vcf</text>
</g>
<!-- 36&#45;&gt;37 -->
<g id="edge2" class="edge">
<title>36&#45;&gt;37</title>
<path fill="none" stroke="grey" stroke-width="2" d="M381.18,-359.34C381.37,-352.75 381.59,-345.08 381.8,-337.67"/>
<polygon fill="grey" stroke="grey" stroke-width="2" points="385.29,-338.02 382.08,-327.93 378.3,-337.82 385.29,-338.02"/>
</g>
<!-- 37&#45;&gt;5 -->
<g id="edge4" class="edge">
<title>37&#45;&gt;5</title>
<path fill="none" stroke="grey" stroke-width="2" d="M384.39,-287.17C388.27,-255.32 400.22,-187.9 434.68,-144 446.88,-128.46 464.99,-116.33 481.46,-107.62"/>
<polygon fill="grey" stroke="grey" stroke-width="2" points="482.92,-110.8 490.33,-103.23 479.82,-104.53 482.92,-110.8"/>
</g>
<!-- 37&#45;&gt;15 -->
<g id="edge3" class="edge">
<title>37&#45;&gt;15</title>
<path fill="none" stroke="grey" stroke-width="2" d="M414.8,-287.15C430.2,-278.6 448.88,-268.22 465.5,-258.99"/>
<polygon fill="grey" stroke="grey" stroke-width="2" points="466.93,-262.2 473.97,-254.28 463.53,-256.08 466.93,-262.2"/>
</g>
<!-- 15&#45;&gt;5 -->
<g id="edge23" class="edge">
<title>15&#45;&gt;5</title>
<path fill="none" stroke="grey" stroke-width="2" d="M518.46,-215.45C523.5,-205.41 529.11,-192.37 531.68,-180 535.69,-160.66 533.03,-138.63 529.31,-121.33"/>
<polygon fill="grey" stroke="grey" stroke-width="2" points="532.77,-120.71 527.01,-111.81 525.96,-122.36 532.77,-120.71"/>
</g>
<!-- 20 -->
<g id="node24" class="node">
<title>20</title>
<path fill="none" stroke="#d85e56" stroke-width="2" d="M510.8,-180C510.8,-180 468.55,-180 468.55,-180 462.55,-180 456.55,-174 456.55,-168 456.55,-168 456.55,-156 456.55,-156 456.55,-150 462.55,-144 468.55,-144 468.55,-144 510.8,-144 510.8,-144 516.8,-144 522.8,-150 522.8,-156 522.8,-156 522.8,-168 522.8,-168 522.8,-174 516.8,-180 510.8,-180"/>
<text xml:space="preserve" text-anchor="middle" x="489.68" y="-158.12" font-family="sans" font-size="10.00">svdb_query</text>
</g>
<!-- 15&#45;&gt;20 -->
<g id="edge41" class="edge">
<title>15&#45;&gt;20</title>
<path fill="none" stroke="grey" stroke-width="2" d="M503.88,-215.34C502.07,-208.67 499.96,-200.89 497.93,-193.39"/>
<polygon fill="grey" stroke="grey" stroke-width="2" points="501.33,-192.56 495.33,-183.82 494.57,-194.39 501.33,-192.56"/>
</g>
<!-- 16 -->
<g id="node20" class="node">
<title>16</title>
<path fill="none" stroke="#566bd8" stroke-width="2" d="M515.05,-324C515.05,-324 444.3,-324 444.3,-324 438.3,-324 432.3,-318 432.3,-312 432.3,-312 432.3,-300 432.3,-300 432.3,-294 438.3,-288 444.3,-288 444.3,-288 515.05,-288 515.05,-288 521.05,-288 527.05,-294 527.05,-300 527.05,-300 527.05,-312 527.05,-312 527.05,-318 521.05,-324 515.05,-324"/>
<text xml:space="preserve" text-anchor="middle" x="479.68" y="-302.12" font-family="sans" font-size="10.00">pindel_update_vcf</text>
</g>
<!-- 16&#45;&gt;5 -->
<g id="edge27" class="edge">
<title>16&#45;&gt;5</title>
<path fill="none" stroke="grey" stroke-width="2" d="M468.95,-287.06C452.01,-256.19 423.35,-191.73 447.68,-144 455.07,-129.5 468.49,-118.04 481.82,-109.54"/>
<polygon fill="grey" stroke="grey" stroke-width="2" points="483.38,-112.68 490.25,-104.62 479.85,-106.64 483.38,-112.68"/>
</g>
<!-- 16&#45;&gt;15 -->
<g id="edge36" class="edge">
<title>16&#45;&gt;15</title>
<path fill="none" stroke="grey" stroke-width="2" d="M487,-287.34C489.82,-280.51 493.14,-272.5 496.32,-264.83"/>
<polygon fill="grey" stroke="grey" stroke-width="2" points="499.51,-266.28 500.1,-255.7 493.04,-263.6 499.51,-266.28"/>
</g>
<!-- 17 -->
<g id="node21" class="node">
<title>17</title>
<path fill="none" stroke="#d87556" stroke-width="2" d="M494.8,-396C494.8,-396 458.55,-396 458.55,-396 452.55,-396 446.55,-390 446.55,-384 446.55,-384 446.55,-372 446.55,-372 446.55,-366 452.55,-360 458.55,-360 458.55,-360 494.8,-360 494.8,-360 500.8,-360 506.8,-366 506.8,-372 506.8,-372 506.8,-384 506.8,-384 506.8,-390 500.8,-396 494.8,-396"/>
<text xml:space="preserve" text-anchor="middle" x="476.68" y="-374.12" font-family="sans" font-size="10.00">pindel2vcf</text>
</g>
<!-- 17&#45;&gt;16 -->
<g id="edge38" class="edge">
<title>17&#45;&gt;16</title>
<path fill="none" stroke="grey" stroke-width="2" d="M477.43,-359.34C477.72,-352.75 478.05,-345.08 478.36,-337.67"/>
<polygon fill="grey" stroke="grey" stroke-width="2" points="481.85,-338.07 478.78,-327.93 474.86,-337.77 481.85,-338.07"/>
</g>
<!-- 18 -->
<g id="node22" class="node">
<title>18</title>
<path fill="none" stroke="#5663d8" stroke-width="2" d="M483.55,-468C483.55,-468 445.8,-468 445.8,-468 439.8,-468 433.8,-462 433.8,-456 433.8,-456 433.8,-444 433.8,-444 433.8,-438 439.8,-432 445.8,-432 445.8,-432 483.55,-432 483.55,-432 489.55,-432 495.55,-438 495.55,-444 495.55,-444 495.55,-456 495.55,-456 495.55,-462 489.55,-468 483.55,-468"/>
<text xml:space="preserve" text-anchor="middle" x="464.68" y="-446.12" font-family="sans" font-size="10.00">pindel_call</text>
</g>
<!-- 18&#45;&gt;17 -->
<g id="edge39" class="edge">
<title>18&#45;&gt;17</title>
<path fill="none" stroke="grey" stroke-width="2" d="M467.71,-431.34C468.83,-424.75 470.15,-417.08 471.42,-409.67"/>
<polygon fill="grey" stroke="grey" stroke-width="2" points="474.86,-410.33 473.1,-399.89 467.96,-409.15 474.86,-410.33"/>
</g>
<!-- 19 -->
<g id="node23" class="node">
<title>19</title>
<path fill="none" stroke="#569ad8" stroke-width="2" d="M499.55,-540C499.55,-540 407.8,-540 407.8,-540 401.8,-540 395.8,-534 395.8,-528 395.8,-528 395.8,-516 395.8,-516 395.8,-510 401.8,-504 407.8,-504 407.8,-504 499.55,-504 499.55,-504 505.55,-504 511.55,-510 511.55,-516 511.55,-516 511.55,-528 511.55,-528 511.55,-534 505.55,-540 499.55,-540"/>
<text xml:space="preserve" text-anchor="middle" x="453.68" y="-518.12" font-family="sans" font-size="10.00">pindel_generate_config</text>
</g>
<!-- 19&#45;&gt;18 -->
<g id="edge40" class="edge">
<title>19&#45;&gt;18</title>
<path fill="none" stroke="grey" stroke-width="2" d="M456.45,-503.34C457.49,-496.75 458.69,-489.08 459.86,-481.67"/>
<polygon fill="grey" stroke="grey" stroke-width="2" points="463.3,-482.31 461.39,-471.89 456.38,-481.23 463.3,-482.31"/>
</g>
<!-- 20&#45;&gt;5 -->
<g id="edge21" class="edge">
<title>20&#45;&gt;5</title>
<path fill="none" stroke="grey" stroke-width="2" d="M497.5,-143.34C500.56,-136.43 504.16,-128.31 507.59,-120.56"/>
<polygon fill="grey" stroke="grey" stroke-width="2" points="510.67,-122.23 511.52,-111.67 504.27,-119.4 510.67,-122.23"/>
</g>
<!-- 21 -->
<g id="node25" class="node">
<title>21</title>
<path fill="none" stroke="#d89c56" stroke-width="2" d="M1691.8,-180C1691.8,-180 1625.55,-180 1625.55,-180 1619.55,-180 1613.55,-174 1613.55,-168 1613.55,-168 1613.55,-156 1613.55,-156 1613.55,-150 1619.55,-144 1625.55,-144 1625.55,-144 1691.8,-144 1691.8,-144 1697.8,-144 1703.8,-150 1703.8,-156 1703.8,-156 1703.8,-168 1703.8,-168 1703.8,-174 1697.8,-180 1691.8,-180"/>
<text xml:space="preserve" text-anchor="middle" x="1658.68" y="-158.12" font-family="sans" font-size="10.00">exomedepth_sex</text>
</g>
<!-- 34 -->
<g id="node38" class="node">
<title>34</title>
<path fill="none" stroke="#56d8b9" stroke-width="2" d="M1691.43,-108C1691.43,-108 1625.93,-108 1625.93,-108 1619.93,-108 1613.93,-102 1613.93,-96 1613.93,-96 1613.93,-84 1613.93,-84 1613.93,-78 1619.93,-72 1625.93,-72 1625.93,-72 1691.43,-72 1691.43,-72 1697.43,-72 1703.43,-78 1703.43,-84 1703.43,-84 1703.43,-96 1703.43,-96 1703.43,-102 1697.43,-108 1691.43,-108"/>
<text xml:space="preserve" text-anchor="middle" x="1658.68" y="-86.12" font-family="sans" font-size="10.00">exomedepth_call</text>
</g>
<!-- 21&#45;&gt;34 -->
<g id="edge48" class="edge">
<title>21&#45;&gt;34</title>
<path fill="none" stroke="grey" stroke-width="2" d="M1658.68,-143.34C1658.68,-136.75 1658.68,-129.08 1658.68,-121.67"/>
<polygon fill="grey" stroke="grey" stroke-width="2" points="1662.18,-121.93 1658.68,-111.93 1655.18,-121.93 1662.18,-121.93"/>
</g>
<!-- 22 -->
<g id="node26" class="node">
<title>22</title>
<path fill="none" stroke="#56d88a" stroke-width="2" d="M658.68,-180C658.68,-180 628.68,-180 628.68,-180 622.68,-180 616.68,-174 616.68,-168 616.68,-168 616.68,-156 616.68,-156 616.68,-150 622.68,-144 628.68,-144 628.68,-144 658.68,-144 658.68,-144 664.68,-144 670.68,-150 670.68,-156 670.68,-156 670.68,-168 670.68,-168 670.68,-174 664.68,-180 658.68,-180"/>
<text xml:space="preserve" text-anchor="middle" x="643.68" y="-158.12" font-family="sans" font-size="10.00">tiddit</text>
</g>
<!-- 22&#45;&gt;5 -->
<g id="edge22" class="edge">
<title>22&#45;&gt;5</title>
<path fill="none" stroke="grey" stroke-width="2" d="M615.77,-145.12C599.18,-135.67 577.88,-123.55 559.65,-113.18"/>
<polygon fill="grey" stroke="grey" stroke-width="2" points="561.53,-110.22 551.11,-108.32 558.07,-116.31 561.53,-110.22"/>
</g>
<!-- 23&#45;&gt;0 -->
<g id="edge16" class="edge">
<title>23&#45;&gt;0</title>
<path fill="none" stroke="grey" stroke-width="2" d="M113.59,-86.87C245.42,-76.79 805.77,-33.97 961.42,-22.08"/>
<polygon fill="grey" stroke="grey" stroke-width="2" points="961.26,-25.6 970.96,-21.35 960.73,-18.62 961.26,-25.6"/>
</g>
<!-- 24&#45;&gt;23 -->
<g id="edge43" class="edge">
<title>24&#45;&gt;23</title>
<path fill="none" stroke="grey" stroke-width="2" d="M85.68,-143.34C85.68,-136.75 85.68,-129.08 85.68,-121.67"/>
<polygon fill="grey" stroke="grey" stroke-width="2" points="89.18,-121.93 85.68,-111.93 82.18,-121.93 89.18,-121.93"/>
</g>
<!-- 25 -->
<g id="node29" class="node">
<title>25</title>
<path fill="none" stroke="#80d856" stroke-width="2" d="M1016.68,-108C1016.68,-108 986.68,-108 986.68,-108 980.68,-108 974.68,-102 974.68,-96 974.68,-96 974.68,-84 974.68,-84 974.68,-78 980.68,-72 986.68,-72 986.68,-72 1016.68,-72 1016.68,-72 1022.68,-72 1028.68,-78 1028.68,-84 1028.68,-84 1028.68,-96 1028.68,-96 1028.68,-102 1022.68,-108 1016.68,-108"/>
<text xml:space="preserve" text-anchor="middle" x="1001.68" y="-86.12" font-family="sans" font-size="10.00">automap</text>
</g>
<!-- 25&#45;&gt;0 -->
<g id="edge11" class="edge">
<title>25&#45;&gt;0</title>
<path fill="none" stroke="grey" stroke-width="2" d="M1001.68,-71.34C1001.68,-64.75 1001.68,-57.08 1001.68,-49.67"/>
<polygon fill="grey" stroke="grey" stroke-width="2" points="1005.18,-49.93 1001.68,-39.93 998.18,-49.93 1005.18,-49.93"/>
</g>
<!-- 26 -->
<g id="node30" class="node">
<title>26</title>
<path fill="none" stroke="#56d8b1" stroke-width="2" d="M1154.43,-108C1154.43,-108 1058.93,-108 1058.93,-108 1052.93,-108 1046.93,-102 1046.93,-96 1046.93,-96 1046.93,-84 1046.93,-84 1046.93,-78 1052.93,-72 1058.93,-72 1058.93,-72 1154.43,-72 1154.43,-72 1160.43,-72 1166.43,-78 1166.43,-84 1166.43,-84 1166.43,-96 1166.43,-96 1166.43,-102 1160.43,-108 1154.43,-108"/>
<text xml:space="preserve" text-anchor="middle" x="1106.68" y="-86.12" font-family="sans" font-size="10.00">manta_run_workflow_tn</text>
</g>
<!-- 26&#45;&gt;0 -->
<g id="edge10" class="edge">
<title>26&#45;&gt;0</title>
<path fill="none" stroke="grey" stroke-width="2" d="M1079.91,-71.15C1067.44,-62.84 1052.41,-52.82 1038.86,-43.79"/>
<polygon fill="grey" stroke="grey" stroke-width="2" points="1041.18,-41.13 1030.91,-38.49 1037.29,-46.95 1041.18,-41.13"/>
</g>
<!-- 27 -->
<g id="node31" class="node">
<title>27</title>
<path fill="none" stroke="#9fd856" stroke-width="2" d="M1138.68,-180C1138.68,-180 1074.68,-180 1074.68,-180 1068.68,-180 1062.68,-174 1062.68,-168 1062.68,-168 1062.68,-156 1062.68,-156 1062.68,-150 1068.68,-144 1074.68,-144 1074.68,-144 1138.68,-144 1138.68,-144 1144.68,-144 1150.68,-150 1150.68,-156 1150.68,-156 1150.68,-168 1150.68,-168 1150.68,-174 1144.68,-180 1138.68,-180"/>
<text xml:space="preserve" text-anchor="middle" x="1106.68" y="-158.12" font-family="sans" font-size="10.00">manta_config_tn</text>
</g>
<!-- 27&#45;&gt;26 -->
<g id="edge45" class="edge">
<title>27&#45;&gt;26</title>
<path fill="none" stroke="grey" stroke-width="2" d="M1106.68,-143.34C1106.68,-136.75 1106.68,-129.08 1106.68,-121.67"/>
<polygon fill="grey" stroke="grey" stroke-width="2" points="1110.18,-121.93 1106.68,-111.93 1103.18,-121.93 1110.18,-121.93"/>
</g>
<!-- 28 -->
<g id="node32" class="node">
<title>28</title>
<path fill="none" stroke="#56d873" stroke-width="2" d="M1286.8,-108C1286.8,-108 1196.55,-108 1196.55,-108 1190.55,-108 1184.55,-102 1184.55,-96 1184.55,-96 1184.55,-84 1184.55,-84 1184.55,-78 1190.55,-72 1196.55,-72 1196.55,-72 1286.8,-72 1286.8,-72 1292.8,-72 1298.8,-78 1298.8,-84 1298.8,-84 1298.8,-96 1298.8,-96 1298.8,-102 1292.8,-108 1286.8,-108"/>
<text xml:space="preserve" text-anchor="middle" x="1241.68" y="-86.12" font-family="sans" font-size="10.00">manta_run_workflow_t</text>
</g>
<!-- 28&#45;&gt;0 -->
<g id="edge6" class="edge">
<title>28&#45;&gt;0</title>
<path fill="none" stroke="grey" stroke-width="2" d="M1183.58,-72.05C1139.71,-59.26 1080.63,-42.03 1041.87,-30.72"/>
<polygon fill="grey" stroke="grey" stroke-width="2" points="1043.05,-27.42 1032.47,-27.98 1041.09,-34.14 1043.05,-27.42"/>
</g>
<!-- 29 -->
<g id="node33" class="node">
<title>29</title>
<path fill="none" stroke="#b6d856" stroke-width="2" d="M1271.05,-180C1271.05,-180 1212.3,-180 1212.3,-180 1206.3,-180 1200.3,-174 1200.3,-168 1200.3,-168 1200.3,-156 1200.3,-156 1200.3,-150 1206.3,-144 1212.3,-144 1212.3,-144 1271.05,-144 1271.05,-144 1277.05,-144 1283.05,-150 1283.05,-156 1283.05,-156 1283.05,-168 1283.05,-168 1283.05,-174 1277.05,-180 1271.05,-180"/>
<text xml:space="preserve" text-anchor="middle" x="1241.68" y="-158.12" font-family="sans" font-size="10.00">manta_config_t</text>
</g>
<!-- 29&#45;&gt;28 -->
<g id="edge46" class="edge">
<title>29&#45;&gt;28</title>
<path fill="none" stroke="grey" stroke-width="2" d="M1241.68,-143.34C1241.68,-136.75 1241.68,-129.08 1241.68,-121.67"/>
<polygon fill="grey" stroke="grey" stroke-width="2" points="1245.18,-121.93 1241.68,-111.93 1238.18,-121.93 1245.18,-121.93"/>
</g>
<!-- 30 -->
<g id="node34" class="node">
<title>30</title>
<path fill="none" stroke="#d86e56" stroke-width="2" d="M1420.93,-108C1420.93,-108 1328.43,-108 1328.43,-108 1322.43,-108 1316.43,-102 1316.43,-96 1316.43,-96 1316.43,-84 1316.43,-84 1316.43,-78 1322.43,-72 1328.43,-72 1328.43,-72 1420.93,-72 1420.93,-72 1426.93,-72 1432.93,-78 1432.93,-84 1432.93,-84 1432.93,-96 1432.93,-96 1432.93,-102 1426.93,-108 1420.93,-108"/>
<text xml:space="preserve" text-anchor="middle" x="1374.68" y="-86.12" font-family="sans" font-size="10.00">manta_run_workflow_n</text>
</g>
<!-- 30&#45;&gt;0 -->
<g id="edge5" class="edge">
<title>30&#45;&gt;0</title>
<path fill="none" stroke="grey" stroke-width="2" d="M1315.55,-73.73C1312.89,-73.13 1310.26,-72.55 1307.68,-72 1213.26,-51.88 1101.22,-33.98 1042.4,-25.03"/>
<polygon fill="grey" stroke="grey" stroke-width="2" points="1043.07,-21.59 1032.66,-23.56 1042.02,-28.51 1043.07,-21.59"/>
</g>
<!-- 31 -->
<g id="node35" class="node">
<title>31</title>
<path fill="none" stroke="#56d0d8" stroke-width="2" d="M1405.18,-180C1405.18,-180 1344.18,-180 1344.18,-180 1338.18,-180 1332.18,-174 1332.18,-168 1332.18,-168 1332.18,-156 1332.18,-156 1332.18,-150 1338.18,-144 1344.18,-144 1344.18,-144 1405.18,-144 1405.18,-144 1411.18,-144 1417.18,-150 1417.18,-156 1417.18,-156 1417.18,-168 1417.18,-168 1417.18,-174 1411.18,-180 1405.18,-180"/>
<text xml:space="preserve" text-anchor="middle" x="1374.68" y="-158.12" font-family="sans" font-size="10.00">manta_config_n</text>
</g>
<!-- 31&#45;&gt;30 -->
<g id="edge47" class="edge">
<title>31&#45;&gt;30</title>
<path fill="none" stroke="grey" stroke-width="2" d="M1374.68,-143.34C1374.68,-136.75 1374.68,-129.08 1374.68,-121.67"/>
<polygon fill="grey" stroke="grey" stroke-width="2" points="1378.18,-121.93 1374.68,-111.93 1371.18,-121.93 1378.18,-121.93"/>
</g>
<!-- 32 -->
<g id="node36" class="node">
<title>32</title>
<path fill="none" stroke="#68d856" stroke-width="2" d="M1507.93,-108C1507.93,-108 1463.43,-108 1463.43,-108 1457.43,-108 1451.43,-102 1451.43,-96 1451.43,-96 1451.43,-84 1451.43,-84 1451.43,-78 1457.43,-72 1463.43,-72 1463.43,-72 1507.93,-72 1507.93,-72 1513.93,-72 1519.93,-78 1519.93,-84 1519.93,-84 1519.93,-96 1519.93,-96 1519.93,-102 1513.93,-108 1507.93,-108"/>
<text xml:space="preserve" text-anchor="middle" x="1485.68" y="-86.12" font-family="sans" font-size="10.00">upd_regions</text>
</g>
<!-- 32&#45;&gt;0 -->
<g id="edge12" class="edge">
<title>32&#45;&gt;0</title>
<path fill="none" stroke="grey" stroke-width="2" d="M1450.87,-74.65C1447.79,-73.66 1444.7,-72.75 1441.68,-72 1297.53,-36.07 1120.53,-24.19 1042.23,-20.52"/>
<polygon fill="grey" stroke="grey" stroke-width="2" points="1042.82,-17.04 1032.68,-20.1 1042.51,-24.04 1042.82,-17.04"/>
</g>
<!-- 33 -->
<g id="node37" class="node">
<title>33</title>
<path fill="none" stroke="#d8bc56" stroke-width="2" d="M1583.68,-108C1583.68,-108 1549.68,-108 1549.68,-108 1543.68,-108 1537.68,-102 1537.68,-96 1537.68,-96 1537.68,-84 1537.68,-84 1537.68,-78 1543.68,-72 1549.68,-72 1549.68,-72 1583.68,-72 1583.68,-72 1589.68,-72 1595.68,-78 1595.68,-84 1595.68,-84 1595.68,-96 1595.68,-96 1595.68,-102 1589.68,-108 1583.68,-108"/>
<text xml:space="preserve" text-anchor="middle" x="1566.68" y="-86.12" font-family="sans" font-size="10.00">upd_sites</text>
</g>
<!-- 33&#45;&gt;0 -->
<g id="edge14" class="edge">
<title>33&#45;&gt;0</title>
<path fill="none" stroke="grey" stroke-width="2" d="M1536.71,-74.55C1534.03,-73.58 1531.33,-72.71 1528.68,-72 1352.22,-24.97 1132.4,-19.01 1042.68,-18.71"/>
<polygon fill="grey" stroke="grey" stroke-width="2" points="1042.7,-15.21 1032.69,-18.7 1042.69,-22.21 1042.7,-15.21"/>
</g>
<!-- 34&#45;&gt;0 -->
<g id="edge13" class="edge">
<title>34&#45;&gt;0</title>
<path fill="none" stroke="grey" stroke-width="2" d="M1613.19,-73.92C1610.33,-73.2 1607.47,-72.56 1604.68,-72 1395.98,-30.49 1140.2,-21.49 1042.36,-19.54"/>
<polygon fill="grey" stroke="grey" stroke-width="2" points="1042.72,-16.04 1032.66,-19.36 1042.59,-23.04 1042.72,-16.04"/>
</g>
<!-- 38 -->
<g id="node39" class="node">
<title>38</title>
<path fill="none" stroke="#bed856" stroke-width="2" d="M223.68,-324C223.68,-324 193.68,-324 193.68,-324 187.68,-324 181.68,-318 181.68,-312 181.68,-312 181.68,-300 181.68,-300 181.68,-294 187.68,-288 193.68,-288 193.68,-288 223.68,-288 223.68,-288 229.68,-288 235.68,-294 235.68,-300 235.68,-300 235.68,-312 235.68,-312 235.68,-318 229.68,-324 223.68,-324"/>
<text xml:space="preserve" text-anchor="middle" x="208.68" y="-302.12" font-family="sans" font-size="10.00">melt</text>
</g>
<!-- 39 -->
<g id="node40" class="node">
<title>39</title>
<path fill="none" stroke="#bed856" stroke-width="2" d="M231.3,-252C231.3,-252 186.05,-252 186.05,-252 180.05,-252 174.05,-246 174.05,-240 174.05,-240 174.05,-228 174.05,-228 174.05,-222 180.05,-216 186.05,-216 186.05,-216 231.3,-216 231.3,-216 237.3,-216 243.3,-222 243.3,-228 243.3,-228 243.3,-240 243.3,-240 243.3,-246 237.3,-252 231.3,-252"/>
<text xml:space="preserve" text-anchor="middle" x="208.68" y="-230.12" font-family="sans" font-size="10.00">melt_concat</text>
</g>
<!-- 38&#45;&gt;39 -->
<g id="edge49" class="edge">
<title>38&#45;&gt;39</title>
<path fill="none" stroke="grey" stroke-width="2" d="M208.68,-287.34C208.68,-280.75 208.68,-273.08 208.68,-265.67"/>
<polygon fill="grey" stroke="grey" stroke-width="2" points="212.18,-265.93 208.68,-255.93 205.18,-265.93 212.18,-265.93"/>
</g>
<!-- 40 -->
<g id="node41" class="node">
<title>40</title>
<path fill="none" stroke="#bed856" stroke-width="2" d="M254.68,-180C254.68,-180 224.68,-180 224.68,-180 218.68,-180 212.68,-174 212.68,-168 212.68,-168 212.68,-156 212.68,-156 212.68,-150 218.68,-144 224.68,-144 224.68,-144 254.68,-144 254.68,-144 260.68,-144 266.68,-150 266.68,-156 266.68,-156 266.68,-168 266.68,-168 266.68,-174 260.68,-180 254.68,-180"/>
<text xml:space="preserve" text-anchor="middle" x="239.68" y="-158.12" font-family="sans" font-size="10.00">melt_vcf</text>
</g>
<!-- 39&#45;&gt;40 -->
<g id="edge50" class="edge">
<title>39&#45;&gt;40</title>
<path fill="none" stroke="grey" stroke-width="2" d="M216.5,-215.34C219.56,-208.43 223.16,-200.31 226.59,-192.56"/>
<polygon fill="grey" stroke="grey" stroke-width="2" points="229.67,-194.23 230.52,-183.67 223.27,-191.4 229.67,-194.23"/>
</g>
<!-- 40&#45;&gt;5 -->
<g id="edge51" class="edge">
<title>40&#45;&gt;5</title>
<path fill="none" stroke="grey" stroke-width="2" d="M267.33,-147.18C270.11,-146.02 272.93,-144.93 275.68,-144 345.89,-120.18 431.17,-104.59 480.35,-96.83"/>
<polygon fill="grey" stroke="grey" stroke-width="2" points="480.59,-100.33 489.94,-95.35 479.53,-93.41 480.59,-100.33"/>
</g>
<!-- 41 -->
<g id="node42" class="node">
<title>41</title>
<path fill="none" stroke="#56d8a9" stroke-width="2" d="M776.8,-396C776.8,-396 668.55,-396 668.55,-396 662.55,-396 656.55,-390 656.55,-384 656.55,-384 656.55,-372 656.55,-372 656.55,-366 662.55,-360 668.55,-360 668.55,-360 776.8,-360 776.8,-360 782.8,-360 788.8,-366 788.8,-372 788.8,-372 788.8,-384 788.8,-384 788.8,-390 782.8,-396 776.8,-396"/>
<text xml:space="preserve" text-anchor="middle" x="722.68" y="-374.12" font-family="sans" font-size="10.00">scramble_cluster_identifier</text>
</g>
<!-- 42 -->
<g id="node43" class="node">
<title>42</title>
<path fill="none" stroke="#56d8a9" stroke-width="2" d="M830.43,-324C830.43,-324 722.93,-324 722.93,-324 716.93,-324 710.93,-318 710.93,-312 710.93,-312 710.93,-300 710.93,-300 710.93,-294 716.93,-288 722.93,-288 722.93,-288 830.43,-288 830.43,-288 836.43,-288 842.43,-294 842.43,-300 842.43,-300 842.43,-312 842.43,-312 842.43,-318 836.43,-324 830.43,-324"/>
<text xml:space="preserve" text-anchor="middle" x="776.68" y="-302.12" font-family="sans" font-size="10.00">scramble_cluster_analysis</text>
</g>
<!-- 41&#45;&gt;42 -->
<g id="edge52" class="edge">
<title>41&#45;&gt;42</title>
<path fill="none" stroke="grey" stroke-width="2" d="M736.3,-359.34C741.95,-352.01 748.65,-343.34 754.94,-335.18"/>
<polygon fill="grey" stroke="grey" stroke-width="2" points="757.68,-337.35 761.02,-327.3 752.14,-333.08 757.68,-337.35"/>
</g>
<!-- 42&#45;&gt;0 -->
<g id="edge17" class="edge">
<title>42&#45;&gt;0</title>
<path fill="none" stroke="grey" stroke-width="2" d="M791.05,-287.31C798.45,-277.43 807.08,-264.6 812.68,-252 846.12,-176.74 801.75,-133.37 856.68,-72 883.39,-42.16 928.31,-29.1 961.09,-23.39"/>
<polygon fill="grey" stroke="grey" stroke-width="2" points="961.52,-26.87 970.88,-21.89 960.46,-19.95 961.52,-26.87"/>
</g>
<!-- 43 -->
<g id="node44" class="node">
<title>43</title>
<path fill="none" stroke="#56d8a9" stroke-width="2" d="M791.93,-252C791.93,-252 741.43,-252 741.43,-252 735.43,-252 729.43,-246 729.43,-240 729.43,-240 729.43,-228 729.43,-228 729.43,-222 735.43,-216 741.43,-216 741.43,-216 791.93,-216 791.93,-216 797.93,-216 803.93,-222 803.93,-228 803.93,-228 803.93,-240 803.93,-240 803.93,-246 797.93,-252 791.93,-252"/>
<text xml:space="preserve" text-anchor="middle" x="766.68" y="-230.12" font-family="sans" font-size="10.00">scramble_vcf</text>
</g>
<!-- 42&#45;&gt;43 -->
<g id="edge53" class="edge">
<title>42&#45;&gt;43</title>
<path fill="none" stroke="grey" stroke-width="2" d="M774.15,-287.34C773.21,-280.75 772.12,-273.08 771.06,-265.67"/>
<polygon fill="grey" stroke="grey" stroke-width="2" points="774.54,-265.3 769.66,-255.9 767.61,-266.29 774.54,-265.3"/>
</g>
<!-- 44 -->
<g id="node45" class="node">
<title>44</title>
<path fill="none" stroke="#56d8a9" stroke-width="2" d="M792.43,-180C792.43,-180 738.93,-180 738.93,-180 732.93,-180 726.93,-174 726.93,-168 726.93,-168 726.93,-156 726.93,-156 726.93,-150 732.93,-144 738.93,-144 738.93,-144 792.43,-144 792.43,-144 798.43,-144 804.43,-150 804.43,-156 804.43,-156 804.43,-168 804.43,-168 804.43,-174 798.43,-180 792.43,-180"/>
<text xml:space="preserve" text-anchor="middle" x="765.68" y="-158.12" font-family="sans" font-size="10.00">scramble_sort</text>
</g>
<!-- 43&#45;&gt;44 -->
<g id="edge54" class="edge">
<title>43&#45;&gt;44</title>
<path fill="none" stroke="grey" stroke-width="2" d="M766.43,-215.34C766.33,-208.75 766.22,-201.08 766.12,-193.67"/>
<polygon fill="grey" stroke="grey" stroke-width="2" points="769.62,-193.88 765.98,-183.93 762.62,-193.98 769.62,-193.88"/>
</g>
<!-- 44&#45;&gt;5 -->
<g id="edge55" class="edge">
<title>44&#45;&gt;5</title>
<path fill="none" stroke="grey" stroke-width="2" d="M726.08,-148.1C721.57,-146.69 717.03,-145.3 712.68,-144 660.54,-128.45 599.97,-111.99 561.02,-101.62"/>
<polygon fill="grey" stroke="grey" stroke-width="2" points="561.93,-98.24 551.37,-99.06 560.13,-105.01 561.93,-98.24"/>
</g>
</g>
</svg>
