<?xml version="1.0" encoding="UTF-8" standalone="no"?>
<!DOCTYPE svg PUBLIC "-//W3C//DTD SVG 1.1//EN"
 "http://www.w3.org/Graphics/SVG/1.1/DTD/svg11.dtd">
<!-- Generated by graphviz version 14.1.2 (20260124.0452)
 -->
<!-- Title: snakemake_dag Pages: 1 -->
<svg width="1708pt" height="548pt"
 viewBox="0.00 0.00 1708.00 548.00" xmlns="http://www.w3.org/2000/svg" xmlns:xlink="http://www.w3.org/1999/xlink">
<g id="graph0" class="graph" transform="scale(1 1) rotate(0) translate(4 544)">
<title>snakemake_dag</title>
<polygon fill="white" stroke="none" points="-4,4 -4,-544 1703.8,-544 1703.8,4 -4,4"/>
<!-- 0 -->
<g id="node1" class="node">
<title>0</title>
<path fill="none" stroke="#d88556" stroke-width="2" d="M1012.68,-36C1012.68,-36 982.68,-36 982.68,-36 976.68,-36 970.68,-30 970.68,-24 970.68,-24 970.68,-12 970.68,-12 970.68,-6 976.68,0 982.68,0 982.68,0 1012.68,0 1012.68,0 1018.68,0 1024.68,-6 1024.68,-12 1024.68,-12 1024.68,-24 1024.68,-24 1024.68,-30 1018.68,-36 1012.68,-36"/>
<text xml:space="preserve" text-anchor="middle" x="997.68" y="-14.12" font-family="sans" font-size="10.00">all</text>
</g>
<!-- 1 -->
<g id="node2" class="node">
<title>1</title>
<path fill="none" stroke="#56d87b" stroke-width="2" d="M832.93,-396C832.93,-396 794.43,-396 794.43,-396 788.43,-396 782.43,-390 782.43,-384 782.43,-384 782.43,-372 782.43,-372 782.43,-366 788.43,-360 794.43,-360 794.43,-360 832.93,-360 832.93,-360 838.93,-360 844.93,-366 844.93,-372 844.93,-372 844.93,-384 844.93,-384 844.93,-390 838.93,-396 832.93,-396"/>
<text xml:space="preserve" text-anchor="middle" x="813.68" y="-374.12" font-family="sans" font-size="10.00">cnvkit_call</text>
</g>
<!-- 1&#45;&gt;0 -->
<g id="edge7" class="edge">
<title>1&#45;&gt;0</title>
<path fill="none" stroke="grey" stroke-width="2" d="M827.36,-359.26C834.38,-349.36 842.52,-336.54 847.68,-324 863.07,-286.6 866.68,-275.45 866.68,-235 866.68,-235 866.68,-235 866.68,-161 866.68,-106.05 920.33,-63.28 958.96,-39.6"/>
<polygon fill="grey" stroke="grey" stroke-width="2" points="960.45,-42.78 967.29,-34.69 956.9,-36.75 960.45,-42.78"/>
</g>
<!-- 6 -->
<g id="node7" class="node">
<title>6</title>
<path fill="none" stroke="#56d8d0" stroke-width="2" d="M676.18,-324C676.18,-324 639.18,-324 639.18,-324 633.18,-324 627.18,-318 627.18,-312 627.18,-312 627.18,-300 627.18,-300 627.18,-294 633.18,-288 639.18,-288 639.18,-288 676.18,-288 676.18,-288 682.18,-288 688.18,-294 688.18,-300 688.18,-300 688.18,-312 688.18,-312 688.18,-318 682.18,-324 676.18,-324"/>
<text xml:space="preserve" text-anchor="middle" x="657.68" y="-302.12" font-family="sans" font-size="10.00">cnvkit_vcf</text>
</g>
<!-- 1&#45;&gt;6 -->
<g id="edge29" class="edge">
<title>1&#45;&gt;6</title>
<path fill="none" stroke="grey" stroke-width="2" d="M781.73,-362.67C758.34,-352.17 726.33,-337.81 700.69,-326.3"/>
<polygon fill="grey" stroke="grey" stroke-width="2" points="702.37,-323.22 691.81,-322.32 699.5,-329.6 702.37,-323.22"/>
</g>
<!-- 2 -->
<g id="node3" class="node">
<title>2</title>
<path fill="none" stroke="#c6d856" stroke-width="2" d="M927.43,-468C927.43,-468 879.93,-468 879.93,-468 873.93,-468 867.93,-462 867.93,-456 867.93,-456 867.93,-444 867.93,-444 867.93,-438 873.93,-432 879.93,-432 879.93,-432 927.43,-432 927.43,-432 933.43,-432 939.43,-438 939.43,-444 939.43,-444 939.43,-456 939.43,-456 939.43,-462 933.43,-468 927.43,-468"/>
<text xml:space="preserve" text-anchor="middle" x="903.68" y="-446.12" font-family="sans" font-size="10.00">cnvkit_batch</text>
</g>
<!-- 2&#45;&gt;1 -->
<g id="edge18" class="edge">
<title>2&#45;&gt;1</title>
<path fill="none" stroke="grey" stroke-width="2" d="M880.97,-431.34C870.6,-423.27 858.12,-413.57 846.74,-404.72"/>
<polygon fill="grey" stroke="grey" stroke-width="2" points="849.13,-402.14 839.08,-398.76 844.83,-407.66 849.13,-402.14"/>
</g>
<!-- 3 -->
<g id="node4" class="node">
<title>3</title>
<path fill="none" stroke="#8fd856" stroke-width="2" d="M932.68,-396C932.68,-396 874.68,-396 874.68,-396 868.68,-396 862.68,-390 862.68,-384 862.68,-384 862.68,-372 862.68,-372 862.68,-366 868.68,-360 874.68,-360 874.68,-360 932.68,-360 932.68,-360 938.68,-360 944.68,-366 944.68,-372 944.68,-372 944.68,-384 944.68,-384 944.68,-390 938.68,-396 932.68,-396"/>
<text xml:space="preserve" text-anchor="middle" x="903.68" y="-374.12" font-family="sans" font-size="10.00">cnvkit_diagram</text>
</g>
<!-- 2&#45;&gt;3 -->
<g id="edge19" class="edge">
<title>2&#45;&gt;3</title>
<path fill="none" stroke="grey" stroke-width="2" d="M903.68,-431.34C903.68,-424.75 903.68,-417.08 903.68,-409.67"/>
<polygon fill="grey" stroke="grey" stroke-width="2" points="907.18,-409.93 903.68,-399.93 900.18,-409.93 907.18,-409.93"/>
</g>
<!-- 4 -->
<g id="node5" class="node">
<title>4</title>
<path fill="none" stroke="#d8c356" stroke-width="2" d="M999.43,-252C999.43,-252 945.93,-252 945.93,-252 939.93,-252 933.93,-246 933.93,-240 933.93,-240 933.93,-228 933.93,-228 933.93,-222 939.93,-216 945.93,-216 945.93,-216 999.43,-216 999.43,-216 1005.43,-216 1011.43,-222 1011.43,-228 1011.43,-228 1011.43,-240 1011.43,-240 1011.43,-246 1005.43,-252 999.43,-252"/>
<text xml:space="preserve" text-anchor="middle" x="972.68" y="-230.12" font-family="sans" font-size="10.00">cnvkit_scatter</text>
</g>
<!-- 2&#45;&gt;4 -->
<g id="edge20" class="edge">
<title>2&#45;&gt;4</title>
<path fill="none" stroke="grey" stroke-width="2" d="M926.1,-431.19C936.25,-421.84 947.36,-409.52 953.68,-396 973.35,-353.86 975.55,-299.05 974.63,-265.47"/>
<polygon fill="grey" stroke="grey" stroke-width="2" points="978.14,-265.77 974.23,-255.92 971.15,-266.06 978.14,-265.77"/>
</g>
<!-- 3&#45;&gt;0 -->
<g id="edge9" class="edge">
<title>3&#45;&gt;0</title>
<path fill="none" stroke="grey" stroke-width="2" d="M903.88,-359.07C904.18,-332.13 904.68,-279.62 904.68,-235 904.68,-235 904.68,-235 904.68,-161 904.68,-114.6 939.85,-71.57 966.94,-45.31"/>
<polygon fill="grey" stroke="grey" stroke-width="2" points="968.98,-48.19 973.9,-38.81 964.2,-43.07 968.98,-48.19"/>
</g>
<!-- 4&#45;&gt;0 -->
<g id="edge15" class="edge">
<title>4&#45;&gt;0</title>
<path fill="none" stroke="grey" stroke-width="2" d="M967.35,-215.13C959.25,-184.9 946.28,-122.08 961.68,-72 964.36,-63.29 969.01,-54.72 974.1,-47.1"/>
<polygon fill="grey" stroke="grey" stroke-width="2" points="976.84,-49.29 979.91,-39.15 971.18,-45.16 976.84,-49.29"/>
</g>
<!-- 5 -->
<g id="node6" class="node">
<title>5</title>
<path fill="none" stroke="#56d892" stroke-width="2" d="M535.68,-108C535.68,-108 505.68,-108 505.68,-108 499.68,-108 493.68,-102 493.68,-96 493.68,-96 493.68,-84 493.68,-84 493.68,-78 499.68,-72 505.68,-72 505.68,-72 535.68,-72 535.68,-72 541.68,-72 547.68,-78 547.68,-84 547.68,-84 547.68,-96 547.68,-96 547.68,-102 541.68,-108 535.68,-108"/>
<text xml:space="preserve" text-anchor="middle" x="520.68" y="-86.12" font-family="sans" font-size="10.00">bgzip</text>
</g>
<!-- 5&#45;&gt;0 -->
<g id="edge8" class="edge">
<title>5&#45;&gt;0</title>
<path fill="none" stroke="grey" stroke-width="2" d="M548.38,-84.93C628.82,-73.13 862.64,-38.82 957.24,-24.93"/>
<polygon fill="grey" stroke="grey" stroke-width="2" points="957.51,-28.43 966.9,-23.52 956.5,-21.51 957.51,-28.43"/>
</g>
<!-- 6&#45;&gt;5 -->
<g id="edge26" class="edge">
<title>6&#45;&gt;5</title>
<path fill="none" stroke="grey" stroke-width="2" d="M649.01,-287.44C633.75,-257.15 600.43,-193.55 565.68,-144 559.7,-135.48 552.65,-126.69 545.92,-118.77"/>
<polygon fill="grey" stroke="grey" stroke-width="2" points="548.57,-116.49 539.37,-111.25 543.3,-121.09 548.57,-116.49"/>
</g>
<!-- 15 -->
<g id="node19" class="node">
<title>15</title>
<path fill="none" stroke="#d87d56" stroke-width="2" d="M531.3,-252C531.3,-252 486.05,-252 486.05,-252 480.05,-252 474.05,-246 474.05,-240 474.05,-240 474.05,-228 474.05,-228 474.05,-222 480.05,-216 486.05,-216 486.05,-216 531.3,-216 531.3,-216 537.3,-216 543.3,-222 543.3,-228 543.3,-228 543.3,-240 543.3,-240 543.3,-246 537.3,-252 531.3,-252"/>
<text xml:space="preserve" text-anchor="middle" x="508.68" y="-230.12" font-family="sans" font-size="10.00">svdb_merge</text>
</g>
<!-- 6&#45;&gt;15 -->
<g id="edge35" class="edge">
<title>6&#45;&gt;15</title>
<path fill="none" stroke="grey" stroke-width="2" d="M626.44,-290.33C605.95,-280.7 578.77,-267.93 555.69,-257.09"/>
<polygon fill="grey" stroke="grey" stroke-width="2" points="557.33,-253.99 546.79,-252.91 554.35,-260.33 557.33,-253.99"/>
</g>
<!-- 7 -->
<g id="node8" class="node">
<title>7</title>
<path fill="none" stroke="#d89556" stroke-width="2" d="M278.43,-180C278.43,-180 224.93,-180 224.93,-180 218.93,-180 212.93,-174 212.93,-168 212.93,-168 212.93,-156 212.93,-156 212.93,-150 218.93,-144 224.93,-144 224.93,-144 278.43,-144 278.43,-144 284.43,-144 290.43,-150 290.43,-156 290.43,-156 290.43,-168 290.43,-168 290.43,-174 284.43,-180 278.43,-180"/>
<text xml:space="preserve" text-anchor="middle" x="251.68" y="-158.12" font-family="sans" font-size="10.00">cnvpytor_filter</text>
</g>
<!-- 7&#45;&gt;5 -->
<g id="edge25" class="edge">
<title>7&#45;&gt;5</title>
<path fill="none" stroke="grey" stroke-width="2" d="M291.38,-146.58C294.18,-145.67 296.97,-144.8 299.68,-144 362.04,-125.53 435.72,-108.87 480.29,-99.35"/>
<polygon fill="grey" stroke="grey" stroke-width="2" points="480.85,-102.81 489.91,-97.31 479.4,-95.96 480.85,-102.81"/>
</g>
<!-- 8 -->
<g id="node9" class="node">
<title>8</title>
<path fill="none" stroke="#a7d856" stroke-width="2" d="M263.43,-252C263.43,-252 185.93,-252 185.93,-252 179.93,-252 173.93,-246 173.93,-240 173.93,-240 173.93,-228 173.93,-228 173.93,-222 179.93,-216 185.93,-216 185.93,-216 263.43,-216 263.43,-216 269.43,-216 275.43,-222 275.43,-228 275.43,-228 275.43,-240 275.43,-240 275.43,-246 269.43,-252 263.43,-252"/>
<text xml:space="preserve" text-anchor="middle" x="224.68" y="-230.12" font-family="sans" font-size="10.00">cnvpytor_readdepth</text>
</g>
<!-- 8&#45;&gt;7 -->
<g id="edge30" class="edge">
<title>8&#45;&gt;7</title>
<path fill="none" stroke="grey" stroke-width="2" d="M231.49,-215.34C234.12,-208.51 237.21,-200.5 240.17,-192.83"/>
<polygon fill="grey" stroke="grey" stroke-width="2" points="243.35,-194.32 243.68,-183.73 236.82,-191.8 243.35,-194.32"/>
</g>
<!-- 9 -->
<g id="node10" class="node">
<title>9</title>
<path fill="none" stroke="#d8cb56" stroke-width="2" d="M117.3,-252C117.3,-252 54.05,-252 54.05,-252 48.05,-252 42.05,-246 42.05,-240 42.05,-240 42.05,-228 42.05,-228 42.05,-222 48.05,-216 54.05,-216 54.05,-216 117.3,-216 117.3,-216 123.3,-216 129.3,-222 129.3,-228 129.3,-228 129.3,-240 129.3,-240 129.3,-246 123.3,-252 117.3,-252"/>
<text xml:space="preserve" text-anchor="middle" x="85.68" y="-230.12" font-family="sans" font-size="10.00">expansionhunter</text>
</g>
<!-- 9&#45;&gt;5 -->
<g id="edge28" class="edge">
<title>9&#45;&gt;5</title>
<path fill="none" stroke="grey" stroke-width="2" d="M115.41,-215.04C130.85,-205.28 149.77,-192.65 165.68,-180 183.89,-165.52 182.85,-154.37 203.68,-144 294.88,-98.58 417.26,-90.99 479.94,-90.37"/>
<polygon fill="grey" stroke="grey" stroke-width="2" points="479.72,-93.87 489.71,-90.34 479.7,-86.87 479.72,-93.87"/>
</g>
<!-- 23 -->
<g id="node27" class="node">
<title>23</title>
<path fill="none" stroke="#d6d856" stroke-width="2" d="M100.68,-108C100.68,-108 70.68,-108 70.68,-108 64.68,-108 58.68,-102 58.68,-96 58.68,-96 58.68,-84 58.68,-84 58.68,-78 64.68,-72 70.68,-72 70.68,-72 100.68,-72 100.68,-72 106.68,-72 112.68,-78 112.68,-84 112.68,-84 112.68,-96 112.68,-96 112.68,-102 106.68,-108 100.68,-108"/>
<text xml:space="preserve" text-anchor="middle" x="85.68" y="-86.12" font-family="sans" font-size="10.00">reviewer</text>
</g>
<!-- 9&#45;&gt;23 -->
<g id="edge42" class="edge">
<title>9&#45;&gt;23</title>
<path fill="none" stroke="grey" stroke-width="2" d="M42.81,-215.04C28.33,-206.65 13.8,-195.12 5.68,-180 -1.89,-165.9 -1.89,-158.1 5.68,-144 14.41,-127.74 30.56,-115.63 46.08,-107.12"/>
<polygon fill="grey" stroke="grey" stroke-width="2" points="47.61,-110.27 54.98,-102.66 44.47,-104.01 47.61,-110.27"/>
</g>
<!-- 24 -->
<g id="node28" class="node">
<title>24</title>
<path fill="none" stroke="#567bd8" stroke-width="2" d="M144.68,-180C144.68,-180 26.68,-180 26.68,-180 20.68,-180 14.68,-174 14.68,-168 14.68,-168 14.68,-156 14.68,-156 14.68,-150 20.68,-144 26.68,-144 26.68,-144 144.68,-144 144.68,-144 150.68,-144 156.68,-150 156.68,-156 156.68,-156 156.68,-168 156.68,-168 156.68,-174 150.68,-180 144.68,-180"/>
<text xml:space="preserve" text-anchor="middle" x="85.68" y="-158.12" font-family="sans" font-size="10.00">reviewer_generate_locus_list</text>
</g>
<!-- 9&#45;&gt;24 -->
<g id="edge44" class="edge">
<title>9&#45;&gt;24</title>
<path fill="none" stroke="grey" stroke-width="2" d="M85.68,-215.34C85.68,-208.75 85.68,-201.08 85.68,-193.67"/>
<polygon fill="grey" stroke="grey" stroke-width="2" points="89.18,-193.93 85.68,-183.93 82.18,-193.93 89.18,-193.93"/>
</g>
<!-- 10 -->
<g id="node11" class="node">
<title>10</title>
<path fill="none" stroke="#78d856" stroke-width="2" d="M597.18,-324C597.18,-324 554.18,-324 554.18,-324 548.18,-324 542.18,-318 542.18,-312 542.18,-312 542.18,-300 542.18,-300 542.18,-294 548.18,-288 554.18,-288 554.18,-288 597.18,-288 597.18,-288 603.18,-288 609.18,-294 609.18,-300 609.18,-300 609.18,-312 609.18,-312 609.18,-318 603.18,-324 597.18,-324"/>
<text xml:space="preserve" text-anchor="middle" x="575.68" y="-302.12" font-family="sans" font-size="10.00">gatk_to_vcf</text>
</g>
<!-- 10&#45;&gt;5 -->
<g id="edge24" class="edge">
<title>10&#45;&gt;5</title>
<path fill="none" stroke="grey" stroke-width="2" d="M574.1,-287.21C571.08,-257.11 563.24,-194.46 546.68,-144 544.07,-136.04 540.47,-127.77 536.79,-120.19"/>
<polygon fill="grey" stroke="grey" stroke-width="2" points="539.92,-118.62 532.25,-111.32 533.7,-121.82 539.92,-118.62"/>
</g>
<!-- 10&#45;&gt;15 -->
<g id="edge37" class="edge">
<title>10&#45;&gt;15</title>
<path fill="none" stroke="grey" stroke-width="2" d="M558.77,-287.34C551.45,-279.69 542.71,-270.56 534.6,-262.08"/>
<polygon fill="grey" stroke="grey" stroke-width="2" points="537.35,-259.89 527.91,-255.09 532.29,-264.73 537.35,-259.89"/>
</g>
<!-- 11 -->
<g id="node12" class="node">
<title>11</title>
<path fill="none" stroke="#61d856" stroke-width="2" d="M631.8,-396C631.8,-396 541.55,-396 541.55,-396 535.55,-396 529.55,-390 529.55,-384 529.55,-384 529.55,-372 529.55,-372 529.55,-366 535.55,-360 541.55,-360 541.55,-360 631.8,-360 631.8,-360 637.8,-360 643.8,-366 643.8,-372 643.8,-372 643.8,-384 643.8,-384 643.8,-390 637.8,-396 631.8,-396"/>
<text xml:space="preserve" text-anchor="middle" x="586.68" y="-374.12" font-family="sans" font-size="10.00">gatk_model_segments</text>
</g>
<!-- 11&#45;&gt;10 -->
<g id="edge31" class="edge">
<title>11&#45;&gt;10</title>
<path fill="none" stroke="grey" stroke-width="2" d="M583.9,-359.34C582.87,-352.75 581.66,-345.08 580.5,-337.67"/>
<polygon fill="grey" stroke="grey" stroke-width="2" points="583.97,-337.23 578.96,-327.89 577.06,-338.31 583.97,-337.23"/>
</g>
<!-- 12 -->
<g id="node13" class="node">
<title>12</title>
<path fill="none" stroke="#88d856" stroke-width="2" d="M792.18,-468C792.18,-468 683.18,-468 683.18,-468 677.18,-468 671.18,-462 671.18,-456 671.18,-456 671.18,-444 671.18,-444 671.18,-438 677.18,-432 683.18,-432 683.18,-432 792.18,-432 792.18,-432 798.18,-432 804.18,-438 804.18,-444 804.18,-444 804.18,-456 804.18,-456 804.18,-462 798.18,-468 792.18,-468"/>
<text xml:space="preserve" text-anchor="middle" x="737.68" y="-446.12" font-family="sans" font-size="10.00">gatk_collect_allelic_counts</text>
</g>
<!-- 12&#45;&gt;11 -->
<g id="edge33" class="edge">
<title>12&#45;&gt;11</title>
<path fill="none" stroke="grey" stroke-width="2" d="M699.18,-431.15C680.27,-422.38 657.23,-411.71 636.94,-402.3"/>
<polygon fill="grey" stroke="grey" stroke-width="2" points="638.65,-399.24 628.11,-398.21 635.71,-405.59 638.65,-399.24"/>
</g>
<!-- 13 -->
<g id="node14" class="node">
<title>13</title>
<path fill="none" stroke="#56d89a" stroke-width="2" d="M640.8,-468C640.8,-468 532.55,-468 532.55,-468 526.55,-468 520.55,-462 520.55,-456 520.55,-456 520.55,-444 520.55,-444 520.55,-438 526.55,-432 532.55,-432 532.55,-432 640.8,-432 640.8,-432 646.8,-432 652.8,-438 652.8,-444 652.8,-444 652.8,-456 652.8,-456 652.8,-462 646.8,-468 640.8,-468"/>
<text xml:space="preserve" text-anchor="middle" x="586.68" y="-446.12" font-family="sans" font-size="10.00">gatk_denoise_read_counts</text>
</g>
<!-- 13&#45;&gt;11 -->
<g id="edge32" class="edge">
<title>13&#45;&gt;11</title>
<path fill="none" stroke="grey" stroke-width="2" d="M586.68,-431.34C586.68,-424.75 586.68,-417.08 586.68,-409.67"/>
<polygon fill="grey" stroke="grey" stroke-width="2" points="590.18,-409.93 586.68,-399.93 583.18,-409.93 590.18,-409.93"/>
</g>
<!-- 14 -->
<g id="node15" class="node">
<title>14</title>
<path fill="none" stroke="#56b9d8" stroke-width="2" d="M649.18,-540C649.18,-540 546.18,-540 546.18,-540 540.18,-540 534.18,-534 534.18,-528 534.18,-528 534.18,-516 534.18,-516 534.18,-510 540.18,-504 546.18,-504 546.18,-504 649.18,-504 649.18,-504 655.18,-504 661.18,-510 661.18,-516 661.18,-516 661.18,-528 661.18,-528 661.18,-534 655.18,-540 649.18,-540"/>
<text xml:space="preserve" text-anchor="middle" x="597.68" y="-518.12" font-family="sans" font-size="10.00">gatk_collect_read_counts</text>
</g>
<!-- 14&#45;&gt;13 -->
<g id="edge34" class="edge">
<title>14&#45;&gt;13</title>
<path fill="none" stroke="grey" stroke-width="2" d="M594.9,-503.34C593.87,-496.75 592.66,-489.08 591.5,-481.67"/>
<polygon fill="grey" stroke="grey" stroke-width="2" points="594.97,-481.23 589.96,-471.89 588.06,-482.31 594.97,-481.23"/>
</g>
<!-- 35 -->
<g id="node16" class="node">
<title>35</title>
<path fill="none" stroke="#56b9d8" stroke-width="2" d="M399.3,-468C399.3,-468 360.05,-468 360.05,-468 354.05,-468 348.05,-462 348.05,-456 348.05,-456 348.05,-444 348.05,-444 348.05,-438 354.05,-432 360.05,-432 360.05,-432 399.3,-432 399.3,-432 405.3,-432 411.3,-438 411.3,-444 411.3,-444 411.3,-456 411.3,-456 411.3,-462 405.3,-468 399.3,-468"/>
<text xml:space="preserve" text-anchor="middle" x="379.68" y="-446.12" font-family="sans" font-size="10.00">jumble_run</text>
</g>
<!-- 36 -->
<g id="node17" class="node">
<title>36</title>
<path fill="none" stroke="#56b9d8" stroke-width="2" d="M415.8,-396C415.8,-396 343.55,-396 343.55,-396 337.55,-396 331.55,-390 331.55,-384 331.55,-384 331.55,-372 331.55,-372 331.55,-366 337.55,-360 343.55,-360 343.55,-360 415.8,-360 415.8,-360 421.8,-360 427.8,-366 427.8,-372 427.8,-372 427.8,-384 427.8,-384 427.8,-390 421.8,-396 415.8,-396"/>
<text xml:space="preserve" text-anchor="middle" x="379.68" y="-374.12" font-family="sans" font-size="10.00">jumble_cnvkit_call</text>
</g>
<!-- 35&#45;&gt;36 -->
<g id="edge1" class="edge">
<title>35&#45;&gt;36</title>
<path fill="none" stroke="grey" stroke-width="2" d="M379.68,-431.34C379.68,-424.75 379.68,-417.08 379.68,-409.67"/>
<polygon fill="grey" stroke="grey" stroke-width="2" points="383.18,-409.93 379.68,-399.93 376.18,-409.93 383.18,-409.93"/>
</g>
<!-- 37 -->
<g id="node18" class="node">
<title>37</title>
<path fill="none" stroke="#56b9d8" stroke-width="2" d="M399.3,-324C399.3,-324 360.05,-324 360.05,-324 354.05,-324 348.05,-318 348.05,-312 348.05,-312 348.05,-300 348.05,-300 348.05,-294 354.05,-288 360.05,-288 360.05,-288 399.3,-288 399.3,-288 405.3,-288 411.3,-294 411.3,-300 411.3,-300 411.3,-312 411.3,-312 411.3,-318 405.3,-324 399.3,-324"/>
<text xml:space="preserve" text-anchor="middle" x="379.68" y="-302.12" font-family="sans" font-size="10.00">jumble_vcf</text>
</g>
<!-- 36&#45;&gt;37 -->
<g id="edge2" class="edge">
<title>36&#45;&gt;37</title>
<path fill="none" stroke="grey" stroke-width="2" d="M379.68,-359.34C379.68,-352.75 379.68,-345.08 379.68,-337.67"/>
<polygon fill="grey" stroke="grey" stroke-width="2" points="383.18,-337.93 379.68,-327.93 376.18,-337.93 383.18,-337.93"/>
</g>
<!-- 37&#45;&gt;5 -->
<g id="edge4" class="edge">
<title>37&#45;&gt;5</title>
<path fill="none" stroke="grey" stroke-width="2" d="M381.78,-287.16C386.32,-255.3 399.66,-187.85 434.68,-144 446.92,-128.67 464.88,-116.62 481.23,-107.91"/>
<polygon fill="grey" stroke="grey" stroke-width="2" points="482.65,-111.11 490.03,-103.51 479.52,-104.85 482.65,-111.11"/>
</g>
<!-- 37&#45;&gt;15 -->
<g id="edge3" class="edge">
<title>37&#45;&gt;15</title>
<path fill="none" stroke="grey" stroke-width="2" d="M412.23,-287.34C428,-278.78 447.17,-268.37 464.26,-259.1"/>
<polygon fill="grey" stroke="grey" stroke-width="2" points="465.91,-262.19 473.03,-254.35 462.57,-256.04 465.91,-262.19"/>
</g>
<!-- 15&#45;&gt;5 -->
<g id="edge23" class="edge">
<title>15&#45;&gt;5</title>
<path fill="none" stroke="grey" stroke-width="2" d="M518.46,-215.45C523.5,-205.41 529.11,-192.37 531.68,-180 535.69,-160.66 533.03,-138.63 529.31,-121.33"/>
<polygon fill="grey" stroke="grey" stroke-width="2" points="532.77,-120.71 527.01,-111.81 525.96,-122.36 532.77,-120.71"/>
</g>
<!-- 20 -->
<g id="node24" class="node">
<title>20</title>
<path fill="none" stroke="#d85e56" stroke-width="2" d="M510.8,-180C510.8,-180 468.55,-180 468.55,-180 462.55,-180 456.55,-174 456.55,-168 456.55,-168 456.55,-156 456.55,-156 456.55,-150 462.55,-144 468.55,-144 468.55,-144 510.8,-144 510.8,-144 516.8,-144 522.8,-150 522.8,-156 522.8,-156 522.8,-168 522.8,-168 522.8,-174 516.8,-180 510.8,-180"/>
<text xml:space="preserve" text-anchor="middle" x="489.68" y="-158.12" font-family="sans" font-size="10.00">svdb_query</text>
</g>
<!-- 15&#45;&gt;20 -->
<g id="edge41" class="edge">
<title>15&#45;&gt;20</title>
<path fill="none" stroke="grey" stroke-width="2" d="M503.88,-215.34C502.07,-208.67 499.96,-200.89 497.93,-193.39"/>
<polygon fill="grey" stroke="grey" stroke-width="2" points="501.33,-192.56 495.33,-183.82 494.57,-194.39 501.33,-192.56"/>
</g>
<!-- 16 -->
<g id="node20" class="node">
<title>16</title>
<path fill="none" stroke="#566bd8" stroke-width="2" d="M512.05,-324C512.05,-324 441.3,-324 441.3,-324 435.3,-324 429.3,-318 429.3,-312 429.3,-312 429.3,-300 429.3,-300 429.3,-294 435.3,-288 441.3,-288 441.3,-288 512.05,-288 512.05,-288 518.05,-288 524.05,-294 524.05,-300 524.05,-300 524.05,-312 524.05,-312 524.05,-318 518.05,-324 512.05,-324"/>
<text xml:space="preserve" text-anchor="middle" x="476.68" y="-302.12" font-family="sans" font-size="10.00">pindel_update_vcf</text>
</g>
<!-- 16&#45;&gt;5 -->
<g id="edge27" class="edge">
<title>16&#45;&gt;5</title>
<path fill="none" stroke="grey" stroke-width="2" d="M466.49,-287.03C450.44,-256.1 423.43,-191.57 447.68,-144 455.07,-129.5 468.49,-118.04 481.82,-109.54"/>
<polygon fill="grey" stroke="grey" stroke-width="2" points="483.38,-112.68 490.25,-104.62 479.85,-106.64 483.38,-112.68"/>
</g>
<!-- 16&#45;&gt;15 -->
<g id="edge36" class="edge">
<title>16&#45;&gt;15</title>
<path fill="none" stroke="grey" stroke-width="2" d="M484.75,-287.34C487.91,-280.43 491.62,-272.31 495.17,-264.56"/>
<polygon fill="grey" stroke="grey" stroke-width="2" points="498.26,-266.2 499.24,-255.65 491.89,-263.29 498.26,-266.2"/>
</g>
<!-- 17 -->
<g id="node21" class="node">
<title>17</title>
<path fill="none" stroke="#d87556" stroke-width="2" d="M493.8,-396C493.8,-396 457.55,-396 457.55,-396 451.55,-396 445.55,-390 445.55,-384 445.55,-384 445.55,-372 445.55,-372 445.55,-366 451.55,-360 457.55,-360 457.55,-360 493.8,-360 493.8,-360 499.8,-360 505.8,-366 505.8,-372 505.8,-372 505.8,-384 505.8,-384 505.8,-390 499.8,-396 493.8,-396"/>
<text xml:space="preserve" text-anchor="middle" x="475.68" y="-374.12" font-family="sans" font-size="10.00">pindel2vcf</text>
</g>
<!-- 17&#45;&gt;16 -->
<g id="edge38" class="edge">
<title>17&#45;&gt;16</title>
<path fill="none" stroke="grey" stroke-width="2" d="M475.93,-359.34C476.02,-352.75 476.13,-345.08 476.24,-337.67"/>
<polygon fill="grey" stroke="grey" stroke-width="2" points="479.74,-337.98 476.38,-327.93 472.74,-337.88 479.74,-337.98"/>
</g>
<!-- 18 -->
<g id="node22" class="node">
<title>18</title>
<path fill="none" stroke="#5663d8" stroke-width="2" d="M488.55,-468C488.55,-468 450.8,-468 450.8,-468 444.8,-468 438.8,-462 438.8,-456 438.8,-456 438.8,-444 438.8,-444 438.8,-438 444.8,-432 450.8,-432 450.8,-432 488.55,-432 488.55,-432 494.55,-432 500.55,-438 500.55,-444 500.55,-444 500.55,-456 500.55,-456 500.55,-462 494.55,-468 488.55,-468"/>
<text xml:space="preserve" text-anchor="middle" x="469.68" y="-446.12" font-family="sans" font-size="10.00">pindel_call</text>
</g>
<!-- 18&#45;&gt;17 -->
<g id="edge39" class="edge">
<title>18&#45;&gt;17</title>
<path fill="none" stroke="grey" stroke-width="2" d="M471.19,-431.34C471.76,-424.75 472.41,-417.08 473.05,-409.67"/>
<polygon fill="grey" stroke="grey" stroke-width="2" points="476.52,-410.18 473.88,-399.92 469.54,-409.58 476.52,-410.18"/>
</g>
<!-- 19 -->
<g id="node23" class="node">
<title>19</title>
<path fill="none" stroke="#569ad8" stroke-width="2" d="M504.55,-540C504.55,-540 412.8,-540 412.8,-540 406.8,-540 400.8,-534 400.8,-528 400.8,-528 400.8,-516 400.8,-516 400.8,-510 406.8,-504 412.8,-504 412.8,-504 504.55,-504 504.55,-504 510.55,-504 516.55,-510 516.55,-516 516.55,-516 516.55,-528 516.55,-528 516.55,-534 510.55,-540 504.55,-540"/>
<text xml:space="preserve" text-anchor="middle" x="458.68" y="-518.12" font-family="sans" font-size="10.00">pindel_generate_config</text>
</g>
<!-- 19&#45;&gt;18 -->
<g id="edge40" class="edge">
<title>19&#45;&gt;18</title>
<path fill="none" stroke="grey" stroke-width="2" d="M461.45,-503.34C462.49,-496.75 463.69,-489.08 464.86,-481.67"/>
<polygon fill="grey" stroke="grey" stroke-width="2" points="468.3,-482.31 466.39,-471.89 461.38,-481.23 468.3,-482.31"/>
</g>
<!-- 20&#45;&gt;5 -->
<g id="edge21" class="edge">
<title>20&#45;&gt;5</title>
<path fill="none" stroke="grey" stroke-width="2" d="M497.5,-143.34C500.56,-136.43 504.16,-128.31 507.59,-120.56"/>
<polygon fill="grey" stroke="grey" stroke-width="2" points="510.67,-122.23 511.52,-111.67 504.27,-119.4 510.67,-122.23"/>
</g>
<!-- 21 -->
<g id="node25" class="node">
<title>21</title>
<path fill="none" stroke="#d89c56" stroke-width="2" d="M1687.8,-180C1687.8,-180 1621.55,-180 1621.55,-180 1615.55,-180 1609.55,-174 1609.55,-168 1609.55,-168 1609.55,-156 1609.55,-156 1609.55,-150 1615.55,-144 1621.55,-144 1621.55,-144 1687.8,-144 1687.8,-144 1693.8,-144 1699.8,-150 1699.8,-156 1699.8,-156 1699.8,-168 1699.8,-168 1699.8,-174 1693.8,-180 1687.8,-180"/>
<text xml:space="preserve" text-anchor="middle" x="1654.68" y="-158.12" font-family="sans" font-size="10.00">exomedepth_sex</text>
</g>
<!-- 34 -->
<g id="node38" class="node">
<title>34</title>
<path fill="none" stroke="#56d8b9" stroke-width="2" d="M1687.43,-108C1687.43,-108 1621.93,-108 1621.93,-108 1615.93,-108 1609.93,-102 1609.93,-96 1609.93,-96 1609.93,-84 1609.93,-84 1609.93,-78 1615.93,-72 1621.93,-72 1621.93,-72 1687.43,-72 1687.43,-72 1693.43,-72 1699.43,-78 1699.43,-84 1699.43,-84 1699.43,-96 1699.43,-96 1699.43,-102 1693.43,-108 1687.43,-108"/>
<text xml:space="preserve" text-anchor="middle" x="1654.68" y="-86.12" font-family="sans" font-size="10.00">exomedepth_call</text>
</g>
<!-- 21&#45;&gt;34 -->
<g id="edge48" class="edge">
<title>21&#45;&gt;34</title>
<path fill="none" stroke="grey" stroke-width="2" d="M1654.68,-143.34C1654.68,-136.75 1654.68,-129.08 1654.68,-121.67"/>
<polygon fill="grey" stroke="grey" stroke-width="2" points="1658.18,-121.93 1654.68,-111.93 1651.18,-121.93 1658.18,-121.93"/>
</g>
<!-- 22 -->
<g id="node26" class="node">
<title>22</title>
<path fill="none" stroke="#56d88a" stroke-width="2" d="M696.68,-180C696.68,-180 666.68,-180 666.68,-180 660.68,-180 654.68,-174 654.68,-168 654.68,-168 654.68,-156 654.68,-156 654.68,-150 660.68,-144 666.68,-144 666.68,-144 696.68,-144 696.68,-144 702.68,-144 708.68,-150 708.68,-156 708.68,-156 708.68,-168 708.68,-168 708.68,-174 702.68,-180 696.68,-180"/>
<text xml:space="preserve" text-anchor="middle" x="681.68" y="-158.12" font-family="sans" font-size="10.00">tiddit</text>
</g>
<!-- 22&#45;&gt;5 -->
<g id="edge22" class="edge">
<title>22&#45;&gt;5</title>
<path fill="none" stroke="grey" stroke-width="2" d="M654,-148.97C628.2,-137.75 589.43,-120.89 560.34,-108.24"/>
<polygon fill="grey" stroke="grey" stroke-width="2" points="561.87,-105.1 551.31,-104.32 559.08,-111.51 561.87,-105.1"/>
</g>
<!-- 23&#45;&gt;0 -->
<g id="edge16" class="edge">
<title>23&#45;&gt;0</title>
<path fill="none" stroke="grey" stroke-width="2" d="M113.47,-86.87C244.59,-76.8 801.5,-34.06 957.13,-22.11"/>
<polygon fill="grey" stroke="grey" stroke-width="2" points="957.38,-25.6 967.08,-21.35 956.85,-18.62 957.38,-25.6"/>
</g>
<!-- 24&#45;&gt;23 -->
<g id="edge43" class="edge">
<title>24&#45;&gt;23</title>
<path fill="none" stroke="grey" stroke-width="2" d="M85.68,-143.34C85.68,-136.75 85.68,-129.08 85.68,-121.67"/>
<polygon fill="grey" stroke="grey" stroke-width="2" points="89.18,-121.93 85.68,-111.93 82.18,-121.93 89.18,-121.93"/>
</g>
<!-- 25 -->
<g id="node29" class="node">
<title>25</title>
<path fill="none" stroke="#80d856" stroke-width="2" d="M1012.68,-108C1012.68,-108 982.68,-108 982.68,-108 976.68,-108 970.68,-102 970.68,-96 970.68,-96 970.68,-84 970.68,-84 970.68,-78 976.68,-72 982.68,-72 982.68,-72 1012.68,-72 1012.68,-72 1018.68,-72 1024.68,-78 1024.68,-84 1024.68,-84 1024.68,-96 1024.68,-96 1024.68,-102 1018.68,-108 1012.68,-108"/>
<text xml:space="preserve" text-anchor="middle" x="997.68" y="-86.12" font-family="sans" font-size="10.00">automap</text>
</g>
<!-- 25&#45;&gt;0 -->
<g id="edge11" class="edge">
<title>25&#45;&gt;0</title>
<path fill="none" stroke="grey" stroke-width="2" d="M997.68,-71.34C997.68,-64.75 997.68,-57.08 997.68,-49.67"/>
<polygon fill="grey" stroke="grey" stroke-width="2" points="1001.18,-49.93 997.68,-39.93 994.18,-49.93 1001.18,-49.93"/>
</g>
<!-- 26 -->
<g id="node30" class="node">
<title>26</title>
<path fill="none" stroke="#56d8b1" stroke-width="2" d="M1150.43,-108C1150.43,-108 1054.93,-108 1054.93,-108 1048.93,-108 1042.93,-102 1042.93,-96 1042.93,-96 1042.93,-84 1042.93,-84 1042.93,-78 1048.93,-72 1054.93,-72 1054.93,-72 1150.43,-72 1150.43,-72 1156.43,-72 1162.43,-78 1162.43,-84 1162.43,-84 1162.43,-96 1162.43,-96 1162.43,-102 1156.43,-108 1150.43,-108"/>
<text xml:space="preserve" text-anchor="middle" x="1102.68" y="-86.12" font-family="sans" font-size="10.00">manta_run_workflow_tn</text>
</g>
<!-- 26&#45;&gt;0 -->
<g id="edge10" class="edge">
<title>26&#45;&gt;0</title>
<path fill="none" stroke="grey" stroke-width="2" d="M1075.91,-71.15C1063.44,-62.84 1048.41,-52.82 1034.86,-43.79"/>
<polygon fill="grey" stroke="grey" stroke-width="2" points="1037.18,-41.13 1026.91,-38.49 1033.29,-46.95 1037.18,-41.13"/>
</g>
<!-- 27 -->
<g id="node31" class="node">
<title>27</title>
<path fill="none" stroke="#9fd856" stroke-width="2" d="M1134.68,-180C1134.68,-180 1070.68,-180 1070.68,-180 1064.68,-180 1058.68,-174 1058.68,-168 1058.68,-168 1058.68,-156 1058.68,-156 1058.68,-150 1064.68,-144 1070.68,-144 1070.68,-144 1134.68,-144 1134.68,-144 1140.68,-144 1146.68,-150 1146.68,-156 1146.68,-156 1146.68,-168 1146.68,-168 1146.68,-174 1140.68,-180 1134.68,-180"/>
<text xml:space="preserve" text-anchor="middle" x="1102.68" y="-158.12" font-family="sans" font-size="10.00">manta_config_tn</text>
</g>
<!-- 27&#45;&gt;26 -->
<g id="edge45" class="edge">
<title>27&#45;&gt;26</title>
<path fill="none" stroke="grey" stroke-width="2" d="M1102.68,-143.34C1102.68,-136.75 1102.68,-129.08 1102.68,-121.67"/>
<polygon fill="grey" stroke="grey" stroke-width="2" points="1106.18,-121.93 1102.68,-111.93 1099.18,-121.93 1106.18,-121.93"/>
</g>
<!-- 28 -->
<g id="node32" class="node">
<title>28</title>
<path fill="none" stroke="#56d873" stroke-width="2" d="M1282.8,-108C1282.8,-108 1192.55,-108 1192.55,-108 1186.55,-108 1180.55,-102 1180.55,-96 1180.55,-96 1180.55,-84 1180.55,-84 1180.55,-78 1186.55,-72 1192.55,-72 1192.55,-72 1282.8,-72 1282.8,-72 1288.8,-72 1294.8,-78 1294.8,-84 1294.8,-84 1294.8,-96 1294.8,-96 1294.8,-102 1288.8,-108 1282.8,-108"/>
<text xml:space="preserve" text-anchor="middle" x="1237.68" y="-86.12" font-family="sans" font-size="10.00">manta_run_workflow_t</text>
</g>
<!-- 28&#45;&gt;0 -->
<g id="edge6" class="edge">
<title>28&#45;&gt;0</title>
<path fill="none" stroke="grey" stroke-width="2" d="M1179.58,-72.05C1135.71,-59.26 1076.63,-42.03 1037.87,-30.72"/>
<polygon fill="grey" stroke="grey" stroke-width="2" points="1039.05,-27.42 1028.47,-27.98 1037.09,-34.14 1039.05,-27.42"/>
</g>
<!-- 29 -->
<g id="node33" class="node">
<title>29</title>
<path fill="none" stroke="#b6d856" stroke-width="2" d="M1267.05,-180C1267.05,-180 1208.3,-180 1208.3,-180 1202.3,-180 1196.3,-174 1196.3,-168 1196.3,-168 1196.3,-156 1196.3,-156 1196.3,-150 1202.3,-144 1208.3,-144 1208.3,-144 1267.05,-144 1267.05,-144 1273.05,-144 1279.05,-150 1279.05,-156 1279.05,-156 1279.05,-168 1279.05,-168 1279.05,-174 1273.05,-180 1267.05,-180"/>
<text xml:space="preserve" text-anchor="middle" x="1237.68" y="-158.12" font-family="sans" font-size="10.00">manta_config_t</text>
</g>
<!-- 29&#45;&gt;28 -->
<g id="edge46" class="edge">
<title>29&#45;&gt;28</title>
<path fill="none" stroke="grey" stroke-width="2" d="M1237.68,-143.34C1237.68,-136.75 1237.68,-129.08 1237.68,-121.67"/>
<polygon fill="grey" stroke="grey" stroke-width="2" points="1241.18,-121.93 1237.68,-111.93 1234.18,-121.93 1241.18,-121.93"/>
</g>
<!-- 30 -->
<g id="node34" class="node">
<title>30</title>
<path fill="none" stroke="#d86e56" stroke-width="2" d="M1416.93,-108C1416.93,-108 1324.43,-108 1324.43,-108 1318.43,-108 1312.43,-102 1312.43,-96 1312.43,-96 1312.43,-84 1312.43,-84 1312.43,-78 1318.43,-72 1324.43,-72 1324.43,-72 1416.93,-72 1416.93,-72 1422.93,-72 1428.93,-78 1428.93,-84 1428.93,-84 1428.93,-96 1428.93,-96 1428.93,-102 1422.93,-108 1416.93,-108"/>
<text xml:space="preserve" text-anchor="middle" x="1370.68" y="-86.12" font-family="sans" font-size="10.00">manta_run_workflow_n</text>
</g>
<!-- 30&#45;&gt;0 -->
<g id="edge5" class="edge">
<title>30&#45;&gt;0</title>
<path fill="none" stroke="grey" stroke-width="2" d="M1311.55,-73.73C1308.89,-73.13 1306.26,-72.55 1303.68,-72 1209.26,-51.88 1097.22,-33.98 1038.4,-25.03"/>
<polygon fill="grey" stroke="grey" stroke-width="2" points="1039.07,-21.59 1028.66,-23.56 1038.02,-28.51 1039.07,-21.59"/>
</g>
<!-- 31 -->
<g id="node35" class="node">
<title>31</title>
<path fill="none" stroke="#56d0d8" stroke-width="2" d="M1401.18,-180C1401.18,-180 1340.18,-180 1340.18,-180 1334.18,-180 1328.18,-174 1328.18,-168 1328.18,-168 1328.18,-156 1328.18,-156 1328.18,-150 1334.18,-144 1340.18,-144 1340.18,-144 1401.18,-144 1401.18,-144 1407.18,-144 1413.18,-150 1413.18,-156 1413.18,-156 1413.18,-168 1413.18,-168 1413.18,-174 1407.18,-180 1401.18,-180"/>
<text xml:space="preserve" text-anchor="middle" x="1370.68" y="-158.12" font-family="sans" font-size="10.00">manta_config_n</text>
</g>
<!-- 31&#45;&gt;30 -->
<g id="edge47" class="edge">
<title>31&#45;&gt;30</title>
<path fill="none" stroke="grey" stroke-width="2" d="M1370.68,-143.34C1370.68,-136.75 1370.68,-129.08 1370.68,-121.67"/>
<polygon fill="grey" stroke="grey" stroke-width="2" points="1374.18,-121.93 1370.68,-111.93 1367.18,-121.93 1374.18,-121.93"/>
</g>
<!-- 32 -->
<g id="node36" class="node">
<title>32</title>
<path fill="none" stroke="#68d856" stroke-width="2" d="M1503.93,-108C1503.93,-108 1459.43,-108 1459.43,-108 1453.43,-108 1447.43,-102 1447.43,-96 1447.43,-96 1447.43,-84 1447.43,-84 1447.43,-78 1453.43,-72 1459.43,-72 1459.43,-72 1503.93,-72 1503.93,-72 1509.93,-72 1515.93,-78 1515.93,-84 1515.93,-84 1515.93,-96 1515.93,-96 1515.93,-102 1509.93,-108 1503.93,-108"/>
<text xml:space="preserve" text-anchor="middle" x="1481.68" y="-86.12" font-family="sans" font-size="10.00">upd_regions</text>
</g>
<!-- 32&#45;&gt;0 -->
<g id="edge12" class="edge">
<title>32&#45;&gt;0</title>
<path fill="none" stroke="grey" stroke-width="2" d="M1446.87,-74.65C1443.79,-73.66 1440.7,-72.75 1437.68,-72 1293.53,-36.07 1116.53,-24.19 1038.23,-20.52"/>
<polygon fill="grey" stroke="grey" stroke-width="2" points="1038.82,-17.04 1028.68,-20.1 1038.51,-24.04 1038.82,-17.04"/>
</g>
<!-- 33 -->
<g id="node37" class="node">
<title>33</title>
<path fill="none" stroke="#d8bc56" stroke-width="2" d="M1579.68,-108C1579.68,-108 1545.68,-108 1545.68,-108 1539.68,-108 1533.68,-102 1533.68,-96 1533.68,-96 1533.68,-84 1533.68,-84 1533.68,-78 1539.68,-72 1545.68,-72 1545.68,-72 1579.68,-72 1579.68,-72 1585.68,-72 1591.68,-78 1591.68,-84 1591.68,-84 1591.68,-96 1591.68,-96 1591.68,-102 1585.68,-108 1579.68,-108"/>
<text xml:space="preserve" text-anchor="middle" x="1562.68" y="-86.12" font-family="sans" font-size="10.00">upd_sites</text>
</g>
<!-- 33&#45;&gt;0 -->
<g id="edge14" class="edge">
<title>33&#45;&gt;0</title>
<path fill="none" stroke="grey" stroke-width="2" d="M1532.71,-74.55C1530.03,-73.58 1527.33,-72.71 1524.68,-72 1348.22,-24.97 1128.4,-19.01 1038.68,-18.71"/>
<polygon fill="grey" stroke="grey" stroke-width="2" points="1038.7,-15.21 1028.69,-18.7 1038.69,-22.21 1038.7,-15.21"/>
</g>
<!-- 34&#45;&gt;0 -->
<g id="edge13" class="edge">
<title>34&#45;&gt;0</title>
<path fill="none" stroke="grey" stroke-width="2" d="M1609.19,-73.92C1606.33,-73.2 1603.47,-72.56 1600.68,-72 1391.98,-30.49 1136.2,-21.49 1038.36,-19.54"/>
<polygon fill="grey" stroke="grey" stroke-width="2" points="1038.72,-16.04 1028.66,-19.36 1038.59,-23.04 1038.72,-16.04"/>
</g>
<!-- 38 -->
<g id="node39" class="node">
<title>38</title>
<path fill="none" stroke="#bed856" stroke-width="2" d="M317.68,-324C317.68,-324 287.68,-324 287.68,-324 281.68,-324 275.68,-318 275.68,-312 275.68,-312 275.68,-300 275.68,-300 275.68,-294 281.68,-288 287.68,-288 287.68,-288 317.68,-288 317.68,-288 323.68,-288 329.68,-294 329.68,-300 329.68,-300 329.68,-312 329.68,-312 329.68,-318 323.68,-324 317.68,-324"/>
<text xml:space="preserve" text-anchor="middle" x="302.68" y="-302.12" font-family="sans" font-size="10.00">melt</text>
</g>
<!-- 39 -->
<g id="node40" class="node">
<title>39</title>
<path fill="none" stroke="#bed856" stroke-width="2" d="M350.3,-252C350.3,-252 305.05,-252 305.05,-252 299.05,-252 293.05,-246 293.05,-240 293.05,-240 293.05,-228 293.05,-228 293.05,-222 299.05,-216 305.05,-216 305.05,-216 350.3,-216 350.3,-216 356.3,-216 362.3,-222 362.3,-228 362.3,-228 362.3,-240 362.3,-240 362.3,-246 356.3,-252 350.3,-252"/>
<text xml:space="preserve" text-anchor="middle" x="327.68" y="-230.12" font-family="sans" font-size="10.00">melt_concat</text>
</g>
<!-- 38&#45;&gt;39 -->
<g id="edge49" class="edge">
<title>38&#45;&gt;39</title>
<path fill="none" stroke="grey" stroke-width="2" d="M308.99,-287.34C311.4,-280.59 314.22,-272.69 316.92,-265.11"/>
<polygon fill="grey" stroke="grey" stroke-width="2" points="320.2,-266.35 320.27,-255.75 313.61,-263.99 320.2,-266.35"/>
</g>
<!-- 40 -->
<g id="node41" class="node">
<title>40</title>
<path fill="none" stroke="#bed856" stroke-width="2" d="M350.68,-180C350.68,-180 320.68,-180 320.68,-180 314.68,-180 308.68,-174 308.68,-168 308.68,-168 308.68,-156 308.68,-156 308.68,-150 314.68,-144 320.68,-144 320.68,-144 350.68,-144 350.68,-144 356.68,-144 362.68,-150 362.68,-156 362.68,-156 362.68,-168 362.68,-168 362.68,-174 356.68,-180 350.68,-180"/>
<text xml:space="preserve" text-anchor="middle" x="335.68" y="-158.12" font-family="sans" font-size="10.00">melt_vcf</text>
</g>
<!-- 39&#45;&gt;40 -->
<g id="edge50" class="edge">
<title>39&#45;&gt;40</title>
<path fill="none" stroke="grey" stroke-width="2" d="M329.7,-215.34C330.45,-208.75 331.33,-201.08 332.17,-193.67"/>
<polygon fill="grey" stroke="grey" stroke-width="2" points="335.63,-194.24 333.29,-183.91 328.68,-193.45 335.63,-194.24"/>
</g>
<!-- 40&#45;&gt;5 -->
<g id="edge51" class="edge">
<title>40&#45;&gt;5</title>
<path fill="none" stroke="grey" stroke-width="2" d="M363.4,-149.33C367.83,-147.51 372.37,-145.68 376.68,-144 411.69,-130.31 451.86,-115.6 480.86,-105.17"/>
<polygon fill="grey" stroke="grey" stroke-width="2" points="481.87,-108.52 490.1,-101.85 479.5,-101.93 481.87,-108.52"/>
</g>
<!-- 41 -->
<g id="node42" class="node">
<title>41</title>
<path fill="none" stroke="#56d8a9" stroke-width="2" d="M826.8,-324C826.8,-324 718.55,-324 718.55,-324 712.55,-324 706.55,-318 706.55,-312 706.55,-312 706.55,-300 706.55,-300 706.55,-294 712.55,-288 718.55,-288 718.55,-288 826.8,-288 826.8,-288 832.8,-288 838.8,-294 838.8,-300 838.8,-300 838.8,-312 838.8,-312 838.8,-318 832.8,-324 826.8,-324"/>
<text xml:space="preserve" text-anchor="middle" x="772.68" y="-302.12" font-family="sans" font-size="10.00">scramble_cluster_identifier</text>
</g>
<!-- 42 -->
<g id="node43" class="node">
<title>42</title>
<path fill="none" stroke="#56d8a9" stroke-width="2" d="M826.43,-252C826.43,-252 718.93,-252 718.93,-252 712.93,-252 706.93,-246 706.93,-240 706.93,-240 706.93,-228 706.93,-228 706.93,-222 712.93,-216 718.93,-216 718.93,-216 826.43,-216 826.43,-216 832.43,-216 838.43,-222 838.43,-228 838.43,-228 838.43,-240 838.43,-240 838.43,-246 832.43,-252 826.43,-252"/>
<text xml:space="preserve" text-anchor="middle" x="772.68" y="-230.12" font-family="sans" font-size="10.00">scramble_cluster_analysis</text>
</g>
<!-- 41&#45;&gt;42 -->
<g id="edge52" class="edge">
<title>41&#45;&gt;42</title>
<path fill="none" stroke="grey" stroke-width="2" d="M772.68,-287.34C772.68,-280.75 772.68,-273.08 772.68,-265.67"/>
<polygon fill="grey" stroke="grey" stroke-width="2" points="776.18,-265.93 772.68,-255.93 769.18,-265.93 776.18,-265.93"/>
</g>
<!-- 42&#45;&gt;0 -->
<g id="edge17" class="edge">
<title>42&#45;&gt;0</title>
<path fill="none" stroke="grey" stroke-width="2" d="M786.78,-215.03C794.19,-205.07 803.08,-192.25 809.68,-180 834.18,-134.52 815.63,-108.01 852.68,-72 881.14,-44.33 925.2,-30.94 957.28,-24.57"/>
<polygon fill="grey" stroke="grey" stroke-width="2" points="957.59,-28.07 966.81,-22.85 956.35,-21.18 957.59,-28.07"/>
</g>
<!-- 43 -->
<g id="node44" class="node">
<title>43</title>
<path fill="none" stroke="#56d8a9" stroke-width="2" d="M788.93,-180C788.93,-180 738.43,-180 738.43,-180 732.43,-180 726.43,-174 726.43,-168 726.43,-168 726.43,-156 726.43,-156 726.43,-150 732.43,-144 738.43,-144 738.43,-144 788.93,-144 788.93,-144 794.93,-144 800.93,-150 800.93,-156 800.93,-156 800.93,-168 800.93,-168 800.93,-174 794.93,-180 788.93,-180"/>
<text xml:space="preserve" text-anchor="middle" x="763.68" y="-158.12" font-family="sans" font-size="10.00">scramble_vcf</text>
</g>
<!-- 42&#45;&gt;43 -->
<g id="edge53" class="edge">
<title>42&#45;&gt;43</title>
<path fill="none" stroke="grey" stroke-width="2" d="M770.41,-215.34C769.56,-208.75 768.57,-201.08 767.62,-193.67"/>
<polygon fill="grey" stroke="grey" stroke-width="2" points="771.11,-193.38 766.37,-183.9 764.17,-194.27 771.11,-193.38"/>
</g>
<!-- 43&#45;&gt;5 -->
<g id="edge54" class="edge">
<title>43&#45;&gt;5</title>
<path fill="none" stroke="grey" stroke-width="2" d="M725.62,-146.63C722.94,-145.71 720.27,-144.83 717.68,-144 664.05,-126.92 601.09,-110.62 561.04,-100.71"/>
<polygon fill="grey" stroke="grey" stroke-width="2" points="562.13,-97.38 551.58,-98.39 560.46,-104.17 562.13,-97.38"/>
</g>
</g>
</svg>
