<?xml version="1.0" encoding="UTF-8" standalone="no"?>
<!DOCTYPE svg PUBLIC "-//W3C//DTD SVG 1.1//EN"
 "http://www.w3.org/Graphics/SVG/1.1/DTD/svg11.dtd">
<!-- Generated by graphviz version 2.40.1 (0)
 -->
<!-- Title: snakemake_dag Pages: 1 -->
<svg width="663pt" height="260pt"
 viewBox="0.00 0.00 662.50 260.00" xmlns="http://www.w3.org/2000/svg" xmlns:xlink="http://www.w3.org/1999/xlink">
<g id="graph0" class="graph" transform="scale(1 1) rotate(0) translate(4 256)">
<title>snakemake_dag</title>
<polygon fill="#ffffff" stroke="transparent" points="-4,4 -4,-256 658.5,-256 658.5,4 -4,4"/>
<!-- 0 -->
<g id="node1" class="node">
<title>0</title>
<path fill="none" stroke="#56d8b9" stroke-width="2" d="M319.5,-36C319.5,-36 289.5,-36 289.5,-36 283.5,-36 277.5,-30 277.5,-24 277.5,-24 277.5,-12 277.5,-12 277.5,-6 283.5,0 289.5,0 289.5,0 319.5,0 319.5,0 325.5,0 331.5,-6 331.5,-12 331.5,-12 331.5,-24 331.5,-24 331.5,-30 325.5,-36 319.5,-36"/>
<text text-anchor="middle" x="304.5" y="-15.5" font-family="sans" font-size="10.00" fill="#000000">all</text>
</g>
<!-- 1 -->
<g id="node2" class="node">
<title>1</title>
<path fill="none" stroke="#d8ac56" stroke-width="2" d="M73,-252C73,-252 12,-252 12,-252 6,-252 0,-246 0,-240 0,-240 0,-228 0,-228 0,-222 6,-216 12,-216 12,-216 73,-216 73,-216 79,-216 85,-222 85,-228 85,-228 85,-240 85,-240 85,-246 79,-252 73,-252"/>
<text text-anchor="middle" x="42.5" y="-231.5" font-family="sans" font-size="10.00" fill="#000000">trgt_genotype</text>
</g>
<!-- 1&#45;&gt;0 -->
<g id="edge3" class="edge">
<title>1&#45;&gt;0</title>
<path fill="none" stroke="#c0c0c0" stroke-width="2" d="M39.8387,-215.9087C35.9568,-181.7204 33.2664,-107.8475 75.5,-72 104.1574,-47.6759 209.9693,-30.4161 267.1873,-22.6352"/>
<polygon fill="#c0c0c0" stroke="#c0c0c0" stroke-width="2" points="267.825,-26.0813 277.2761,-21.2931 266.9018,-19.1424 267.825,-26.0813"/>
</g>
<!-- 7 -->
<g id="node8" class="node">
<title>7</title>
<path fill="none" stroke="#56d873" stroke-width="2" d="M130.5,-108C130.5,-108 96.5,-108 96.5,-108 90.5,-108 84.5,-102 84.5,-96 84.5,-96 84.5,-84 84.5,-84 84.5,-78 90.5,-72 96.5,-72 96.5,-72 130.5,-72 130.5,-72 136.5,-72 142.5,-78 142.5,-84 142.5,-84 142.5,-96 142.5,-96 142.5,-102 136.5,-108 130.5,-108"/>
<text text-anchor="middle" x="113.5" y="-87.5" font-family="sans" font-size="10.00" fill="#000000">trgt_plot</text>
</g>
<!-- 1&#45;&gt;7 -->
<g id="edge16" class="edge">
<title>1&#45;&gt;7</title>
<path fill="none" stroke="#c0c0c0" stroke-width="2" d="M43.4042,-215.7541C44.9956,-196.8279 49.3865,-166.8592 61.5,-144 67.109,-133.4154 75.4063,-123.4616 83.7339,-115.0533"/>
<polygon fill="#c0c0c0" stroke="#c0c0c0" stroke-width="2" points="86.2027,-117.535 90.9931,-108.085 81.3552,-112.4851 86.2027,-117.535"/>
</g>
<!-- 8 -->
<g id="node9" class="node">
<title>8</title>
<path fill="none" stroke="#70d856" stroke-width="2" d="M144,-180C144,-180 83,-180 83,-180 77,-180 71,-174 71,-168 71,-168 71,-156 71,-156 71,-150 77,-144 83,-144 83,-144 144,-144 144,-144 150,-144 156,-150 156,-156 156,-156 156,-168 156,-168 156,-174 150,-180 144,-180"/>
<text text-anchor="middle" x="113.5" y="-159.5" font-family="sans" font-size="10.00" fill="#000000">trgt_bam_sort</text>
</g>
<!-- 1&#45;&gt;8 -->
<g id="edge17" class="edge">
<title>1&#45;&gt;8</title>
<path fill="none" stroke="#c0c0c0" stroke-width="2" d="M60.4163,-215.8314C68.8442,-207.2848 79.041,-196.9443 88.236,-187.6198"/>
<polygon fill="#c0c0c0" stroke="#c0c0c0" stroke-width="2" points="90.8131,-189.9912 95.3425,-180.4133 85.8289,-185.0761 90.8131,-189.9912"/>
</g>
<!-- 2 -->
<g id="node3" class="node">
<title>2</title>
<path fill="none" stroke="#d89c56" stroke-width="2" d="M292.5,-180C292.5,-180 262.5,-180 262.5,-180 256.5,-180 250.5,-174 250.5,-168 250.5,-168 250.5,-156 250.5,-156 250.5,-150 256.5,-144 262.5,-144 262.5,-144 292.5,-144 292.5,-144 298.5,-144 304.5,-150 304.5,-156 304.5,-156 304.5,-168 304.5,-168 304.5,-174 298.5,-180 292.5,-180"/>
<text text-anchor="middle" x="277.5" y="-159.5" font-family="sans" font-size="10.00" fill="#000000">bgzip</text>
</g>
<!-- 2&#45;&gt;0 -->
<g id="edge2" class="edge">
<title>2&#45;&gt;0</title>
<path fill="none" stroke="#c0c0c0" stroke-width="2" d="M261.3628,-143.8435C247.1241,-125.5031 230.2489,-96.4625 241.5,-72 247.448,-59.0678 258.1904,-48.0737 269.1398,-39.4482"/>
<polygon fill="#c0c0c0" stroke="#c0c0c0" stroke-width="2" points="271.4919,-42.0633 277.4774,-33.3211 267.3466,-36.4226 271.4919,-42.0633"/>
</g>
<!-- 4 -->
<g id="node5" class="node">
<title>4</title>
<path fill="none" stroke="#afd856" stroke-width="2" d="M292.5,-108C292.5,-108 262.5,-108 262.5,-108 256.5,-108 250.5,-102 250.5,-96 250.5,-96 250.5,-84 250.5,-84 250.5,-78 256.5,-72 262.5,-72 262.5,-72 292.5,-72 292.5,-72 298.5,-72 304.5,-78 304.5,-84 304.5,-84 304.5,-96 304.5,-96 304.5,-102 298.5,-108 292.5,-108"/>
<text text-anchor="middle" x="277.5" y="-87.5" font-family="sans" font-size="10.00" fill="#000000">tabix</text>
</g>
<!-- 2&#45;&gt;4 -->
<g id="edge13" class="edge">
<title>2&#45;&gt;4</title>
<path fill="none" stroke="#c0c0c0" stroke-width="2" d="M277.5,-143.8314C277.5,-136.131 277.5,-126.9743 277.5,-118.4166"/>
<polygon fill="#c0c0c0" stroke="#c0c0c0" stroke-width="2" points="281.0001,-118.4132 277.5,-108.4133 274.0001,-118.4133 281.0001,-118.4132"/>
</g>
<!-- 3 -->
<g id="node4" class="node">
<title>3</title>
<path fill="none" stroke="#56d8c1" stroke-width="2" d="M212.5,-252C212.5,-252 156.5,-252 156.5,-252 150.5,-252 144.5,-246 144.5,-240 144.5,-240 144.5,-228 144.5,-228 144.5,-222 150.5,-216 156.5,-216 156.5,-216 212.5,-216 212.5,-216 218.5,-216 224.5,-222 224.5,-228 224.5,-228 224.5,-240 224.5,-240 224.5,-246 218.5,-252 212.5,-252"/>
<text text-anchor="middle" x="184.5" y="-231.5" font-family="sans" font-size="10.00" fill="#000000">sniffles2_call</text>
</g>
<!-- 3&#45;&gt;0 -->
<g id="edge7" class="edge">
<title>3&#45;&gt;0</title>
<path fill="none" stroke="#c0c0c0" stroke-width="2" d="M186.4655,-215.9113C190.6483,-184.2245 202.7889,-117.7073 234.5,-72 243.457,-59.0897 256.4447,-47.8693 268.8069,-39.0519"/>
<polygon fill="#c0c0c0" stroke="#c0c0c0" stroke-width="2" points="270.9061,-41.857 277.2081,-33.3402 266.9705,-36.0681 270.9061,-41.857"/>
</g>
<!-- 3&#45;&gt;2 -->
<g id="edge11" class="edge">
<title>3&#45;&gt;2</title>
<path fill="none" stroke="#c0c0c0" stroke-width="2" d="M207.9678,-215.8314C219.5327,-206.8779 233.6404,-195.9558 246.1183,-186.2955"/>
<polygon fill="#c0c0c0" stroke="#c0c0c0" stroke-width="2" points="248.275,-189.0521 254.0397,-180.1628 243.9898,-183.5171 248.275,-189.0521"/>
</g>
<!-- 4&#45;&gt;0 -->
<g id="edge8" class="edge">
<title>4&#45;&gt;0</title>
<path fill="none" stroke="#c0c0c0" stroke-width="2" d="M284.3132,-71.8314C287.2644,-63.9617 290.7858,-54.5712 294.055,-45.8533"/>
<polygon fill="#c0c0c0" stroke="#c0c0c0" stroke-width="2" points="297.3609,-47.0055 297.595,-36.4133 290.8066,-44.5476 297.3609,-47.0055"/>
</g>
<!-- 5 -->
<g id="node6" class="node">
<title>5</title>
<path fill="none" stroke="#c6d856" stroke-width="2" d="M452,-108C452,-108 373,-108 373,-108 367,-108 361,-102 361,-96 361,-96 361,-84 361,-84 361,-78 367,-72 373,-72 373,-72 452,-72 452,-72 458,-72 464,-78 464,-84 464,-84 464,-96 464,-96 464,-102 458,-108 452,-108"/>
<text text-anchor="middle" x="412.5" y="-87.5" font-family="sans" font-size="10.00" fill="#000000">sawfish_joint_call</text>
</g>
<!-- 5&#45;&gt;0 -->
<g id="edge6" class="edge">
<title>5&#45;&gt;0</title>
<path fill="none" stroke="#c0c0c0" stroke-width="2" d="M385.247,-71.8314C371.5611,-62.7074 354.8085,-51.539 340.1173,-41.7449"/>
<polygon fill="#c0c0c0" stroke="#c0c0c0" stroke-width="2" points="342.0062,-38.7977 331.7442,-36.1628 338.1233,-44.6221 342.0062,-38.7977"/>
</g>
<!-- 6 -->
<g id="node7" class="node">
<title>6</title>
<path fill="none" stroke="#56d8a2" stroke-width="2" d="M450.5,-180C450.5,-180 374.5,-180 374.5,-180 368.5,-180 362.5,-174 362.5,-168 362.5,-168 362.5,-156 362.5,-156 362.5,-150 368.5,-144 374.5,-144 374.5,-144 450.5,-144 450.5,-144 456.5,-144 462.5,-150 462.5,-156 462.5,-156 462.5,-168 462.5,-168 462.5,-174 456.5,-180 450.5,-180"/>
<text text-anchor="middle" x="412.5" y="-159.5" font-family="sans" font-size="10.00" fill="#000000">sawfish_discover</text>
</g>
<!-- 6&#45;&gt;5 -->
<g id="edge14" class="edge">
<title>6&#45;&gt;5</title>
<path fill="none" stroke="#c0c0c0" stroke-width="2" d="M412.5,-143.8314C412.5,-136.131 412.5,-126.9743 412.5,-118.4166"/>
<polygon fill="#c0c0c0" stroke="#c0c0c0" stroke-width="2" points="416.0001,-118.4132 412.5,-108.4133 409.0001,-118.4133 416.0001,-118.4132"/>
</g>
<!-- 7&#45;&gt;0 -->
<g id="edge10" class="edge">
<title>7&#45;&gt;0</title>
<path fill="none" stroke="#c0c0c0" stroke-width="2" d="M142.5088,-79.0647C175.9908,-66.4433 231.1198,-45.6616 267.6191,-31.9028"/>
<polygon fill="#c0c0c0" stroke="#c0c0c0" stroke-width="2" points="269.2636,-35.0233 277.3862,-28.2209 266.7944,-28.4733 269.2636,-35.0233"/>
</g>
<!-- 8&#45;&gt;7 -->
<g id="edge15" class="edge">
<title>8&#45;&gt;7</title>
<path fill="none" stroke="#c0c0c0" stroke-width="2" d="M113.5,-143.8314C113.5,-136.131 113.5,-126.9743 113.5,-118.4166"/>
<polygon fill="#c0c0c0" stroke="#c0c0c0" stroke-width="2" points="117.0001,-118.4132 113.5,-108.4133 110.0001,-118.4133 117.0001,-118.4132"/>
</g>
<!-- 9 -->
<g id="node10" class="node">
<title>9</title>
<path fill="none" stroke="#5663d8" stroke-width="2" d="M326.5,-252C326.5,-252 282.5,-252 282.5,-252 276.5,-252 270.5,-246 270.5,-240 270.5,-240 270.5,-228 270.5,-228 270.5,-222 276.5,-216 282.5,-216 282.5,-216 326.5,-216 326.5,-216 332.5,-216 338.5,-222 338.5,-228 338.5,-228 338.5,-240 338.5,-240 338.5,-246 332.5,-252 326.5,-252"/>
<text text-anchor="middle" x="304.5" y="-231.5" font-family="sans" font-size="10.00" fill="#000000">paraphase</text>
</g>
<!-- 9&#45;&gt;0 -->
<g id="edge9" class="edge">
<title>9&#45;&gt;0</title>
<path fill="none" stroke="#c0c0c0" stroke-width="2" d="M308.3413,-215.6001C310.3166,-205.2025 312.5123,-191.9346 313.5,-180 317.4591,-132.1636 317.4591,-119.8364 313.5,-72 312.8055,-63.6085 311.5138,-54.5578 310.1214,-46.3092"/>
<polygon fill="#c0c0c0" stroke="#c0c0c0" stroke-width="2" points="313.5544,-45.6235 308.3413,-36.3999 306.6647,-46.8612 313.5544,-45.6235"/>
</g>
<!-- 9&#45;&gt;2 -->
<g id="edge12" class="edge">
<title>9&#45;&gt;2</title>
<path fill="none" stroke="#c0c0c0" stroke-width="2" d="M297.6868,-215.8314C294.7356,-207.9617 291.2142,-198.5712 287.945,-189.8533"/>
<polygon fill="#c0c0c0" stroke="#c0c0c0" stroke-width="2" points="291.1934,-188.5476 284.405,-180.4133 284.6391,-191.0055 291.1934,-188.5476"/>
</g>
<!-- 10 -->
<g id="node11" class="node">
<title>10</title>
<path fill="none" stroke="#56d892" stroke-width="2" d="M568.5,-180C568.5,-180 506.5,-180 506.5,-180 500.5,-180 494.5,-174 494.5,-168 494.5,-168 494.5,-156 494.5,-156 494.5,-150 500.5,-144 506.5,-144 506.5,-144 568.5,-144 568.5,-144 574.5,-144 580.5,-150 580.5,-156 580.5,-156 580.5,-168 580.5,-168 580.5,-174 574.5,-180 568.5,-180"/>
<text text-anchor="middle" x="537.5" y="-159.5" font-family="sans" font-size="10.00" fill="#000000">pbsv_discover</text>
</g>
<!-- 10&#45;&gt;0 -->
<g id="edge1" class="edge">
<title>10&#45;&gt;0</title>
<path fill="none" stroke="#c0c0c0" stroke-width="2" d="M528.8371,-143.7885C518.2692,-123.4516 498.5433,-90.9151 472.5,-72 433.1307,-43.4064 377.9484,-29.5073 341.7268,-23.0754"/>
<polygon fill="#c0c0c0" stroke="#c0c0c0" stroke-width="2" points="342.028,-19.5773 331.588,-21.382 340.8747,-26.4817 342.028,-19.5773"/>
</g>
<!-- 11 -->
<g id="node12" class="node">
<title>11</title>
<path fill="none" stroke="#78d856" stroke-width="2" d="M570.5,-108C570.5,-108 532.5,-108 532.5,-108 526.5,-108 520.5,-102 520.5,-96 520.5,-96 520.5,-84 520.5,-84 520.5,-78 526.5,-72 532.5,-72 532.5,-72 570.5,-72 570.5,-72 576.5,-72 582.5,-78 582.5,-84 582.5,-84 582.5,-96 582.5,-96 582.5,-102 576.5,-108 570.5,-108"/>
<text text-anchor="middle" x="551.5" y="-87.5" font-family="sans" font-size="10.00" fill="#000000">pbsv_call</text>
</g>
<!-- 10&#45;&gt;11 -->
<g id="edge18" class="edge">
<title>10&#45;&gt;11</title>
<path fill="none" stroke="#c0c0c0" stroke-width="2" d="M541.0328,-143.8314C542.5301,-136.131 544.3105,-126.9743 545.9745,-118.4166"/>
<polygon fill="#c0c0c0" stroke="#c0c0c0" stroke-width="2" points="549.4465,-118.8975 547.9196,-108.4133 542.5752,-117.5614 549.4465,-118.8975"/>
</g>
<!-- 11&#45;&gt;0 -->
<g id="edge4" class="edge">
<title>11&#45;&gt;0</title>
<path fill="none" stroke="#c0c0c0" stroke-width="2" d="M520.2055,-76.9283C515.6401,-75.1834 510.9715,-73.4861 506.5,-72 449.655,-53.1077 382.1629,-36.1341 341.3688,-26.4554"/>
<polygon fill="#c0c0c0" stroke="#c0c0c0" stroke-width="2" points="342.1312,-23.0393 331.5953,-24.1551 340.5275,-29.8531 342.1312,-23.0393"/>
</g>
<!-- 12 -->
<g id="node13" class="node">
<title>12</title>
<path fill="none" stroke="#d8c356" stroke-width="2" d="M642.5,-108C642.5,-108 612.5,-108 612.5,-108 606.5,-108 600.5,-102 600.5,-96 600.5,-96 600.5,-84 600.5,-84 600.5,-78 606.5,-72 612.5,-72 612.5,-72 642.5,-72 642.5,-72 648.5,-72 654.5,-78 654.5,-84 654.5,-84 654.5,-96 654.5,-96 654.5,-102 648.5,-108 642.5,-108"/>
<text text-anchor="middle" x="627.5" y="-87.5" font-family="sans" font-size="10.00" fill="#000000">hificnv</text>
</g>
<!-- 12&#45;&gt;0 -->
<g id="edge5" class="edge">
<title>12&#45;&gt;0</title>
<path fill="none" stroke="#c0c0c0" stroke-width="2" d="M600.3197,-75.4311C597.3895,-74.1569 594.4138,-72.9812 591.5,-72 504.6049,-42.739 397.2562,-27.8714 341.7155,-21.6638"/>
<polygon fill="#c0c0c0" stroke="#c0c0c0" stroke-width="2" points="341.9612,-18.17 331.6418,-20.57 341.2055,-25.1291 341.9612,-18.17"/>
</g>
</g>
</svg>
