<?xml version="1.0" encoding="UTF-8" standalone="no"?>
<!DOCTYPE svg PUBLIC "-//W3C//DTD SVG 1.1//EN"
 "http://www.w3.org/Graphics/SVG/1.1/DTD/svg11.dtd">
<!-- Generated by graphviz version 12.2.1 (20241206.2353)
 -->
<!-- Title: snakemake_dag Pages: 1 -->
<svg width="846pt" height="260pt"
 viewBox="0.00 0.00 845.62 260.00" xmlns="http://www.w3.org/2000/svg" xmlns:xlink="http://www.w3.org/1999/xlink">
<g id="graph0" class="graph" transform="scale(1 1) rotate(0) translate(4 256)">
<title>snakemake_dag</title>
<polygon fill="white" stroke="none" points="-4,4 -4,-256 841.62,-256 841.62,4 -4,4"/>
<!-- 0 -->
<g id="node1" class="node">
<title>0</title>
<path fill="none" stroke="#d85656" stroke-width="2" d="M377.62,-36C377.62,-36 347.62,-36 347.62,-36 341.62,-36 335.62,-30 335.62,-24 335.62,-24 335.62,-12 335.62,-12 335.62,-6 341.62,0 347.62,0 347.62,0 377.62,0 377.62,0 383.62,0 389.62,-6 389.62,-12 389.62,-12 389.62,-24 389.62,-24 389.62,-30 383.62,-36 377.62,-36"/>
<text text-anchor="middle" x="362.62" y="-14.12" font-family="sans" font-size="10.00">all</text>
</g>
<!-- 1 -->
<g id="node2" class="node">
<title>1</title>
<path fill="none" stroke="#5673d8" stroke-width="2" d="M63.25,-252C63.25,-252 12,-252 12,-252 6,-252 0,-246 0,-240 0,-240 0,-228 0,-228 0,-222 6,-216 12,-216 12,-216 63.25,-216 63.25,-216 69.25,-216 75.25,-222 75.25,-228 75.25,-228 75.25,-240 75.25,-240 75.25,-246 69.25,-252 63.25,-252"/>
<text text-anchor="middle" x="37.62" y="-230.12" font-family="sans" font-size="10.00">trgt_genotype</text>
</g>
<!-- 1&#45;&gt;0 -->
<g id="edge1" class="edge">
<title>1&#45;&gt;0</title>
<path fill="none" stroke="grey" stroke-width="2" d="M34.56,-215.2C29.85,-181.18 25.37,-107.23 67.62,-72 105.64,-40.31 250.07,-26.45 321.75,-21.42"/>
<polygon fill="grey" stroke="grey" stroke-width="2" points="321.9,-24.92 331.64,-20.76 321.43,-17.94 321.9,-24.92"/>
</g>
<!-- 7 -->
<g id="node8" class="node">
<title>7</title>
<path fill="none" stroke="#566bd8" stroke-width="2" d="M118.62,-108C118.62,-108 88.62,-108 88.62,-108 82.62,-108 76.62,-102 76.62,-96 76.62,-96 76.62,-84 76.62,-84 76.62,-78 82.62,-72 88.62,-72 88.62,-72 118.62,-72 118.62,-72 124.62,-72 130.62,-78 130.62,-84 130.62,-84 130.62,-96 130.62,-96 130.62,-102 124.62,-108 118.62,-108"/>
<text text-anchor="middle" x="103.62" y="-86.12" font-family="sans" font-size="10.00">trgt_plot</text>
</g>
<!-- 1&#45;&gt;7 -->
<g id="edge17" class="edge">
<title>1&#45;&gt;7</title>
<path fill="none" stroke="grey" stroke-width="2" d="M38.76,-215.05C40.54,-196.42 45.08,-166.84 56.62,-144 61.25,-134.84 67.86,-126.02 74.66,-118.3"/>
<polygon fill="grey" stroke="grey" stroke-width="2" points="77.19,-120.72 81.49,-111.03 72.09,-115.92 77.19,-120.72"/>
</g>
<!-- 8 -->
<g id="node9" class="node">
<title>8</title>
<path fill="none" stroke="#567bd8" stroke-width="2" d="M129.62,-180C129.62,-180 77.62,-180 77.62,-180 71.62,-180 65.62,-174 65.62,-168 65.62,-168 65.62,-156 65.62,-156 65.62,-150 71.62,-144 77.62,-144 77.62,-144 129.62,-144 129.62,-144 135.62,-144 141.62,-150 141.62,-156 141.62,-156 141.62,-168 141.62,-168 141.62,-174 135.62,-180 129.62,-180"/>
<text text-anchor="middle" x="103.62" y="-158.12" font-family="sans" font-size="10.00">trgt_bam_sort</text>
</g>
<!-- 1&#45;&gt;8 -->
<g id="edge19" class="edge">
<title>1&#45;&gt;8</title>
<path fill="none" stroke="grey" stroke-width="2" d="M54.28,-215.34C61.42,-207.77 69.92,-198.75 77.83,-190.35"/>
<polygon fill="grey" stroke="grey" stroke-width="2" points="80.36,-192.78 84.67,-183.1 75.26,-187.98 80.36,-192.78"/>
</g>
<!-- 2 -->
<g id="node3" class="node">
<title>2</title>
<path fill="none" stroke="#d86656" stroke-width="2" d="M273.62,-180C273.62,-180 243.62,-180 243.62,-180 237.62,-180 231.62,-174 231.62,-168 231.62,-168 231.62,-156 231.62,-156 231.62,-150 237.62,-144 243.62,-144 243.62,-144 273.62,-144 273.62,-144 279.62,-144 285.62,-150 285.62,-156 285.62,-156 285.62,-168 285.62,-168 285.62,-174 279.62,-180 273.62,-180"/>
<text text-anchor="middle" x="258.62" y="-158.12" font-family="sans" font-size="10.00">bgzip</text>
</g>
<!-- 2&#45;&gt;0 -->
<g id="edge4" class="edge">
<title>2&#45;&gt;0</title>
<path fill="none" stroke="grey" stroke-width="2" d="M243.04,-143.05C228.62,-124.14 211.52,-94.1 226.62,-72 247.93,-40.83 290.49,-27.99 322.36,-22.7"/>
<polygon fill="grey" stroke="grey" stroke-width="2" points="322.44,-26.23 331.84,-21.35 321.45,-19.3 322.44,-26.23"/>
</g>
<!-- 4 -->
<g id="node5" class="node">
<title>4</title>
<path fill="none" stroke="#568ad8" stroke-width="2" d="M277.62,-108C277.62,-108 247.62,-108 247.62,-108 241.62,-108 235.62,-102 235.62,-96 235.62,-96 235.62,-84 235.62,-84 235.62,-78 241.62,-72 247.62,-72 247.62,-72 277.62,-72 277.62,-72 283.62,-72 289.62,-78 289.62,-84 289.62,-84 289.62,-96 289.62,-96 289.62,-102 283.62,-108 277.62,-108"/>
<text text-anchor="middle" x="262.62" y="-86.12" font-family="sans" font-size="10.00">tabix</text>
</g>
<!-- 2&#45;&gt;4 -->
<g id="edge15" class="edge">
<title>2&#45;&gt;4</title>
<path fill="none" stroke="grey" stroke-width="2" d="M259.63,-143.34C260.01,-136.75 260.45,-129.08 260.87,-121.67"/>
<polygon fill="grey" stroke="grey" stroke-width="2" points="264.35,-122.11 261.43,-111.92 257.36,-121.71 264.35,-122.11"/>
</g>
<!-- 3 -->
<g id="node4" class="node">
<title>3</title>
<path fill="none" stroke="#56a2d8" stroke-width="2" d="M196.12,-252C196.12,-252 147.12,-252 147.12,-252 141.12,-252 135.12,-246 135.12,-240 135.12,-240 135.12,-228 135.12,-228 135.12,-222 141.12,-216 147.12,-216 147.12,-216 196.12,-216 196.12,-216 202.12,-216 208.12,-222 208.12,-228 208.12,-228 208.12,-240 208.12,-240 208.12,-246 202.12,-252 196.12,-252"/>
<text text-anchor="middle" x="171.62" y="-230.12" font-family="sans" font-size="10.00">sniffles2_call</text>
</g>
<!-- 3&#45;&gt;0 -->
<g id="edge7" class="edge">
<title>3&#45;&gt;0</title>
<path fill="none" stroke="grey" stroke-width="2" d="M171.56,-215.25C172.4,-182.63 178.84,-112.76 216.62,-72 244.02,-42.45 289.17,-29.34 322.02,-23.55"/>
<polygon fill="grey" stroke="grey" stroke-width="2" points="322.49,-27.02 331.83,-22.01 321.41,-20.1 322.49,-27.02"/>
</g>
<!-- 3&#45;&gt;2 -->
<g id="edge13" class="edge">
<title>3&#45;&gt;2</title>
<path fill="none" stroke="grey" stroke-width="2" d="M193.58,-215.34C203.5,-207.36 215.41,-197.77 226.32,-188.99"/>
<polygon fill="grey" stroke="grey" stroke-width="2" points="228.42,-191.8 234.02,-182.8 224.03,-186.34 228.42,-191.8"/>
</g>
<!-- 4&#45;&gt;0 -->
<g id="edge9" class="edge">
<title>4&#45;&gt;0</title>
<path fill="none" stroke="grey" stroke-width="2" d="M288.12,-71.15C299.87,-62.93 314.03,-53.02 326.83,-44.06"/>
<polygon fill="grey" stroke="grey" stroke-width="2" points="328.51,-47.15 334.7,-38.55 324.5,-41.42 328.51,-47.15"/>
</g>
<!-- 5 -->
<g id="node6" class="node">
<title>5</title>
<path fill="none" stroke="#56d8c9" stroke-width="2" d="M457.62,-108C457.62,-108 357.62,-108 357.62,-108 351.62,-108 345.62,-102 345.62,-96 345.62,-96 345.62,-84 345.62,-84 345.62,-78 351.62,-72 357.62,-72 357.62,-72 457.62,-72 457.62,-72 463.62,-72 469.62,-78 469.62,-84 469.62,-84 469.62,-96 469.62,-96 469.62,-102 463.62,-108 457.62,-108"/>
<text text-anchor="middle" x="407.62" y="-86.12" font-family="sans" font-size="10.00">sawfish_joint_call_single</text>
</g>
<!-- 5&#45;&gt;0 -->
<g id="edge12" class="edge">
<title>5&#45;&gt;0</title>
<path fill="none" stroke="grey" stroke-width="2" d="M396.27,-71.34C391.67,-64.18 386.24,-55.73 381.09,-47.73"/>
<polygon fill="grey" stroke="grey" stroke-width="2" points="384.12,-45.97 375.77,-39.45 378.23,-49.75 384.12,-45.97"/>
</g>
<!-- 6 -->
<g id="node7" class="node">
<title>6</title>
<path fill="none" stroke="#56d8c1" stroke-width="2" d="M441.5,-180C441.5,-180 373.75,-180 373.75,-180 367.75,-180 361.75,-174 361.75,-168 361.75,-168 361.75,-156 361.75,-156 361.75,-150 367.75,-144 373.75,-144 373.75,-144 441.5,-144 441.5,-144 447.5,-144 453.5,-150 453.5,-156 453.5,-156 453.5,-168 453.5,-168 453.5,-174 447.5,-180 441.5,-180"/>
<text text-anchor="middle" x="407.62" y="-158.12" font-family="sans" font-size="10.00">sawfish_discover</text>
</g>
<!-- 6&#45;&gt;5 -->
<g id="edge16" class="edge">
<title>6&#45;&gt;5</title>
<path fill="none" stroke="grey" stroke-width="2" d="M407.62,-143.34C407.62,-136.75 407.62,-129.08 407.62,-121.67"/>
<polygon fill="grey" stroke="grey" stroke-width="2" points="411.13,-121.93 407.63,-111.93 404.13,-121.93 411.13,-121.93"/>
</g>
<!-- 7&#45;&gt;0 -->
<g id="edge10" class="edge">
<title>7&#45;&gt;0</title>
<path fill="none" stroke="grey" stroke-width="2" d="M131.59,-79.49C139.34,-76.95 147.78,-74.28 155.62,-72 212.99,-55.3 280.12,-38.63 322.01,-28.57"/>
<polygon fill="grey" stroke="grey" stroke-width="2" points="322.82,-31.97 331.73,-26.25 321.19,-25.16 322.82,-31.97"/>
</g>
<!-- 8&#45;&gt;7 -->
<g id="edge18" class="edge">
<title>8&#45;&gt;7</title>
<path fill="none" stroke="grey" stroke-width="2" d="M103.62,-143.34C103.62,-136.75 103.62,-129.08 103.62,-121.67"/>
<polygon fill="grey" stroke="grey" stroke-width="2" points="107.13,-121.93 103.63,-111.93 100.13,-121.93 107.13,-121.93"/>
</g>
<!-- 9 -->
<g id="node10" class="node">
<title>9</title>
<path fill="none" stroke="#68d856" stroke-width="2" d="M306.12,-252C306.12,-252 269.12,-252 269.12,-252 263.12,-252 257.12,-246 257.12,-240 257.12,-240 257.12,-228 257.12,-228 257.12,-222 263.12,-216 269.12,-216 269.12,-216 306.12,-216 306.12,-216 312.12,-216 318.12,-222 318.12,-228 318.12,-228 318.12,-240 318.12,-240 318.12,-246 312.12,-252 306.12,-252"/>
<text text-anchor="middle" x="287.62" y="-230.12" font-family="sans" font-size="10.00">paraphase</text>
</g>
<!-- 9&#45;&gt;0 -->
<g id="edge8" class="edge">
<title>9&#45;&gt;0</title>
<path fill="none" stroke="grey" stroke-width="2" d="M292.02,-215.29C299.67,-185.3 316.57,-122.82 336.62,-72 339.7,-64.21 343.46,-55.99 347.15,-48.42"/>
<polygon fill="grey" stroke="grey" stroke-width="2" points="350.26,-50.04 351.63,-39.53 344,-46.89 350.26,-50.04"/>
</g>
<!-- 9&#45;&gt;2 -->
<g id="edge14" class="edge">
<title>9&#45;&gt;2</title>
<path fill="none" stroke="grey" stroke-width="2" d="M280.31,-215.34C277.48,-208.51 274.16,-200.5 270.98,-192.83"/>
<polygon fill="grey" stroke="grey" stroke-width="2" points="274.26,-191.6 267.2,-183.7 267.79,-194.28 274.26,-191.6"/>
</g>
<!-- 10 -->
<g id="node11" class="node">
<title>10</title>
<path fill="none" stroke="#56c1d8" stroke-width="2" d="M557.62,-108C557.62,-108 499.62,-108 499.62,-108 493.62,-108 487.62,-102 487.62,-96 487.62,-96 487.62,-84 487.62,-84 487.62,-78 493.62,-72 499.62,-72 499.62,-72 557.62,-72 557.62,-72 563.62,-72 569.62,-78 569.62,-84 569.62,-84 569.62,-96 569.62,-96 569.62,-102 563.62,-108 557.62,-108"/>
<text text-anchor="middle" x="528.62" y="-86.12" font-family="sans" font-size="10.00">severus_t_only</text>
</g>
<!-- 10&#45;&gt;0 -->
<g id="edge2" class="edge">
<title>10&#45;&gt;0</title>
<path fill="none" stroke="grey" stroke-width="2" d="M486.74,-71.34C460.82,-60.41 427.75,-46.46 402.26,-35.71"/>
<polygon fill="grey" stroke="grey" stroke-width="2" points="403.78,-32.56 393.21,-31.9 401.06,-39.01 403.78,-32.56"/>
</g>
<!-- 11 -->
<g id="node12" class="node">
<title>11</title>
<path fill="none" stroke="#56b9d8" stroke-width="2" d="M639.62,-108C639.62,-108 599.62,-108 599.62,-108 593.62,-108 587.62,-102 587.62,-96 587.62,-96 587.62,-84 587.62,-84 587.62,-78 593.62,-72 599.62,-72 599.62,-72 639.62,-72 639.62,-72 645.62,-72 651.62,-78 651.62,-84 651.62,-84 651.62,-96 651.62,-96 651.62,-102 645.62,-108 639.62,-108"/>
<text text-anchor="middle" x="619.62" y="-86.12" font-family="sans" font-size="10.00">severus_tn</text>
</g>
<!-- 11&#45;&gt;0 -->
<g id="edge6" class="edge">
<title>11&#45;&gt;0</title>
<path fill="none" stroke="grey" stroke-width="2" d="M586.67,-74.83C583.97,-73.82 581.26,-72.86 578.62,-72 518.61,-52.32 447.1,-36.15 403.29,-27.04"/>
<polygon fill="grey" stroke="grey" stroke-width="2" points="404.09,-23.63 393.59,-25.05 402.68,-30.49 404.09,-23.63"/>
</g>
<!-- 12 -->
<g id="node13" class="node">
<title>12</title>
<path fill="none" stroke="#59d856" stroke-width="2" d="M735.12,-180C735.12,-180 680.12,-180 680.12,-180 674.12,-180 668.12,-174 668.12,-168 668.12,-168 668.12,-156 668.12,-156 668.12,-150 674.12,-144 680.12,-144 680.12,-144 735.12,-144 735.12,-144 741.12,-144 747.12,-150 747.12,-156 747.12,-156 747.12,-168 747.12,-168 747.12,-174 741.12,-180 735.12,-180"/>
<text text-anchor="middle" x="707.62" y="-158.12" font-family="sans" font-size="10.00">pbsv_discover</text>
</g>
<!-- 12&#45;&gt;0 -->
<g id="edge11" class="edge">
<title>12&#45;&gt;0</title>
<path fill="none" stroke="grey" stroke-width="2" d="M703.29,-143.18C697.32,-122.62 684.48,-89.41 660.62,-72 620.25,-42.53 475.32,-27.59 403.52,-21.86"/>
<polygon fill="grey" stroke="grey" stroke-width="2" points="403.86,-18.38 393.62,-21.1 403.32,-25.36 403.86,-18.38"/>
</g>
<!-- 13 -->
<g id="node14" class="node">
<title>13</title>
<path fill="none" stroke="#61d856" stroke-width="2" d="M753.25,-108C753.25,-108 720,-108 720,-108 714,-108 708,-102 708,-96 708,-96 708,-84 708,-84 708,-78 714,-72 720,-72 720,-72 753.25,-72 753.25,-72 759.25,-72 765.25,-78 765.25,-84 765.25,-84 765.25,-96 765.25,-96 765.25,-102 759.25,-108 753.25,-108"/>
<text text-anchor="middle" x="736.62" y="-86.12" font-family="sans" font-size="10.00">pbsv_call</text>
</g>
<!-- 12&#45;&gt;13 -->
<g id="edge20" class="edge">
<title>12&#45;&gt;13</title>
<path fill="none" stroke="grey" stroke-width="2" d="M714.94,-143.34C717.77,-136.51 721.09,-128.5 724.27,-120.83"/>
<polygon fill="grey" stroke="grey" stroke-width="2" points="727.46,-122.28 728.05,-111.7 720.99,-119.6 727.46,-122.28"/>
</g>
<!-- 13&#45;&gt;0 -->
<g id="edge3" class="edge">
<title>13&#45;&gt;0</title>
<path fill="none" stroke="grey" stroke-width="2" d="M707.3,-76.43C702.78,-74.78 698.12,-73.23 693.62,-72 591.14,-43.9 466.45,-28.92 403.38,-22.64"/>
<polygon fill="grey" stroke="grey" stroke-width="2" points="403.82,-19.17 393.53,-21.69 403.15,-26.14 403.82,-19.17"/>
</g>
<!-- 14 -->
<g id="node15" class="node">
<title>14</title>
<path fill="none" stroke="#c6d856" stroke-width="2" d="M825.62,-108C825.62,-108 795.62,-108 795.62,-108 789.62,-108 783.62,-102 783.62,-96 783.62,-96 783.62,-84 783.62,-84 783.62,-78 789.62,-72 795.62,-72 795.62,-72 825.62,-72 825.62,-72 831.62,-72 837.62,-78 837.62,-84 837.62,-84 837.62,-96 837.62,-96 837.62,-102 831.62,-108 825.62,-108"/>
<text text-anchor="middle" x="810.62" y="-86.12" font-family="sans" font-size="10.00">hificnv</text>
</g>
<!-- 14&#45;&gt;0 -->
<g id="edge5" class="edge">
<title>14&#45;&gt;0</title>
<path fill="none" stroke="grey" stroke-width="2" d="M782.65,-74.77C779.98,-73.72 777.28,-72.78 774.62,-72 642.35,-33.31 477.97,-22.85 403.13,-20.03"/>
<polygon fill="grey" stroke="grey" stroke-width="2" points="403.36,-16.54 393.25,-19.69 403.12,-23.53 403.36,-16.54"/>
</g>
</g>
</svg>
