<?xml version="1.0" encoding="UTF-8" standalone="no"?>
<!DOCTYPE svg PUBLIC "-//W3C//DTD SVG 1.1//EN"
 "http://www.w3.org/Graphics/SVG/1.1/DTD/svg11.dtd">
<!-- Generated by graphviz version 2.43.0 (0)
 -->
<!-- Title: snakemake_dag Pages: 1 -->
<svg width="1579pt" height="548pt"
 viewBox="0.00 0.00 1579.00 548.00" xmlns="http://www.w3.org/2000/svg" xmlns:xlink="http://www.w3.org/1999/xlink">
<g id="graph0" class="graph" transform="scale(1 1) rotate(0) translate(4 544)">
<title>snakemake_dag</title>
<polygon fill="white" stroke="transparent" points="-4,4 -4,-544 1575,-544 1575,4 -4,4"/>
<!-- 0 -->
<g id="node1" class="node">
<title>0</title>
<path fill="none" stroke="#d88556" stroke-width="2" d="M873,-36C873,-36 843,-36 843,-36 837,-36 831,-30 831,-24 831,-24 831,-12 831,-12 831,-6 837,0 843,0 843,0 873,0 873,0 879,0 885,-6 885,-12 885,-12 885,-24 885,-24 885,-30 879,-36 873,-36"/>
<text text-anchor="middle" x="858" y="-15.5" font-family="sans" font-size="10.00">all</text>
</g>
<!-- 1 -->
<g id="node2" class="node">
<title>1</title>
<path fill="none" stroke="#56d87b" stroke-width="2" d="M202.5,-396C202.5,-396 157.5,-396 157.5,-396 151.5,-396 145.5,-390 145.5,-384 145.5,-384 145.5,-372 145.5,-372 145.5,-366 151.5,-360 157.5,-360 157.5,-360 202.5,-360 202.5,-360 208.5,-360 214.5,-366 214.5,-372 214.5,-372 214.5,-384 214.5,-384 214.5,-390 208.5,-396 202.5,-396"/>
<text text-anchor="middle" x="180" y="-375.5" font-family="sans" font-size="10.00">cnvkit_call</text>
</g>
<!-- 1&#45;&gt;0 -->
<g id="edge7" class="edge">
<title>1&#45;&gt;0</title>
<path fill="none" stroke="grey" stroke-width="2" d="M180,-359.95C180,-333.29 180,-280.11 180,-235 180,-235 180,-235 180,-161 180,-29.14 677.48,-18.99 820.17,-18.79"/>
<polygon fill="grey" stroke="grey" stroke-width="2" points="820.58,-22.29 830.58,-18.79 820.58,-15.29 820.58,-22.29"/>
</g>
<!-- 6 -->
<g id="node7" class="node">
<title>6</title>
<path fill="none" stroke="#56d8d0" stroke-width="2" d="M263.5,-324C263.5,-324 220.5,-324 220.5,-324 214.5,-324 208.5,-318 208.5,-312 208.5,-312 208.5,-300 208.5,-300 208.5,-294 214.5,-288 220.5,-288 220.5,-288 263.5,-288 263.5,-288 269.5,-288 275.5,-294 275.5,-300 275.5,-300 275.5,-312 275.5,-312 275.5,-318 269.5,-324 263.5,-324"/>
<text text-anchor="middle" x="242" y="-303.5" font-family="sans" font-size="10.00">cnvkit_vcf</text>
</g>
<!-- 1&#45;&gt;6 -->
<g id="edge28" class="edge">
<title>1&#45;&gt;6</title>
<path fill="none" stroke="grey" stroke-width="2" d="M195.33,-359.7C202.76,-351.3 211.82,-341.07 219.98,-331.86"/>
<polygon fill="grey" stroke="grey" stroke-width="2" points="222.84,-333.91 226.85,-324.1 217.6,-329.27 222.84,-333.91"/>
</g>
<!-- 2 -->
<g id="node3" class="node">
<title>2</title>
<path fill="none" stroke="#c6d856" stroke-width="2" d="M113.5,-468C113.5,-468 58.5,-468 58.5,-468 52.5,-468 46.5,-462 46.5,-456 46.5,-456 46.5,-444 46.5,-444 46.5,-438 52.5,-432 58.5,-432 58.5,-432 113.5,-432 113.5,-432 119.5,-432 125.5,-438 125.5,-444 125.5,-444 125.5,-456 125.5,-456 125.5,-462 119.5,-468 113.5,-468"/>
<text text-anchor="middle" x="86" y="-447.5" font-family="sans" font-size="10.00">cnvkit_batch</text>
</g>
<!-- 2&#45;&gt;1 -->
<g id="edge17" class="edge">
<title>2&#45;&gt;1</title>
<path fill="none" stroke="grey" stroke-width="2" d="M109.24,-431.7C121.19,-422.8 135.92,-411.82 148.85,-402.2"/>
<polygon fill="grey" stroke="grey" stroke-width="2" points="151.1,-404.88 157.03,-396.1 146.92,-399.27 151.1,-404.88"/>
</g>
<!-- 3 -->
<g id="node4" class="node">
<title>3</title>
<path fill="none" stroke="#8fd856" stroke-width="2" d="M80,-252C80,-252 12,-252 12,-252 6,-252 0,-246 0,-240 0,-240 0,-228 0,-228 0,-222 6,-216 12,-216 12,-216 80,-216 80,-216 86,-216 92,-222 92,-228 92,-228 92,-240 92,-240 92,-246 86,-252 80,-252"/>
<text text-anchor="middle" x="46" y="-231.5" font-family="sans" font-size="10.00">cnvkit_diagram</text>
</g>
<!-- 2&#45;&gt;3 -->
<g id="edge18" class="edge">
<title>2&#45;&gt;3</title>
<path fill="none" stroke="grey" stroke-width="2" d="M81.39,-431.73C75.11,-407.72 63.88,-362.83 57,-324 53.35,-303.43 50.51,-279.98 48.63,-262.32"/>
<polygon fill="grey" stroke="grey" stroke-width="2" points="52.08,-261.73 47.58,-252.14 45.12,-262.45 52.08,-261.73"/>
</g>
<!-- 4 -->
<g id="node5" class="node">
<title>4</title>
<path fill="none" stroke="#d8c356" stroke-width="2" d="M140,-324C140,-324 78,-324 78,-324 72,-324 66,-318 66,-312 66,-312 66,-300 66,-300 66,-294 72,-288 78,-288 78,-288 140,-288 140,-288 146,-288 152,-294 152,-300 152,-300 152,-312 152,-312 152,-318 146,-324 140,-324"/>
<text text-anchor="middle" x="109" y="-303.5" font-family="sans" font-size="10.00">cnvkit_scatter</text>
</g>
<!-- 2&#45;&gt;4 -->
<g id="edge19" class="edge">
<title>2&#45;&gt;4</title>
<path fill="none" stroke="grey" stroke-width="2" d="M88.77,-431.87C92.69,-407.67 99.9,-363.21 104.56,-334.39"/>
<polygon fill="grey" stroke="grey" stroke-width="2" points="108.07,-334.62 106.22,-324.19 101.16,-333.5 108.07,-334.62"/>
</g>
<!-- 3&#45;&gt;0 -->
<g id="edge9" class="edge">
<title>3&#45;&gt;0</title>
<path fill="none" stroke="grey" stroke-width="2" d="M48.31,-215.74C53.89,-181.67 71.49,-106.12 121,-72 178.91,-32.1 678.38,-21.67 820.45,-19.5"/>
<polygon fill="grey" stroke="grey" stroke-width="2" points="820.86,-22.99 830.81,-19.34 820.76,-15.99 820.86,-22.99"/>
</g>
<!-- 4&#45;&gt;0 -->
<g id="edge15" class="edge">
<title>4&#45;&gt;0</title>
<path fill="none" stroke="grey" stroke-width="2" d="M107.16,-287.84C103.53,-243.99 100.75,-127.37 166,-72 216.09,-29.49 683.08,-20.95 820.27,-19.35"/>
<polygon fill="grey" stroke="grey" stroke-width="2" points="820.72,-22.84 830.68,-19.23 820.64,-15.84 820.72,-22.84"/>
</g>
<!-- 5 -->
<g id="node6" class="node">
<title>5</title>
<path fill="none" stroke="#56d892" stroke-width="2" d="M539,-108C539,-108 509,-108 509,-108 503,-108 497,-102 497,-96 497,-96 497,-84 497,-84 497,-78 503,-72 509,-72 509,-72 539,-72 539,-72 545,-72 551,-78 551,-84 551,-84 551,-96 551,-96 551,-102 545,-108 539,-108"/>
<text text-anchor="middle" x="524" y="-87.5" font-family="sans" font-size="10.00">bgzip</text>
</g>
<!-- 5&#45;&gt;0 -->
<g id="edge8" class="edge">
<title>5&#45;&gt;0</title>
<path fill="none" stroke="grey" stroke-width="2" d="M551.05,-83.33C610.58,-70.85 753.02,-41 820.86,-26.78"/>
<polygon fill="grey" stroke="grey" stroke-width="2" points="821.63,-30.2 830.7,-24.72 820.19,-23.35 821.63,-30.2"/>
</g>
<!-- 6&#45;&gt;5 -->
<g id="edge25" class="edge">
<title>6&#45;&gt;5</title>
<path fill="none" stroke="grey" stroke-width="2" d="M236.39,-287.79C226.85,-254.8 211.95,-182.53 250,-144 282.56,-111.03 419.42,-97.74 486.55,-93.13"/>
<polygon fill="grey" stroke="grey" stroke-width="2" points="486.95,-96.61 496.7,-92.46 486.49,-89.63 486.95,-96.61"/>
</g>
<!-- 15 -->
<g id="node19" class="node">
<title>15</title>
<path fill="none" stroke="#d87d56" stroke-width="2" d="M492.5,-252C492.5,-252 439.5,-252 439.5,-252 433.5,-252 427.5,-246 427.5,-240 427.5,-240 427.5,-228 427.5,-228 427.5,-222 433.5,-216 439.5,-216 439.5,-216 492.5,-216 492.5,-216 498.5,-216 504.5,-222 504.5,-228 504.5,-228 504.5,-240 504.5,-240 504.5,-246 498.5,-252 492.5,-252"/>
<text text-anchor="middle" x="466" y="-231.5" font-family="sans" font-size="10.00">svdb_merge</text>
</g>
<!-- 6&#45;&gt;15 -->
<g id="edge34" class="edge">
<title>6&#45;&gt;15</title>
<path fill="none" stroke="grey" stroke-width="2" d="M275.54,-294.52C313.24,-282.74 374.79,-263.5 417.68,-250.1"/>
<polygon fill="grey" stroke="grey" stroke-width="2" points="418.84,-253.4 427.34,-247.08 416.75,-246.72 418.84,-253.4"/>
</g>
<!-- 7 -->
<g id="node8" class="node">
<title>7</title>
<path fill="none" stroke="#d89556" stroke-width="2" d="M334.5,-180C334.5,-180 271.5,-180 271.5,-180 265.5,-180 259.5,-174 259.5,-168 259.5,-168 259.5,-156 259.5,-156 259.5,-150 265.5,-144 271.5,-144 271.5,-144 334.5,-144 334.5,-144 340.5,-144 346.5,-150 346.5,-156 346.5,-156 346.5,-168 346.5,-168 346.5,-174 340.5,-180 334.5,-180"/>
<text text-anchor="middle" x="303" y="-159.5" font-family="sans" font-size="10.00">cnvpytor_filter</text>
</g>
<!-- 7&#45;&gt;5 -->
<g id="edge24" class="edge">
<title>7&#45;&gt;5</title>
<path fill="none" stroke="grey" stroke-width="2" d="M346.66,-147.17C387.66,-134.19 448.31,-114.98 486.99,-102.72"/>
<polygon fill="grey" stroke="grey" stroke-width="2" points="488.32,-105.97 496.8,-99.62 486.21,-99.3 488.32,-105.97"/>
</g>
<!-- 8 -->
<g id="node9" class="node">
<title>8</title>
<path fill="none" stroke="#a7d856" stroke-width="2" d="M348,-252C348,-252 258,-252 258,-252 252,-252 246,-246 246,-240 246,-240 246,-228 246,-228 246,-222 252,-216 258,-216 258,-216 348,-216 348,-216 354,-216 360,-222 360,-228 360,-228 360,-240 360,-240 360,-246 354,-252 348,-252"/>
<text text-anchor="middle" x="303" y="-231.5" font-family="sans" font-size="10.00">cnvpytor_readdepth</text>
</g>
<!-- 8&#45;&gt;7 -->
<g id="edge29" class="edge">
<title>8&#45;&gt;7</title>
<path fill="none" stroke="grey" stroke-width="2" d="M303,-215.7C303,-207.98 303,-198.71 303,-190.11"/>
<polygon fill="grey" stroke="grey" stroke-width="2" points="306.5,-190.1 303,-180.1 299.5,-190.1 306.5,-190.1"/>
</g>
<!-- 9 -->
<g id="node10" class="node">
<title>9</title>
<path fill="none" stroke="#d8cb56" stroke-width="2" d="M766,-252C766,-252 692,-252 692,-252 686,-252 680,-246 680,-240 680,-240 680,-228 680,-228 680,-222 686,-216 692,-216 692,-216 766,-216 766,-216 772,-216 778,-222 778,-228 778,-228 778,-240 778,-240 778,-246 772,-252 766,-252"/>
<text text-anchor="middle" x="729" y="-231.5" font-family="sans" font-size="10.00">expansionhunter</text>
</g>
<!-- 9&#45;&gt;5 -->
<g id="edge27" class="edge">
<title>9&#45;&gt;5</title>
<path fill="none" stroke="grey" stroke-width="2" d="M696.59,-215.89C678.84,-206.08 656.7,-193.13 638,-180 617.6,-165.68 614.55,-159.46 595,-144 582.35,-134 568.16,-123.3 555.81,-114.16"/>
<polygon fill="grey" stroke="grey" stroke-width="2" points="557.72,-111.22 547.59,-108.1 553.57,-116.85 557.72,-111.22"/>
</g>
<!-- 23 -->
<g id="node27" class="node">
<title>23</title>
<path fill="none" stroke="#d6d856" stroke-width="2" d="M740.5,-108C740.5,-108 705.5,-108 705.5,-108 699.5,-108 693.5,-102 693.5,-96 693.5,-96 693.5,-84 693.5,-84 693.5,-78 699.5,-72 705.5,-72 705.5,-72 740.5,-72 740.5,-72 746.5,-72 752.5,-78 752.5,-84 752.5,-84 752.5,-96 752.5,-96 752.5,-102 746.5,-108 740.5,-108"/>
<text text-anchor="middle" x="723" y="-87.5" font-family="sans" font-size="10.00">reviewer</text>
</g>
<!-- 9&#45;&gt;23 -->
<g id="edge41" class="edge">
<title>9&#45;&gt;23</title>
<path fill="none" stroke="grey" stroke-width="2" d="M728.28,-215.87C727.25,-191.67 725.38,-147.21 724.16,-118.39"/>
<polygon fill="grey" stroke="grey" stroke-width="2" points="727.65,-118.03 723.73,-108.19 720.65,-118.33 727.65,-118.03"/>
</g>
<!-- 24 -->
<g id="node28" class="node">
<title>24</title>
<path fill="none" stroke="#567bd8" stroke-width="2" d="M903.5,-180C903.5,-180 768.5,-180 768.5,-180 762.5,-180 756.5,-174 756.5,-168 756.5,-168 756.5,-156 756.5,-156 756.5,-150 762.5,-144 768.5,-144 768.5,-144 903.5,-144 903.5,-144 909.5,-144 915.5,-150 915.5,-156 915.5,-156 915.5,-168 915.5,-168 915.5,-174 909.5,-180 903.5,-180"/>
<text text-anchor="middle" x="836" y="-159.5" font-family="sans" font-size="10.00">reviewer_generate_locus_list</text>
</g>
<!-- 9&#45;&gt;24 -->
<g id="edge43" class="edge">
<title>9&#45;&gt;24</title>
<path fill="none" stroke="grey" stroke-width="2" d="M755.18,-215.88C769.04,-206.81 786.24,-195.55 801.21,-185.76"/>
<polygon fill="grey" stroke="grey" stroke-width="2" points="803.27,-188.59 809.72,-180.19 799.44,-182.74 803.27,-188.59"/>
</g>
<!-- 10 -->
<g id="node11" class="node">
<title>10</title>
<path fill="none" stroke="#78d856" stroke-width="2" d="M413,-324C413,-324 363,-324 363,-324 357,-324 351,-318 351,-312 351,-312 351,-300 351,-300 351,-294 357,-288 363,-288 363,-288 413,-288 413,-288 419,-288 425,-294 425,-300 425,-300 425,-312 425,-312 425,-318 419,-324 413,-324"/>
<text text-anchor="middle" x="388" y="-303.5" font-family="sans" font-size="10.00">gatk_to_vcf</text>
</g>
<!-- 10&#45;&gt;5 -->
<g id="edge23" class="edge">
<title>10&#45;&gt;5</title>
<path fill="none" stroke="grey" stroke-width="2" d="M383.1,-287.85C375.17,-256.21 363.29,-187.89 394,-144 415,-113.99 456.14,-100.95 486.54,-95.3"/>
<polygon fill="grey" stroke="grey" stroke-width="2" points="487.51,-98.68 496.8,-93.59 486.36,-91.78 487.51,-98.68"/>
</g>
<!-- 10&#45;&gt;15 -->
<g id="edge36" class="edge">
<title>10&#45;&gt;15</title>
<path fill="none" stroke="grey" stroke-width="2" d="M407.28,-287.7C416.92,-279.05 428.73,-268.45 439.23,-259.03"/>
<polygon fill="grey" stroke="grey" stroke-width="2" points="441.84,-261.39 446.94,-252.1 437.16,-256.18 441.84,-261.39"/>
</g>
<!-- 11 -->
<g id="node12" class="node">
<title>11</title>
<path fill="none" stroke="#61d856" stroke-width="2" d="M417,-396C417,-396 313,-396 313,-396 307,-396 301,-390 301,-384 301,-384 301,-372 301,-372 301,-366 307,-360 313,-360 313,-360 417,-360 417,-360 423,-360 429,-366 429,-372 429,-372 429,-384 429,-384 429,-390 423,-396 417,-396"/>
<text text-anchor="middle" x="365" y="-375.5" font-family="sans" font-size="10.00">gatk_model_segments</text>
</g>
<!-- 11&#45;&gt;10 -->
<g id="edge30" class="edge">
<title>11&#45;&gt;10</title>
<path fill="none" stroke="grey" stroke-width="2" d="M370.69,-359.7C373.25,-351.9 376.33,-342.51 379.18,-333.83"/>
<polygon fill="grey" stroke="grey" stroke-width="2" points="382.58,-334.7 382.38,-324.1 375.93,-332.51 382.58,-334.7"/>
</g>
<!-- 12 -->
<g id="node13" class="node">
<title>12</title>
<path fill="none" stroke="#88d856" stroke-width="2" d="M444,-468C444,-468 320,-468 320,-468 314,-468 308,-462 308,-456 308,-456 308,-444 308,-444 308,-438 314,-432 320,-432 320,-432 444,-432 444,-432 450,-432 456,-438 456,-444 456,-444 456,-456 456,-456 456,-462 450,-468 444,-468"/>
<text text-anchor="middle" x="382" y="-447.5" font-family="sans" font-size="10.00">gatk_collect_allelic_counts</text>
</g>
<!-- 12&#45;&gt;11 -->
<g id="edge32" class="edge">
<title>12&#45;&gt;11</title>
<path fill="none" stroke="grey" stroke-width="2" d="M377.8,-431.7C375.9,-423.9 373.62,-414.51 371.52,-405.83"/>
<polygon fill="grey" stroke="grey" stroke-width="2" points="374.92,-405 369.15,-396.1 368.11,-406.65 374.92,-405"/>
</g>
<!-- 13 -->
<g id="node14" class="node">
<title>13</title>
<path fill="none" stroke="#56d89a" stroke-width="2" d="M278,-468C278,-468 156,-468 156,-468 150,-468 144,-462 144,-456 144,-456 144,-444 144,-444 144,-438 150,-432 156,-432 156,-432 278,-432 278,-432 284,-432 290,-438 290,-444 290,-444 290,-456 290,-456 290,-462 284,-468 278,-468"/>
<text text-anchor="middle" x="217" y="-447.5" font-family="sans" font-size="10.00">gatk_denoise_read_counts</text>
</g>
<!-- 13&#45;&gt;11 -->
<g id="edge31" class="edge">
<title>13&#45;&gt;11</title>
<path fill="none" stroke="grey" stroke-width="2" d="M253.2,-431.88C273.26,-422.39 298.37,-410.51 319.71,-400.42"/>
<polygon fill="grey" stroke="grey" stroke-width="2" points="321.37,-403.51 328.91,-396.07 318.38,-397.18 321.37,-403.51"/>
</g>
<!-- 14 -->
<g id="node15" class="node">
<title>14</title>
<path fill="none" stroke="#56b9d8" stroke-width="2" d="M275,-540C275,-540 159,-540 159,-540 153,-540 147,-534 147,-528 147,-528 147,-516 147,-516 147,-510 153,-504 159,-504 159,-504 275,-504 275,-504 281,-504 287,-510 287,-516 287,-516 287,-528 287,-528 287,-534 281,-540 275,-540"/>
<text text-anchor="middle" x="217" y="-519.5" font-family="sans" font-size="10.00">gatk_collect_read_counts</text>
</g>
<!-- 14&#45;&gt;13 -->
<g id="edge33" class="edge">
<title>14&#45;&gt;13</title>
<path fill="none" stroke="grey" stroke-width="2" d="M217,-503.7C217,-495.98 217,-486.71 217,-478.11"/>
<polygon fill="grey" stroke="grey" stroke-width="2" points="220.5,-478.1 217,-468.1 213.5,-478.1 220.5,-478.1"/>
</g>
<!-- 35 -->
<g id="node16" class="node">
<title>35</title>
<path fill="none" stroke="#56b9d8" stroke-width="2" d="M533.5,-468C533.5,-468 486.5,-468 486.5,-468 480.5,-468 474.5,-462 474.5,-456 474.5,-456 474.5,-444 474.5,-444 474.5,-438 480.5,-432 486.5,-432 486.5,-432 533.5,-432 533.5,-432 539.5,-432 545.5,-438 545.5,-444 545.5,-444 545.5,-456 545.5,-456 545.5,-462 539.5,-468 533.5,-468"/>
<text text-anchor="middle" x="510" y="-447.5" font-family="sans" font-size="10.00">jumble_run</text>
</g>
<!-- 36 -->
<g id="node17" class="node">
<title>36</title>
<path fill="none" stroke="#56b9d8" stroke-width="2" d="M543,-396C543,-396 459,-396 459,-396 453,-396 447,-390 447,-384 447,-384 447,-372 447,-372 447,-366 453,-360 459,-360 459,-360 543,-360 543,-360 549,-360 555,-366 555,-372 555,-372 555,-384 555,-384 555,-390 549,-396 543,-396"/>
<text text-anchor="middle" x="501" y="-375.5" font-family="sans" font-size="10.00">jumble_cnvkit_call</text>
</g>
<!-- 35&#45;&gt;36 -->
<g id="edge1" class="edge">
<title>35&#45;&gt;36</title>
<path fill="none" stroke="grey" stroke-width="2" d="M507.78,-431.7C506.78,-423.98 505.59,-414.71 504.49,-406.11"/>
<polygon fill="grey" stroke="grey" stroke-width="2" points="507.95,-405.58 503.2,-396.1 501,-406.47 507.95,-405.58"/>
</g>
<!-- 37 -->
<g id="node18" class="node">
<title>37</title>
<path fill="none" stroke="#56b9d8" stroke-width="2" d="M516.5,-324C516.5,-324 469.5,-324 469.5,-324 463.5,-324 457.5,-318 457.5,-312 457.5,-312 457.5,-300 457.5,-300 457.5,-294 463.5,-288 469.5,-288 469.5,-288 516.5,-288 516.5,-288 522.5,-288 528.5,-294 528.5,-300 528.5,-300 528.5,-312 528.5,-312 528.5,-318 522.5,-324 516.5,-324"/>
<text text-anchor="middle" x="493" y="-303.5" font-family="sans" font-size="10.00">jumble_vcf</text>
</g>
<!-- 36&#45;&gt;37 -->
<g id="edge2" class="edge">
<title>36&#45;&gt;37</title>
<path fill="none" stroke="grey" stroke-width="2" d="M499.02,-359.7C498.14,-351.98 497.08,-342.71 496.1,-334.11"/>
<polygon fill="grey" stroke="grey" stroke-width="2" points="499.57,-333.64 494.95,-324.1 492.61,-334.44 499.57,-333.64"/>
</g>
<!-- 37&#45;&gt;5 -->
<g id="edge4" class="edge">
<title>37&#45;&gt;5</title>
<path fill="none" stroke="grey" stroke-width="2" d="M500.99,-287.72C505.32,-277.55 510.32,-264.3 513,-252 523.07,-205.76 524.64,-150.45 524.54,-118.17"/>
<polygon fill="grey" stroke="grey" stroke-width="2" points="528.04,-118.12 524.46,-108.15 521.04,-118.18 528.04,-118.12"/>
</g>
<!-- 37&#45;&gt;15 -->
<g id="edge3" class="edge">
<title>37&#45;&gt;15</title>
<path fill="none" stroke="grey" stroke-width="2" d="M486.33,-287.7C483.29,-279.81 479.62,-270.3 476.24,-261.55"/>
<polygon fill="grey" stroke="grey" stroke-width="2" points="479.46,-260.17 472.6,-252.1 472.93,-262.69 479.46,-260.17"/>
</g>
<!-- 15&#45;&gt;5 -->
<g id="edge22" class="edge">
<title>15&#45;&gt;5</title>
<path fill="none" stroke="grey" stroke-width="2" d="M473,-215.87C482.97,-191.46 501.36,-146.43 513.12,-117.64"/>
<polygon fill="grey" stroke="grey" stroke-width="2" points="516.44,-118.77 516.98,-108.19 509.96,-116.12 516.44,-118.77"/>
</g>
<!-- 20 -->
<g id="node24" class="node">
<title>20</title>
<path fill="none" stroke="#d85e56" stroke-width="2" d="M464.5,-180C464.5,-180 415.5,-180 415.5,-180 409.5,-180 403.5,-174 403.5,-168 403.5,-168 403.5,-156 403.5,-156 403.5,-150 409.5,-144 415.5,-144 415.5,-144 464.5,-144 464.5,-144 470.5,-144 476.5,-150 476.5,-156 476.5,-156 476.5,-168 476.5,-168 476.5,-174 470.5,-180 464.5,-180"/>
<text text-anchor="middle" x="440" y="-159.5" font-family="sans" font-size="10.00">svdb_query</text>
</g>
<!-- 15&#45;&gt;20 -->
<g id="edge40" class="edge">
<title>15&#45;&gt;20</title>
<path fill="none" stroke="grey" stroke-width="2" d="M459.57,-215.7C456.64,-207.81 453.11,-198.3 449.86,-189.55"/>
<polygon fill="grey" stroke="grey" stroke-width="2" points="453.12,-188.26 446.35,-180.1 446.55,-190.7 453.12,-188.26"/>
</g>
<!-- 16 -->
<g id="node20" class="node">
<title>16</title>
<path fill="none" stroke="#566bd8" stroke-width="2" d="M641,-324C641,-324 559,-324 559,-324 553,-324 547,-318 547,-312 547,-312 547,-300 547,-300 547,-294 553,-288 559,-288 559,-288 641,-288 641,-288 647,-288 653,-294 653,-300 653,-300 653,-312 653,-312 653,-318 647,-324 641,-324"/>
<text text-anchor="middle" x="600" y="-303.5" font-family="sans" font-size="10.00">pindel_update_vcf</text>
</g>
<!-- 16&#45;&gt;5 -->
<g id="edge26" class="edge">
<title>16&#45;&gt;5</title>
<path fill="none" stroke="grey" stroke-width="2" d="M593.91,-287.85C580.71,-250.68 549.37,-162.44 533.52,-117.82"/>
<polygon fill="grey" stroke="grey" stroke-width="2" points="536.76,-116.48 530.12,-108.23 530.17,-118.83 536.76,-116.48"/>
</g>
<!-- 16&#45;&gt;15 -->
<g id="edge35" class="edge">
<title>16&#45;&gt;15</title>
<path fill="none" stroke="grey" stroke-width="2" d="M567.22,-287.88C549.37,-278.55 527.1,-266.92 508,-256.94"/>
<polygon fill="grey" stroke="grey" stroke-width="2" points="509.39,-253.72 498.91,-252.19 506.15,-259.92 509.39,-253.72"/>
</g>
<!-- 17 -->
<g id="node21" class="node">
<title>17</title>
<path fill="none" stroke="#d87556" stroke-width="2" d="M629,-396C629,-396 585,-396 585,-396 579,-396 573,-390 573,-384 573,-384 573,-372 573,-372 573,-366 579,-360 585,-360 585,-360 629,-360 629,-360 635,-360 641,-366 641,-372 641,-372 641,-384 641,-384 641,-390 635,-396 629,-396"/>
<text text-anchor="middle" x="607" y="-375.5" font-family="sans" font-size="10.00">pindel2vcf</text>
</g>
<!-- 17&#45;&gt;16 -->
<g id="edge37" class="edge">
<title>17&#45;&gt;16</title>
<path fill="none" stroke="grey" stroke-width="2" d="M605.27,-359.7C604.5,-351.98 603.57,-342.71 602.71,-334.11"/>
<polygon fill="grey" stroke="grey" stroke-width="2" points="606.19,-333.71 601.71,-324.1 599.22,-334.4 606.19,-333.71"/>
</g>
<!-- 18 -->
<g id="node22" class="node">
<title>18</title>
<path fill="none" stroke="#5663d8" stroke-width="2" d="M629.5,-468C629.5,-468 584.5,-468 584.5,-468 578.5,-468 572.5,-462 572.5,-456 572.5,-456 572.5,-444 572.5,-444 572.5,-438 578.5,-432 584.5,-432 584.5,-432 629.5,-432 629.5,-432 635.5,-432 641.5,-438 641.5,-444 641.5,-444 641.5,-456 641.5,-456 641.5,-462 635.5,-468 629.5,-468"/>
<text text-anchor="middle" x="607" y="-447.5" font-family="sans" font-size="10.00">pindel_call</text>
</g>
<!-- 18&#45;&gt;17 -->
<g id="edge38" class="edge">
<title>18&#45;&gt;17</title>
<path fill="none" stroke="grey" stroke-width="2" d="M607,-431.7C607,-423.98 607,-414.71 607,-406.11"/>
<polygon fill="grey" stroke="grey" stroke-width="2" points="610.5,-406.1 607,-396.1 603.5,-406.1 610.5,-406.1"/>
</g>
<!-- 19 -->
<g id="node23" class="node">
<title>19</title>
<path fill="none" stroke="#569ad8" stroke-width="2" d="M660,-540C660,-540 554,-540 554,-540 548,-540 542,-534 542,-528 542,-528 542,-516 542,-516 542,-510 548,-504 554,-504 554,-504 660,-504 660,-504 666,-504 672,-510 672,-516 672,-516 672,-528 672,-528 672,-534 666,-540 660,-540"/>
<text text-anchor="middle" x="607" y="-519.5" font-family="sans" font-size="10.00">pindel_generate_config</text>
</g>
<!-- 19&#45;&gt;18 -->
<g id="edge39" class="edge">
<title>19&#45;&gt;18</title>
<path fill="none" stroke="grey" stroke-width="2" d="M607,-503.7C607,-495.98 607,-486.71 607,-478.11"/>
<polygon fill="grey" stroke="grey" stroke-width="2" points="610.5,-478.1 607,-468.1 603.5,-478.1 610.5,-478.1"/>
</g>
<!-- 20&#45;&gt;5 -->
<g id="edge20" class="edge">
<title>20&#45;&gt;5</title>
<path fill="none" stroke="grey" stroke-width="2" d="M460.76,-143.7C471.24,-134.97 484.11,-124.24 495.5,-114.75"/>
<polygon fill="grey" stroke="grey" stroke-width="2" points="498.03,-117.19 503.47,-108.1 493.55,-111.82 498.03,-117.19"/>
</g>
<!-- 21 -->
<g id="node25" class="node">
<title>21</title>
<path fill="none" stroke="#d89c56" stroke-width="2" d="M1559,-180C1559,-180 1483,-180 1483,-180 1477,-180 1471,-174 1471,-168 1471,-168 1471,-156 1471,-156 1471,-150 1477,-144 1483,-144 1483,-144 1559,-144 1559,-144 1565,-144 1571,-150 1571,-156 1571,-156 1571,-168 1571,-168 1571,-174 1565,-180 1559,-180"/>
<text text-anchor="middle" x="1521" y="-159.5" font-family="sans" font-size="10.00">exomedepth_sex</text>
</g>
<!-- 34 -->
<g id="node38" class="node">
<title>34</title>
<path fill="none" stroke="#56d8b9" stroke-width="2" d="M1559,-108C1559,-108 1483,-108 1483,-108 1477,-108 1471,-102 1471,-96 1471,-96 1471,-84 1471,-84 1471,-78 1477,-72 1483,-72 1483,-72 1559,-72 1559,-72 1565,-72 1571,-78 1571,-84 1571,-84 1571,-96 1571,-96 1571,-102 1565,-108 1559,-108"/>
<text text-anchor="middle" x="1521" y="-87.5" font-family="sans" font-size="10.00">exomedepth_call</text>
</g>
<!-- 21&#45;&gt;34 -->
<g id="edge47" class="edge">
<title>21&#45;&gt;34</title>
<path fill="none" stroke="grey" stroke-width="2" d="M1521,-143.7C1521,-135.98 1521,-126.71 1521,-118.11"/>
<polygon fill="grey" stroke="grey" stroke-width="2" points="1524.5,-118.1 1521,-108.1 1517.5,-118.1 1524.5,-118.1"/>
</g>
<!-- 22 -->
<g id="node26" class="node">
<title>22</title>
<path fill="none" stroke="#56d88a" stroke-width="2" d="M689,-180C689,-180 659,-180 659,-180 653,-180 647,-174 647,-168 647,-168 647,-156 647,-156 647,-150 653,-144 659,-144 659,-144 689,-144 689,-144 695,-144 701,-150 701,-156 701,-156 701,-168 701,-168 701,-174 695,-180 689,-180"/>
<text text-anchor="middle" x="674" y="-159.5" font-family="sans" font-size="10.00">tiddit</text>
</g>
<!-- 22&#45;&gt;5 -->
<g id="edge21" class="edge">
<title>22&#45;&gt;5</title>
<path fill="none" stroke="grey" stroke-width="2" d="M646.84,-148.32C622.7,-137.06 587.22,-120.5 560.59,-108.07"/>
<polygon fill="grey" stroke="grey" stroke-width="2" points="561.76,-104.76 551.21,-103.7 558.8,-111.1 561.76,-104.76"/>
</g>
<!-- 23&#45;&gt;0 -->
<g id="edge16" class="edge">
<title>23&#45;&gt;0</title>
<path fill="none" stroke="grey" stroke-width="2" d="M752.63,-73.64C773,-63.07 800.18,-48.98 821.83,-37.75"/>
<polygon fill="grey" stroke="grey" stroke-width="2" points="823.47,-40.85 830.74,-33.14 820.25,-34.63 823.47,-40.85"/>
</g>
<!-- 24&#45;&gt;23 -->
<g id="edge42" class="edge">
<title>24&#45;&gt;23</title>
<path fill="none" stroke="grey" stroke-width="2" d="M808.36,-143.88C793.58,-134.72 775.21,-123.34 759.3,-113.48"/>
<polygon fill="grey" stroke="grey" stroke-width="2" points="761.09,-110.48 750.75,-108.19 757.41,-116.43 761.09,-110.48"/>
</g>
<!-- 25 -->
<g id="node29" class="node">
<title>25</title>
<path fill="none" stroke="#80d856" stroke-width="2" d="M819,-108C819,-108 783,-108 783,-108 777,-108 771,-102 771,-96 771,-96 771,-84 771,-84 771,-78 777,-72 783,-72 783,-72 819,-72 819,-72 825,-72 831,-78 831,-84 831,-84 831,-96 831,-96 831,-102 825,-108 819,-108"/>
<text text-anchor="middle" x="801" y="-87.5" font-family="sans" font-size="10.00">automap</text>
</g>
<!-- 25&#45;&gt;0 -->
<g id="edge11" class="edge">
<title>25&#45;&gt;0</title>
<path fill="none" stroke="grey" stroke-width="2" d="M815.09,-71.7C821.92,-63.3 830.26,-53.07 837.76,-43.86"/>
<polygon fill="grey" stroke="grey" stroke-width="2" points="840.47,-46.07 844.07,-36.1 835.04,-41.65 840.47,-46.07"/>
</g>
<!-- 26 -->
<g id="node30" class="node">
<title>26</title>
<path fill="none" stroke="#56d8b1" stroke-width="2" d="M971,-108C971,-108 861,-108 861,-108 855,-108 849,-102 849,-96 849,-96 849,-84 849,-84 849,-78 855,-72 861,-72 861,-72 971,-72 971,-72 977,-72 983,-78 983,-84 983,-84 983,-96 983,-96 983,-102 977,-108 971,-108"/>
<text text-anchor="middle" x="916" y="-87.5" font-family="sans" font-size="10.00">manta_run_workflow_tn</text>
</g>
<!-- 26&#45;&gt;0 -->
<g id="edge10" class="edge">
<title>26&#45;&gt;0</title>
<path fill="none" stroke="grey" stroke-width="2" d="M901.66,-71.7C894.71,-63.3 886.23,-53.07 878.6,-43.86"/>
<polygon fill="grey" stroke="grey" stroke-width="2" points="881.25,-41.57 872.17,-36.1 875.86,-46.04 881.25,-41.57"/>
</g>
<!-- 27 -->
<g id="node31" class="node">
<title>27</title>
<path fill="none" stroke="#9fd856" stroke-width="2" d="M1019,-180C1019,-180 945,-180 945,-180 939,-180 933,-174 933,-168 933,-168 933,-156 933,-156 933,-150 939,-144 945,-144 945,-144 1019,-144 1019,-144 1025,-144 1031,-150 1031,-156 1031,-156 1031,-168 1031,-168 1031,-174 1025,-180 1019,-180"/>
<text text-anchor="middle" x="982" y="-159.5" font-family="sans" font-size="10.00">manta_config_tn</text>
</g>
<!-- 27&#45;&gt;26 -->
<g id="edge44" class="edge">
<title>27&#45;&gt;26</title>
<path fill="none" stroke="grey" stroke-width="2" d="M965.69,-143.7C957.69,-135.22 947.93,-124.86 939.18,-115.58"/>
<polygon fill="grey" stroke="grey" stroke-width="2" points="941.53,-112.98 932.13,-108.1 936.44,-117.78 941.53,-112.98"/>
</g>
<!-- 28 -->
<g id="node32" class="node">
<title>28</title>
<path fill="none" stroke="#56d873" stroke-width="2" d="M1117,-108C1117,-108 1013,-108 1013,-108 1007,-108 1001,-102 1001,-96 1001,-96 1001,-84 1001,-84 1001,-78 1007,-72 1013,-72 1013,-72 1117,-72 1117,-72 1123,-72 1129,-78 1129,-84 1129,-84 1129,-96 1129,-96 1129,-102 1123,-108 1117,-108"/>
<text text-anchor="middle" x="1065" y="-87.5" font-family="sans" font-size="10.00">manta_run_workflow_t</text>
</g>
<!-- 28&#45;&gt;0 -->
<g id="edge6" class="edge">
<title>28&#45;&gt;0</title>
<path fill="none" stroke="grey" stroke-width="2" d="M1014.63,-71.97C977.64,-59.46 928.25,-42.75 894.89,-31.48"/>
<polygon fill="grey" stroke="grey" stroke-width="2" points="895.68,-28.05 885.09,-28.16 893.44,-34.68 895.68,-28.05"/>
</g>
<!-- 29 -->
<g id="node33" class="node">
<title>29</title>
<path fill="none" stroke="#b6d856" stroke-width="2" d="M1129,-180C1129,-180 1061,-180 1061,-180 1055,-180 1049,-174 1049,-168 1049,-168 1049,-156 1049,-156 1049,-150 1055,-144 1061,-144 1061,-144 1129,-144 1129,-144 1135,-144 1141,-150 1141,-156 1141,-156 1141,-168 1141,-168 1141,-174 1135,-180 1129,-180"/>
<text text-anchor="middle" x="1095" y="-159.5" font-family="sans" font-size="10.00">manta_config_t</text>
</g>
<!-- 29&#45;&gt;28 -->
<g id="edge45" class="edge">
<title>29&#45;&gt;28</title>
<path fill="none" stroke="grey" stroke-width="2" d="M1087.58,-143.7C1084.21,-135.81 1080.13,-126.3 1076.38,-117.55"/>
<polygon fill="grey" stroke="grey" stroke-width="2" points="1079.49,-115.92 1072.33,-108.1 1073.05,-118.67 1079.49,-115.92"/>
</g>
<!-- 30 -->
<g id="node34" class="node">
<title>30</title>
<path fill="none" stroke="#d86e56" stroke-width="2" d="M1265,-108C1265,-108 1159,-108 1159,-108 1153,-108 1147,-102 1147,-96 1147,-96 1147,-84 1147,-84 1147,-78 1153,-72 1159,-72 1159,-72 1265,-72 1265,-72 1271,-72 1277,-78 1277,-84 1277,-84 1277,-96 1277,-96 1277,-102 1271,-108 1265,-108"/>
<text text-anchor="middle" x="1212" y="-87.5" font-family="sans" font-size="10.00">manta_run_workflow_n</text>
</g>
<!-- 30&#45;&gt;0 -->
<g id="edge5" class="edge">
<title>30&#45;&gt;0</title>
<path fill="none" stroke="grey" stroke-width="2" d="M1146.66,-73.85C1143.74,-73.21 1140.84,-72.59 1138,-72 1051.29,-53.84 948.89,-35.15 895.17,-25.56"/>
<polygon fill="grey" stroke="grey" stroke-width="2" points="895.56,-22.08 885.1,-23.77 894.33,-28.97 895.56,-22.08"/>
</g>
<!-- 31 -->
<g id="node35" class="node">
<title>31</title>
<path fill="none" stroke="#56d0d8" stroke-width="2" d="M1247,-180C1247,-180 1177,-180 1177,-180 1171,-180 1165,-174 1165,-168 1165,-168 1165,-156 1165,-156 1165,-150 1171,-144 1177,-144 1177,-144 1247,-144 1247,-144 1253,-144 1259,-150 1259,-156 1259,-156 1259,-168 1259,-168 1259,-174 1253,-180 1247,-180"/>
<text text-anchor="middle" x="1212" y="-159.5" font-family="sans" font-size="10.00">manta_config_n</text>
</g>
<!-- 31&#45;&gt;30 -->
<g id="edge46" class="edge">
<title>31&#45;&gt;30</title>
<path fill="none" stroke="grey" stroke-width="2" d="M1212,-143.7C1212,-135.98 1212,-126.71 1212,-118.11"/>
<polygon fill="grey" stroke="grey" stroke-width="2" points="1215.5,-118.1 1212,-108.1 1208.5,-118.1 1215.5,-118.1"/>
</g>
<!-- 32 -->
<g id="node36" class="node">
<title>32</title>
<path fill="none" stroke="#68d856" stroke-width="2" d="M1359,-108C1359,-108 1307,-108 1307,-108 1301,-108 1295,-102 1295,-96 1295,-96 1295,-84 1295,-84 1295,-78 1301,-72 1307,-72 1307,-72 1359,-72 1359,-72 1365,-72 1371,-78 1371,-84 1371,-84 1371,-96 1371,-96 1371,-102 1365,-108 1359,-108"/>
<text text-anchor="middle" x="1333" y="-87.5" font-family="sans" font-size="10.00">upd_regions</text>
</g>
<!-- 32&#45;&gt;0 -->
<g id="edge12" class="edge">
<title>32&#45;&gt;0</title>
<path fill="none" stroke="grey" stroke-width="2" d="M1295,-74.45C1291.98,-73.54 1288.95,-72.71 1286,-72 1144.42,-38.08 971.01,-25.11 895.79,-20.84"/>
<polygon fill="grey" stroke="grey" stroke-width="2" points="895.59,-17.32 885.42,-20.27 895.21,-24.31 895.59,-17.32"/>
</g>
<!-- 33 -->
<g id="node37" class="node">
<title>33</title>
<path fill="none" stroke="#d8bc56" stroke-width="2" d="M1440.5,-108C1440.5,-108 1401.5,-108 1401.5,-108 1395.5,-108 1389.5,-102 1389.5,-96 1389.5,-96 1389.5,-84 1389.5,-84 1389.5,-78 1395.5,-72 1401.5,-72 1401.5,-72 1440.5,-72 1440.5,-72 1446.5,-72 1452.5,-78 1452.5,-84 1452.5,-84 1452.5,-96 1452.5,-96 1452.5,-102 1446.5,-108 1440.5,-108"/>
<text text-anchor="middle" x="1421" y="-87.5" font-family="sans" font-size="10.00">upd_sites</text>
</g>
<!-- 33&#45;&gt;0 -->
<g id="edge14" class="edge">
<title>33&#45;&gt;0</title>
<path fill="none" stroke="grey" stroke-width="2" d="M1389.07,-74.73C1386.04,-73.69 1382.99,-72.75 1380,-72 1202.37,-27.19 981.67,-20.07 895.2,-19.08"/>
<polygon fill="grey" stroke="grey" stroke-width="2" points="895.13,-15.58 885.1,-18.99 895.06,-22.58 895.13,-15.58"/>
</g>
<!-- 34&#45;&gt;0 -->
<g id="edge13" class="edge">
<title>34&#45;&gt;0</title>
<path fill="none" stroke="grey" stroke-width="2" d="M1470.95,-73.87C1467.93,-73.18 1464.93,-72.55 1462,-72 1250,-32.54 990.52,-22.29 895.31,-19.78"/>
<polygon fill="grey" stroke="grey" stroke-width="2" points="895.13,-16.27 885.04,-19.52 894.95,-23.27 895.13,-16.27"/>
</g>
</g>
</svg>
