<?xml version="1.0" encoding="UTF-8" standalone="no"?>
<!DOCTYPE svg PUBLIC "-//W3C//DTD SVG 1.1//EN"
 "http://www.w3.org/Graphics/SVG/1.1/DTD/svg11.dtd">
<!-- Generated by graphviz version 14.1.2 (20260124.0452)
 -->
<!-- Title: snakemake_dag Pages: 1 -->
<svg width="1317pt" height="620pt"
 viewBox="0.00 0.00 1317.00 620.00" xmlns="http://www.w3.org/2000/svg" xmlns:xlink="http://www.w3.org/1999/xlink">
<g id="graph0" class="graph" transform="scale(1 1) rotate(0) translate(4 616)">
<title>snakemake_dag</title>
<polygon fill="white" stroke="none" points="-4,4 -4,-616 1313.12,-616 1313.12,4 -4,4"/>
<!-- 0 -->
<g id="node1" class="node">
<title>0</title>
<path fill="none" stroke="#d88556" stroke-width="2" d="M522,-36C522,-36 492,-36 492,-36 486,-36 480,-30 480,-24 480,-24 480,-12 480,-12 480,-6 486,0 492,0 492,0 522,0 522,0 528,0 534,-6 534,-12 534,-12 534,-24 534,-24 534,-30 528,-36 522,-36"/>
<text xml:space="preserve" text-anchor="middle" x="507" y="-14.12" font-family="sans" font-size="10.00">all</text>
</g>
<!-- 1 -->
<g id="node2" class="node">
<title>1</title>
<path fill="none" stroke="#56d87b" stroke-width="2" d="M194.25,-468C194.25,-468 155.75,-468 155.75,-468 149.75,-468 143.75,-462 143.75,-456 143.75,-456 143.75,-444 143.75,-444 143.75,-438 149.75,-432 155.75,-432 155.75,-432 194.25,-432 194.25,-432 200.25,-432 206.25,-438 206.25,-444 206.25,-444 206.25,-456 206.25,-456 206.25,-462 200.25,-468 194.25,-468"/>
<text xml:space="preserve" text-anchor="middle" x="175" y="-446.12" font-family="sans" font-size="10.00">cnvkit_call</text>
</g>
<!-- 1&#45;&gt;0 -->
<g id="edge7" class="edge">
<title>1&#45;&gt;0</title>
<path fill="none" stroke="grey" stroke-width="2" d="M175,-431.07C175,-404.13 175,-351.62 175,-307 175,-307 175,-307 175,-161 175,-35.61 377.67,-19.47 466.31,-18.41"/>
<polygon fill="grey" stroke="grey" stroke-width="2" points="466.25,-21.91 476.24,-18.37 466.22,-14.91 466.25,-21.91"/>
</g>
<!-- 6 -->
<g id="node7" class="node">
<title>6</title>
<path fill="none" stroke="#56d8d0" stroke-width="2" d="M351.5,-396C351.5,-396 314.5,-396 314.5,-396 308.5,-396 302.5,-390 302.5,-384 302.5,-384 302.5,-372 302.5,-372 302.5,-366 308.5,-360 314.5,-360 314.5,-360 351.5,-360 351.5,-360 357.5,-360 363.5,-366 363.5,-372 363.5,-372 363.5,-384 363.5,-384 363.5,-390 357.5,-396 351.5,-396"/>
<text xml:space="preserve" text-anchor="middle" x="333" y="-374.12" font-family="sans" font-size="10.00">cnvkit_vcf</text>
</g>
<!-- 1&#45;&gt;6 -->
<g id="edge31" class="edge">
<title>1&#45;&gt;6</title>
<path fill="none" stroke="grey" stroke-width="2" d="M206.97,-434.83C230.79,-424.28 263.58,-409.75 289.74,-398.16"/>
<polygon fill="grey" stroke="grey" stroke-width="2" points="291.12,-401.38 298.85,-394.13 288.28,-394.98 291.12,-401.38"/>
</g>
<!-- 2 -->
<g id="node3" class="node">
<title>2</title>
<path fill="none" stroke="#c6d856" stroke-width="2" d="M133.75,-540C133.75,-540 86.25,-540 86.25,-540 80.25,-540 74.25,-534 74.25,-528 74.25,-528 74.25,-516 74.25,-516 74.25,-510 80.25,-504 86.25,-504 86.25,-504 133.75,-504 133.75,-504 139.75,-504 145.75,-510 145.75,-516 145.75,-516 145.75,-528 145.75,-528 145.75,-534 139.75,-540 133.75,-540"/>
<text xml:space="preserve" text-anchor="middle" x="110" y="-518.12" font-family="sans" font-size="10.00">cnvkit_batch</text>
</g>
<!-- 2&#45;&gt;1 -->
<g id="edge20" class="edge">
<title>2&#45;&gt;1</title>
<path fill="none" stroke="grey" stroke-width="2" d="M126.4,-503.34C133.43,-495.77 141.8,-486.75 149.6,-478.35"/>
<polygon fill="grey" stroke="grey" stroke-width="2" points="152.08,-480.83 156.32,-471.12 146.95,-476.07 152.08,-480.83"/>
</g>
<!-- 3 -->
<g id="node4" class="node">
<title>3</title>
<path fill="none" stroke="#8fd856" stroke-width="2" d="M70,-468C70,-468 12,-468 12,-468 6,-468 0,-462 0,-456 0,-456 0,-444 0,-444 0,-438 6,-432 12,-432 12,-432 70,-432 70,-432 76,-432 82,-438 82,-444 82,-444 82,-456 82,-456 82,-462 76,-468 70,-468"/>
<text xml:space="preserve" text-anchor="middle" x="41" y="-446.12" font-family="sans" font-size="10.00">cnvkit_diagram</text>
</g>
<!-- 2&#45;&gt;3 -->
<g id="edge21" class="edge">
<title>2&#45;&gt;3</title>
<path fill="none" stroke="grey" stroke-width="2" d="M92.59,-503.34C85.05,-495.69 76.05,-486.56 67.69,-478.08"/>
<polygon fill="grey" stroke="grey" stroke-width="2" points="70.28,-475.72 60.77,-471.06 65.3,-480.64 70.28,-475.72"/>
</g>
<!-- 4 -->
<g id="node5" class="node">
<title>4</title>
<path fill="none" stroke="#d8c356" stroke-width="2" d="M134.75,-324C134.75,-324 81.25,-324 81.25,-324 75.25,-324 69.25,-318 69.25,-312 69.25,-312 69.25,-300 69.25,-300 69.25,-294 75.25,-288 81.25,-288 81.25,-288 134.75,-288 134.75,-288 140.75,-288 146.75,-294 146.75,-300 146.75,-300 146.75,-312 146.75,-312 146.75,-318 140.75,-324 134.75,-324"/>
<text xml:space="preserve" text-anchor="middle" x="108" y="-302.12" font-family="sans" font-size="10.00">cnvkit_scatter</text>
</g>
<!-- 2&#45;&gt;4 -->
<g id="edge22" class="edge">
<title>2&#45;&gt;4</title>
<path fill="none" stroke="grey" stroke-width="2" d="M109.83,-503.12C109.49,-466.62 108.71,-383.13 108.29,-337.74"/>
<polygon fill="grey" stroke="grey" stroke-width="2" points="111.79,-337.97 108.2,-328 104.79,-338.04 111.79,-337.97"/>
</g>
<!-- 3&#45;&gt;0 -->
<g id="edge9" class="edge">
<title>3&#45;&gt;0</title>
<path fill="none" stroke="grey" stroke-width="2" d="M41,-431.07C41,-404.13 41,-351.62 41,-307 41,-307 41,-307 41,-161 41,-104.74 80.59,-96.97 131,-72 189.33,-43.11 381.4,-27.25 466.17,-21.51"/>
<polygon fill="grey" stroke="grey" stroke-width="2" points="466.29,-25.01 476.04,-20.86 465.83,-18.03 466.29,-25.01"/>
</g>
<!-- 4&#45;&gt;0 -->
<g id="edge15" class="edge">
<title>4&#45;&gt;0</title>
<path fill="none" stroke="grey" stroke-width="2" d="M106,-287.2C102.18,-243.38 99.05,-129.66 161,-72 204.62,-31.4 384.47,-21.9 466.22,-19.68"/>
<polygon fill="grey" stroke="grey" stroke-width="2" points="466.21,-23.18 476.13,-19.44 466.04,-16.18 466.21,-23.18"/>
</g>
<!-- 5 -->
<g id="node6" class="node">
<title>5</title>
<path fill="none" stroke="#56d892" stroke-width="2" d="M451,-180C451,-180 421,-180 421,-180 415,-180 409,-174 409,-168 409,-168 409,-156 409,-156 409,-150 415,-144 421,-144 421,-144 451,-144 451,-144 457,-144 463,-150 463,-156 463,-156 463,-168 463,-168 463,-174 457,-180 451,-180"/>
<text xml:space="preserve" text-anchor="middle" x="436" y="-158.12" font-family="sans" font-size="10.00">bgzip</text>
</g>
<!-- 5&#45;&gt;0 -->
<g id="edge8" class="edge">
<title>5&#45;&gt;0</title>
<path fill="none" stroke="grey" stroke-width="2" d="M408.06,-157.15C350.96,-148.14 229.52,-122.53 270,-72 294.14,-41.87 405.04,-27.72 466.21,-22.11"/>
<polygon fill="grey" stroke="grey" stroke-width="2" points="466.5,-25.6 476.16,-21.25 465.89,-18.63 466.5,-25.6"/>
</g>
<!-- 45 -->
<g id="node46" class="node">
<title>45</title>
<path fill="none" stroke="#56d8a9" stroke-width="2" d="M416.75,-108C416.75,-108 363.25,-108 363.25,-108 357.25,-108 351.25,-102 351.25,-96 351.25,-96 351.25,-84 351.25,-84 351.25,-78 357.25,-72 363.25,-72 363.25,-72 416.75,-72 416.75,-72 422.75,-72 428.75,-78 428.75,-84 428.75,-84 428.75,-96 428.75,-96 428.75,-102 422.75,-108 416.75,-108"/>
<text xml:space="preserve" text-anchor="middle" x="390" y="-86.12" font-family="sans" font-size="10.00">scramble_sort</text>
</g>
<!-- 5&#45;&gt;45 -->
<g id="edge58" class="edge">
<title>5&#45;&gt;45</title>
<path fill="none" stroke="grey" stroke-width="2" d="M424.39,-143.34C419.69,-136.18 414.13,-127.73 408.88,-119.73"/>
<polygon fill="grey" stroke="grey" stroke-width="2" points="411.84,-117.87 403.43,-111.43 405.99,-121.71 411.84,-117.87"/>
</g>
<!-- 6&#45;&gt;5 -->
<g id="edge28" class="edge">
<title>6&#45;&gt;5</title>
<path fill="none" stroke="grey" stroke-width="2" d="M341.6,-359.12C359.33,-322.3 400.05,-237.69 421.76,-192.58"/>
<polygon fill="grey" stroke="grey" stroke-width="2" points="424.85,-194.23 426.03,-183.7 418.54,-191.2 424.85,-194.23"/>
</g>
<!-- 15 -->
<g id="node19" class="node">
<title>15</title>
<path fill="none" stroke="#d87d56" stroke-width="2" d="M487.62,-324C487.62,-324 442.38,-324 442.38,-324 436.38,-324 430.38,-318 430.38,-312 430.38,-312 430.38,-300 430.38,-300 430.38,-294 436.38,-288 442.38,-288 442.38,-288 487.62,-288 487.62,-288 493.62,-288 499.62,-294 499.62,-300 499.62,-300 499.62,-312 499.62,-312 499.62,-318 493.62,-324 487.62,-324"/>
<text xml:space="preserve" text-anchor="middle" x="465" y="-302.12" font-family="sans" font-size="10.00">svdb_merge</text>
</g>
<!-- 6&#45;&gt;15 -->
<g id="edge38" class="edge">
<title>6&#45;&gt;15</title>
<path fill="none" stroke="grey" stroke-width="2" d="M364.28,-360.41C380.87,-351.61 401.55,-340.65 419.85,-330.94"/>
<polygon fill="grey" stroke="grey" stroke-width="2" points="421.3,-334.14 428.49,-326.36 418.02,-327.95 421.3,-334.14"/>
</g>
<!-- 7 -->
<g id="node8" class="node">
<title>7</title>
<path fill="none" stroke="#d89556" stroke-width="2" d="M306.75,-252C306.75,-252 253.25,-252 253.25,-252 247.25,-252 241.25,-246 241.25,-240 241.25,-240 241.25,-228 241.25,-228 241.25,-222 247.25,-216 253.25,-216 253.25,-216 306.75,-216 306.75,-216 312.75,-216 318.75,-222 318.75,-228 318.75,-228 318.75,-240 318.75,-240 318.75,-246 312.75,-252 306.75,-252"/>
<text xml:space="preserve" text-anchor="middle" x="280" y="-230.12" font-family="sans" font-size="10.00">cnvpytor_filter</text>
</g>
<!-- 7&#45;&gt;5 -->
<g id="edge27" class="edge">
<title>7&#45;&gt;5</title>
<path fill="none" stroke="grey" stroke-width="2" d="M319.37,-215.34C343.04,-204.71 373.07,-191.24 396.72,-180.62"/>
<polygon fill="grey" stroke="grey" stroke-width="2" points="397.99,-183.89 405.69,-176.6 395.13,-177.5 397.99,-183.89"/>
</g>
<!-- 8 -->
<g id="node9" class="node">
<title>8</title>
<path fill="none" stroke="#a7d856" stroke-width="2" d="M299.75,-324C299.75,-324 222.25,-324 222.25,-324 216.25,-324 210.25,-318 210.25,-312 210.25,-312 210.25,-300 210.25,-300 210.25,-294 216.25,-288 222.25,-288 222.25,-288 299.75,-288 299.75,-288 305.75,-288 311.75,-294 311.75,-300 311.75,-300 311.75,-312 311.75,-312 311.75,-318 305.75,-324 299.75,-324"/>
<text xml:space="preserve" text-anchor="middle" x="261" y="-302.12" font-family="sans" font-size="10.00">cnvpytor_readdepth</text>
</g>
<!-- 8&#45;&gt;7 -->
<g id="edge32" class="edge">
<title>8&#45;&gt;7</title>
<path fill="none" stroke="grey" stroke-width="2" d="M265.79,-287.34C267.6,-280.67 269.72,-272.89 271.75,-265.39"/>
<polygon fill="grey" stroke="grey" stroke-width="2" points="275.11,-266.39 274.35,-255.82 268.35,-264.56 275.11,-266.39"/>
</g>
<!-- 44 -->
<g id="node45" class="node">
<title>44</title>
<path fill="none" stroke="#d8d356" stroke-width="2" d="M316.75,-180C316.75,-180 215.25,-180 215.25,-180 209.25,-180 203.25,-174 203.25,-168 203.25,-168 203.25,-156 203.25,-156 203.25,-150 209.25,-144 215.25,-144 215.25,-144 316.75,-144 316.75,-144 322.75,-144 328.75,-150 328.75,-156 328.75,-156 328.75,-168 328.75,-168 328.75,-174 322.75,-180 316.75,-180"/>
<text xml:space="preserve" text-anchor="middle" x="266" y="-158.12" font-family="sans" font-size="10.00">cnvpytor_plot_manhattan</text>
</g>
<!-- 8&#45;&gt;44 -->
<g id="edge33" class="edge">
<title>8&#45;&gt;44</title>
<path fill="none" stroke="grey" stroke-width="2" d="M248.39,-287.31C242.13,-277.43 235.22,-264.6 232,-252 228.04,-236.5 227.5,-231.35 232,-216 234.49,-207.5 238.81,-199.07 243.55,-191.52"/>
<polygon fill="grey" stroke="grey" stroke-width="2" points="246.4,-193.56 249.18,-183.34 240.63,-189.6 246.4,-193.56"/>
</g>
<!-- 9 -->
<g id="node10" class="node">
<title>9</title>
<path fill="none" stroke="#d8cb56" stroke-width="2" d="M1062.62,-252C1062.62,-252 999.38,-252 999.38,-252 993.38,-252 987.38,-246 987.38,-240 987.38,-240 987.38,-228 987.38,-228 987.38,-222 993.38,-216 999.38,-216 999.38,-216 1062.62,-216 1062.62,-216 1068.62,-216 1074.62,-222 1074.62,-228 1074.62,-228 1074.62,-240 1074.62,-240 1074.62,-246 1068.62,-252 1062.62,-252"/>
<text xml:space="preserve" text-anchor="middle" x="1031" y="-230.12" font-family="sans" font-size="10.00">expansionhunter</text>
</g>
<!-- 9&#45;&gt;5 -->
<g id="edge30" class="edge">
<title>9&#45;&gt;5</title>
<path fill="none" stroke="grey" stroke-width="2" d="M986.67,-228.18C954.12,-224.68 908.83,-219.9 869,-216 696.81,-199.16 645.35,-225.26 476.32,-180.67"/>
<polygon fill="grey" stroke="grey" stroke-width="2" points="477.43,-177.34 466.86,-178.12 475.61,-184.1 477.43,-177.34"/>
</g>
<!-- 23 -->
<g id="node27" class="node">
<title>23</title>
<path fill="none" stroke="#d6d856" stroke-width="2" d="M1093,-108C1093,-108 1063,-108 1063,-108 1057,-108 1051,-102 1051,-96 1051,-96 1051,-84 1051,-84 1051,-78 1057,-72 1063,-72 1063,-72 1093,-72 1093,-72 1099,-72 1105,-78 1105,-84 1105,-84 1105,-96 1105,-96 1105,-102 1099,-108 1093,-108"/>
<text xml:space="preserve" text-anchor="middle" x="1078" y="-86.12" font-family="sans" font-size="10.00">reviewer</text>
</g>
<!-- 9&#45;&gt;23 -->
<g id="edge45" class="edge">
<title>9&#45;&gt;23</title>
<path fill="none" stroke="grey" stroke-width="2" d="M1033.32,-215.21C1036.04,-196.95 1041.32,-167.91 1050,-144 1052.94,-135.91 1056.9,-127.52 1060.91,-119.86"/>
<polygon fill="grey" stroke="grey" stroke-width="2" points="1063.91,-121.68 1065.67,-111.24 1057.78,-118.3 1063.91,-121.68"/>
</g>
<!-- 24 -->
<g id="node28" class="node">
<title>24</title>
<path fill="none" stroke="#567bd8" stroke-width="2" d="M1189,-180C1189,-180 1071,-180 1071,-180 1065,-180 1059,-174 1059,-168 1059,-168 1059,-156 1059,-156 1059,-150 1065,-144 1071,-144 1071,-144 1189,-144 1189,-144 1195,-144 1201,-150 1201,-156 1201,-156 1201,-168 1201,-168 1201,-174 1195,-180 1189,-180"/>
<text xml:space="preserve" text-anchor="middle" x="1130" y="-158.12" font-family="sans" font-size="10.00">reviewer_generate_locus_list</text>
</g>
<!-- 9&#45;&gt;24 -->
<g id="edge47" class="edge">
<title>9&#45;&gt;24</title>
<path fill="none" stroke="grey" stroke-width="2" d="M1056.24,-215.15C1067.76,-207.01 1081.61,-197.22 1094.18,-188.33"/>
<polygon fill="grey" stroke="grey" stroke-width="2" points="1096.19,-191.19 1102.34,-182.56 1092.15,-185.48 1096.19,-191.19"/>
</g>
<!-- 10 -->
<g id="node11" class="node">
<title>10</title>
<path fill="none" stroke="#78d856" stroke-width="2" d="M436.5,-396C436.5,-396 393.5,-396 393.5,-396 387.5,-396 381.5,-390 381.5,-384 381.5,-384 381.5,-372 381.5,-372 381.5,-366 387.5,-360 393.5,-360 393.5,-360 436.5,-360 436.5,-360 442.5,-360 448.5,-366 448.5,-372 448.5,-372 448.5,-384 448.5,-384 448.5,-390 442.5,-396 436.5,-396"/>
<text xml:space="preserve" text-anchor="middle" x="415" y="-374.12" font-family="sans" font-size="10.00">gatk_to_vcf</text>
</g>
<!-- 10&#45;&gt;5 -->
<g id="edge26" class="edge">
<title>10&#45;&gt;5</title>
<path fill="none" stroke="grey" stroke-width="2" d="M415.92,-359.25C416.92,-341.27 418.69,-312.67 421,-288 424.03,-255.68 428.59,-218.8 431.89,-193.52"/>
<polygon fill="grey" stroke="grey" stroke-width="2" points="435.33,-194.14 433.18,-183.77 428.4,-193.23 435.33,-194.14"/>
</g>
<!-- 10&#45;&gt;15 -->
<g id="edge40" class="edge">
<title>10&#45;&gt;15</title>
<path fill="none" stroke="grey" stroke-width="2" d="M427.62,-359.34C432.79,-352.1 438.91,-343.53 444.68,-335.45"/>
<polygon fill="grey" stroke="grey" stroke-width="2" points="447.49,-337.54 450.45,-327.37 441.79,-333.47 447.49,-337.54"/>
</g>
<!-- 11 -->
<g id="node12" class="node">
<title>11</title>
<path fill="none" stroke="#61d856" stroke-width="2" d="M455.12,-468C455.12,-468 364.88,-468 364.88,-468 358.88,-468 352.88,-462 352.88,-456 352.88,-456 352.88,-444 352.88,-444 352.88,-438 358.88,-432 364.88,-432 364.88,-432 455.12,-432 455.12,-432 461.12,-432 467.12,-438 467.12,-444 467.12,-444 467.12,-456 467.12,-456 467.12,-462 461.12,-468 455.12,-468"/>
<text xml:space="preserve" text-anchor="middle" x="410" y="-446.12" font-family="sans" font-size="10.00">gatk_model_segments</text>
</g>
<!-- 11&#45;&gt;10 -->
<g id="edge34" class="edge">
<title>11&#45;&gt;10</title>
<path fill="none" stroke="grey" stroke-width="2" d="M411.26,-431.34C411.73,-424.75 412.28,-417.08 412.81,-409.67"/>
<polygon fill="grey" stroke="grey" stroke-width="2" points="416.28,-410.15 413.51,-399.92 409.3,-409.65 416.28,-410.15"/>
</g>
<!-- 12 -->
<g id="node13" class="node">
<title>12</title>
<path fill="none" stroke="#88d856" stroke-width="2" d="M468.5,-540C468.5,-540 359.5,-540 359.5,-540 353.5,-540 347.5,-534 347.5,-528 347.5,-528 347.5,-516 347.5,-516 347.5,-510 353.5,-504 359.5,-504 359.5,-504 468.5,-504 468.5,-504 474.5,-504 480.5,-510 480.5,-516 480.5,-516 480.5,-528 480.5,-528 480.5,-534 474.5,-540 468.5,-540"/>
<text xml:space="preserve" text-anchor="middle" x="414" y="-518.12" font-family="sans" font-size="10.00">gatk_collect_allelic_counts</text>
</g>
<!-- 12&#45;&gt;11 -->
<g id="edge36" class="edge">
<title>12&#45;&gt;11</title>
<path fill="none" stroke="grey" stroke-width="2" d="M412.99,-503.34C412.61,-496.75 412.18,-489.08 411.75,-481.67"/>
<polygon fill="grey" stroke="grey" stroke-width="2" points="415.26,-481.71 411.2,-471.92 408.27,-482.11 415.26,-481.71"/>
</g>
<!-- 13 -->
<g id="node14" class="node">
<title>13</title>
<path fill="none" stroke="#56d89a" stroke-width="2" d="M317.12,-540C317.12,-540 208.88,-540 208.88,-540 202.88,-540 196.88,-534 196.88,-528 196.88,-528 196.88,-516 196.88,-516 196.88,-510 202.88,-504 208.88,-504 208.88,-504 317.12,-504 317.12,-504 323.12,-504 329.12,-510 329.12,-516 329.12,-516 329.12,-528 329.12,-528 329.12,-534 323.12,-540 317.12,-540"/>
<text xml:space="preserve" text-anchor="middle" x="263" y="-518.12" font-family="sans" font-size="10.00">gatk_denoise_read_counts</text>
</g>
<!-- 13&#45;&gt;11 -->
<g id="edge35" class="edge">
<title>13&#45;&gt;11</title>
<path fill="none" stroke="grey" stroke-width="2" d="M300.47,-503.15C318.81,-494.43 341.11,-483.81 360.79,-474.43"/>
<polygon fill="grey" stroke="grey" stroke-width="2" points="362.08,-477.69 369.61,-470.24 359.07,-471.37 362.08,-477.69"/>
</g>
<!-- 14 -->
<g id="node15" class="node">
<title>14</title>
<path fill="none" stroke="#56b9d8" stroke-width="2" d="M314.5,-612C314.5,-612 211.5,-612 211.5,-612 205.5,-612 199.5,-606 199.5,-600 199.5,-600 199.5,-588 199.5,-588 199.5,-582 205.5,-576 211.5,-576 211.5,-576 314.5,-576 314.5,-576 320.5,-576 326.5,-582 326.5,-588 326.5,-588 326.5,-600 326.5,-600 326.5,-606 320.5,-612 314.5,-612"/>
<text xml:space="preserve" text-anchor="middle" x="263" y="-590.12" font-family="sans" font-size="10.00">gatk_collect_read_counts</text>
</g>
<!-- 14&#45;&gt;13 -->
<g id="edge37" class="edge">
<title>14&#45;&gt;13</title>
<path fill="none" stroke="grey" stroke-width="2" d="M263,-575.34C263,-568.75 263,-561.08 263,-553.67"/>
<polygon fill="grey" stroke="grey" stroke-width="2" points="266.5,-553.93 263,-543.93 259.5,-553.93 266.5,-553.93"/>
</g>
<!-- 35 -->
<g id="node16" class="node">
<title>35</title>
<path fill="none" stroke="#56b9d8" stroke-width="2" d="M552.62,-540C552.62,-540 513.38,-540 513.38,-540 507.38,-540 501.38,-534 501.38,-528 501.38,-528 501.38,-516 501.38,-516 501.38,-510 507.38,-504 513.38,-504 513.38,-504 552.62,-504 552.62,-504 558.62,-504 564.62,-510 564.62,-516 564.62,-516 564.62,-528 564.62,-528 564.62,-534 558.62,-540 552.62,-540"/>
<text xml:space="preserve" text-anchor="middle" x="533" y="-518.12" font-family="sans" font-size="10.00">jumble_run</text>
</g>
<!-- 36 -->
<g id="node17" class="node">
<title>36</title>
<path fill="none" stroke="#56b9d8" stroke-width="2" d="M569.12,-468C569.12,-468 496.88,-468 496.88,-468 490.88,-468 484.88,-462 484.88,-456 484.88,-456 484.88,-444 484.88,-444 484.88,-438 490.88,-432 496.88,-432 496.88,-432 569.12,-432 569.12,-432 575.12,-432 581.12,-438 581.12,-444 581.12,-444 581.12,-456 581.12,-456 581.12,-462 575.12,-468 569.12,-468"/>
<text xml:space="preserve" text-anchor="middle" x="533" y="-446.12" font-family="sans" font-size="10.00">jumble_cnvkit_call</text>
</g>
<!-- 35&#45;&gt;36 -->
<g id="edge1" class="edge">
<title>35&#45;&gt;36</title>
<path fill="none" stroke="grey" stroke-width="2" d="M533,-503.34C533,-496.75 533,-489.08 533,-481.67"/>
<polygon fill="grey" stroke="grey" stroke-width="2" points="536.5,-481.93 533,-471.93 529.5,-481.93 536.5,-481.93"/>
</g>
<!-- 37 -->
<g id="node18" class="node">
<title>37</title>
<path fill="none" stroke="#56b9d8" stroke-width="2" d="M551.62,-396C551.62,-396 512.38,-396 512.38,-396 506.38,-396 500.38,-390 500.38,-384 500.38,-384 500.38,-372 500.38,-372 500.38,-366 506.38,-360 512.38,-360 512.38,-360 551.62,-360 551.62,-360 557.62,-360 563.62,-366 563.62,-372 563.62,-372 563.62,-384 563.62,-384 563.62,-390 557.62,-396 551.62,-396"/>
<text xml:space="preserve" text-anchor="middle" x="532" y="-374.12" font-family="sans" font-size="10.00">jumble_vcf</text>
</g>
<!-- 36&#45;&gt;37 -->
<g id="edge2" class="edge">
<title>36&#45;&gt;37</title>
<path fill="none" stroke="grey" stroke-width="2" d="M532.75,-431.34C532.65,-424.75 532.54,-417.08 532.44,-409.67"/>
<polygon fill="grey" stroke="grey" stroke-width="2" points="535.94,-409.88 532.3,-399.93 528.94,-409.98 535.94,-409.88"/>
</g>
<!-- 37&#45;&gt;5 -->
<g id="edge4" class="edge">
<title>37&#45;&gt;5</title>
<path fill="none" stroke="grey" stroke-width="2" d="M536.55,-359.02C543.45,-327.52 553.09,-261.4 526,-216 522.86,-210.74 497.95,-196.26 475.13,-183.76"/>
<polygon fill="grey" stroke="grey" stroke-width="2" points="476.98,-180.78 466.52,-179.09 473.64,-186.94 476.98,-180.78"/>
</g>
<!-- 37&#45;&gt;15 -->
<g id="edge3" class="edge">
<title>37&#45;&gt;15</title>
<path fill="none" stroke="grey" stroke-width="2" d="M515.09,-359.34C507.77,-351.69 499.03,-342.56 490.92,-334.08"/>
<polygon fill="grey" stroke="grey" stroke-width="2" points="493.67,-331.89 484.23,-327.09 488.61,-336.73 493.67,-331.89"/>
</g>
<!-- 15&#45;&gt;5 -->
<g id="edge25" class="edge">
<title>15&#45;&gt;5</title>
<path fill="none" stroke="grey" stroke-width="2" d="M455.54,-287.38C450.6,-277.31 444.98,-264.28 442,-252 437.35,-232.88 435.84,-210.82 435.5,-193.45"/>
<polygon fill="grey" stroke="grey" stroke-width="2" points="439,-193.67 435.45,-183.69 432,-193.71 439,-193.67"/>
</g>
<!-- 20 -->
<g id="node24" class="node">
<title>20</title>
<path fill="none" stroke="#d85e56" stroke-width="2" d="M505.12,-252C505.12,-252 462.88,-252 462.88,-252 456.88,-252 450.88,-246 450.88,-240 450.88,-240 450.88,-228 450.88,-228 450.88,-222 456.88,-216 462.88,-216 462.88,-216 505.12,-216 505.12,-216 511.12,-216 517.12,-222 517.12,-228 517.12,-228 517.12,-240 517.12,-240 517.12,-246 511.12,-252 505.12,-252"/>
<text xml:space="preserve" text-anchor="middle" x="484" y="-230.12" font-family="sans" font-size="10.00">svdb_query</text>
</g>
<!-- 15&#45;&gt;20 -->
<g id="edge44" class="edge">
<title>15&#45;&gt;20</title>
<path fill="none" stroke="grey" stroke-width="2" d="M469.79,-287.34C471.6,-280.67 473.72,-272.89 475.75,-265.39"/>
<polygon fill="grey" stroke="grey" stroke-width="2" points="479.11,-266.39 478.35,-255.82 472.35,-264.56 479.11,-266.39"/>
</g>
<!-- 16 -->
<g id="node20" class="node">
<title>16</title>
<path fill="none" stroke="#566bd8" stroke-width="2" d="M664.38,-396C664.38,-396 593.62,-396 593.62,-396 587.62,-396 581.62,-390 581.62,-384 581.62,-384 581.62,-372 581.62,-372 581.62,-366 587.62,-360 593.62,-360 593.62,-360 664.38,-360 664.38,-360 670.38,-360 676.38,-366 676.38,-372 676.38,-372 676.38,-384 676.38,-384 676.38,-390 670.38,-396 664.38,-396"/>
<text xml:space="preserve" text-anchor="middle" x="629" y="-374.12" font-family="sans" font-size="10.00">pindel_update_vcf</text>
</g>
<!-- 16&#45;&gt;5 -->
<g id="edge29" class="edge">
<title>16&#45;&gt;5</title>
<path fill="none" stroke="grey" stroke-width="2" d="M636.6,-359.19C649.11,-326.77 669.49,-257.64 636,-216 591.7,-160.92 547.55,-199.5 475.88,-180.54"/>
<polygon fill="grey" stroke="grey" stroke-width="2" points="477.13,-177.26 466.55,-177.7 475.09,-183.96 477.13,-177.26"/>
</g>
<!-- 16&#45;&gt;15 -->
<g id="edge39" class="edge">
<title>16&#45;&gt;15</title>
<path fill="none" stroke="grey" stroke-width="2" d="M587.19,-359.15C564.4,-349.43 536.11,-337.35 512.49,-327.27"/>
<polygon fill="grey" stroke="grey" stroke-width="2" points="513.97,-324.1 503.4,-323.39 511.23,-330.54 513.97,-324.1"/>
</g>
<!-- 17 -->
<g id="node21" class="node">
<title>17</title>
<path fill="none" stroke="#d87556" stroke-width="2" d="M647.12,-468C647.12,-468 610.88,-468 610.88,-468 604.88,-468 598.88,-462 598.88,-456 598.88,-456 598.88,-444 598.88,-444 598.88,-438 604.88,-432 610.88,-432 610.88,-432 647.12,-432 647.12,-432 653.12,-432 659.12,-438 659.12,-444 659.12,-444 659.12,-456 659.12,-456 659.12,-462 653.12,-468 647.12,-468"/>
<text xml:space="preserve" text-anchor="middle" x="629" y="-446.12" font-family="sans" font-size="10.00">pindel2vcf</text>
</g>
<!-- 17&#45;&gt;16 -->
<g id="edge41" class="edge">
<title>17&#45;&gt;16</title>
<path fill="none" stroke="grey" stroke-width="2" d="M629,-431.34C629,-424.75 629,-417.08 629,-409.67"/>
<polygon fill="grey" stroke="grey" stroke-width="2" points="632.5,-409.93 629,-399.93 625.5,-409.93 632.5,-409.93"/>
</g>
<!-- 18 -->
<g id="node22" class="node">
<title>18</title>
<path fill="none" stroke="#5663d8" stroke-width="2" d="M647.88,-540C647.88,-540 610.12,-540 610.12,-540 604.12,-540 598.12,-534 598.12,-528 598.12,-528 598.12,-516 598.12,-516 598.12,-510 604.12,-504 610.12,-504 610.12,-504 647.88,-504 647.88,-504 653.88,-504 659.88,-510 659.88,-516 659.88,-516 659.88,-528 659.88,-528 659.88,-534 653.88,-540 647.88,-540"/>
<text xml:space="preserve" text-anchor="middle" x="629" y="-518.12" font-family="sans" font-size="10.00">pindel_call</text>
</g>
<!-- 18&#45;&gt;17 -->
<g id="edge42" class="edge">
<title>18&#45;&gt;17</title>
<path fill="none" stroke="grey" stroke-width="2" d="M629,-503.34C629,-496.75 629,-489.08 629,-481.67"/>
<polygon fill="grey" stroke="grey" stroke-width="2" points="632.5,-481.93 629,-471.93 625.5,-481.93 632.5,-481.93"/>
</g>
<!-- 19 -->
<g id="node23" class="node">
<title>19</title>
<path fill="none" stroke="#569ad8" stroke-width="2" d="M674.88,-612C674.88,-612 583.12,-612 583.12,-612 577.12,-612 571.12,-606 571.12,-600 571.12,-600 571.12,-588 571.12,-588 571.12,-582 577.12,-576 583.12,-576 583.12,-576 674.88,-576 674.88,-576 680.88,-576 686.88,-582 686.88,-588 686.88,-588 686.88,-600 686.88,-600 686.88,-606 680.88,-612 674.88,-612"/>
<text xml:space="preserve" text-anchor="middle" x="629" y="-590.12" font-family="sans" font-size="10.00">pindel_generate_config</text>
</g>
<!-- 19&#45;&gt;18 -->
<g id="edge43" class="edge">
<title>19&#45;&gt;18</title>
<path fill="none" stroke="grey" stroke-width="2" d="M629,-575.34C629,-568.75 629,-561.08 629,-553.67"/>
<polygon fill="grey" stroke="grey" stroke-width="2" points="632.5,-553.93 629,-543.93 625.5,-553.93 632.5,-553.93"/>
</g>
<!-- 20&#45;&gt;5 -->
<g id="edge23" class="edge">
<title>20&#45;&gt;5</title>
<path fill="none" stroke="grey" stroke-width="2" d="M471.89,-215.34C466.92,-208.1 461.05,-199.53 455.51,-191.45"/>
<polygon fill="grey" stroke="grey" stroke-width="2" points="458.53,-189.67 449.99,-183.4 452.76,-193.62 458.53,-189.67"/>
</g>
<!-- 21 -->
<g id="node25" class="node">
<title>21</title>
<path fill="none" stroke="#d89c56" stroke-width="2" d="M1297.12,-180C1297.12,-180 1230.88,-180 1230.88,-180 1224.88,-180 1218.88,-174 1218.88,-168 1218.88,-168 1218.88,-156 1218.88,-156 1218.88,-150 1224.88,-144 1230.88,-144 1230.88,-144 1297.12,-144 1297.12,-144 1303.12,-144 1309.12,-150 1309.12,-156 1309.12,-156 1309.12,-168 1309.12,-168 1309.12,-174 1303.12,-180 1297.12,-180"/>
<text xml:space="preserve" text-anchor="middle" x="1264" y="-158.12" font-family="sans" font-size="10.00">exomedepth_sex</text>
</g>
<!-- 34 -->
<g id="node38" class="node">
<title>34</title>
<path fill="none" stroke="#56d8b9" stroke-width="2" d="M1248.75,-108C1248.75,-108 1183.25,-108 1183.25,-108 1177.25,-108 1171.25,-102 1171.25,-96 1171.25,-96 1171.25,-84 1171.25,-84 1171.25,-78 1177.25,-72 1183.25,-72 1183.25,-72 1248.75,-72 1248.75,-72 1254.75,-72 1260.75,-78 1260.75,-84 1260.75,-84 1260.75,-96 1260.75,-96 1260.75,-102 1254.75,-108 1248.75,-108"/>
<text xml:space="preserve" text-anchor="middle" x="1216" y="-86.12" font-family="sans" font-size="10.00">exomedepth_call</text>
</g>
<!-- 21&#45;&gt;34 -->
<g id="edge51" class="edge">
<title>21&#45;&gt;34</title>
<path fill="none" stroke="grey" stroke-width="2" d="M1251.89,-143.34C1246.92,-136.1 1241.05,-127.53 1235.51,-119.45"/>
<polygon fill="grey" stroke="grey" stroke-width="2" points="1238.53,-117.67 1229.99,-111.4 1232.76,-121.62 1238.53,-117.67"/>
</g>
<!-- 22 -->
<g id="node26" class="node">
<title>22</title>
<path fill="none" stroke="#56d88a" stroke-width="2" d="M615,-252C615,-252 585,-252 585,-252 579,-252 573,-246 573,-240 573,-240 573,-228 573,-228 573,-222 579,-216 585,-216 585,-216 615,-216 615,-216 621,-216 627,-222 627,-228 627,-228 627,-240 627,-240 627,-246 621,-252 615,-252"/>
<text xml:space="preserve" text-anchor="middle" x="600" y="-230.12" font-family="sans" font-size="10.00">tiddit</text>
</g>
<!-- 22&#45;&gt;5 -->
<g id="edge24" class="edge">
<title>22&#45;&gt;5</title>
<path fill="none" stroke="grey" stroke-width="2" d="M572.21,-221.48C567.79,-219.64 563.27,-217.77 559,-216 523.81,-201.42 512.31,-197.59 475.52,-181.47"/>
<polygon fill="grey" stroke="grey" stroke-width="2" points="477.18,-178.37 466.62,-177.54 474.35,-184.78 477.18,-178.37"/>
</g>
<!-- 23&#45;&gt;0 -->
<g id="edge16" class="edge">
<title>23&#45;&gt;0</title>
<path fill="none" stroke="grey" stroke-width="2" d="M1050.05,-74.69C1047.38,-73.66 1044.66,-72.74 1042,-72 862.74,-22.4 638.39,-17.9 547.76,-18.35"/>
<polygon fill="grey" stroke="grey" stroke-width="2" points="547.89,-14.85 537.92,-18.42 547.94,-21.85 547.89,-14.85"/>
</g>
<!-- 24&#45;&gt;23 -->
<g id="edge46" class="edge">
<title>24&#45;&gt;23</title>
<path fill="none" stroke="grey" stroke-width="2" d="M1116.88,-143.34C1111.44,-136.01 1104.99,-127.34 1098.93,-119.18"/>
<polygon fill="grey" stroke="grey" stroke-width="2" points="1101.88,-117.27 1093.1,-111.33 1096.26,-121.45 1101.88,-117.27"/>
</g>
<!-- 25 -->
<g id="node29" class="node">
<title>25</title>
<path fill="none" stroke="#80d856" stroke-width="2" d="M321,-108C321,-108 291,-108 291,-108 285,-108 279,-102 279,-96 279,-96 279,-84 279,-84 279,-78 285,-72 291,-72 291,-72 321,-72 321,-72 327,-72 333,-78 333,-84 333,-84 333,-96 333,-96 333,-102 327,-108 321,-108"/>
<text xml:space="preserve" text-anchor="middle" x="306" y="-86.12" font-family="sans" font-size="10.00">automap</text>
</g>
<!-- 25&#45;&gt;0 -->
<g id="edge11" class="edge">
<title>25&#45;&gt;0</title>
<path fill="none" stroke="grey" stroke-width="2" d="M333.75,-75.46C336.52,-74.24 339.3,-73.07 342,-72 383.94,-55.44 433.32,-40.11 467.05,-30.24"/>
<polygon fill="grey" stroke="grey" stroke-width="2" points="467.63,-33.72 476.26,-27.58 465.68,-26.99 467.63,-33.72"/>
</g>
<!-- 26 -->
<g id="node30" class="node">
<title>26</title>
<path fill="none" stroke="#56d8b1" stroke-width="2" d="M554.75,-108C554.75,-108 459.25,-108 459.25,-108 453.25,-108 447.25,-102 447.25,-96 447.25,-96 447.25,-84 447.25,-84 447.25,-78 453.25,-72 459.25,-72 459.25,-72 554.75,-72 554.75,-72 560.75,-72 566.75,-78 566.75,-84 566.75,-84 566.75,-96 566.75,-96 566.75,-102 560.75,-108 554.75,-108"/>
<text xml:space="preserve" text-anchor="middle" x="507" y="-86.12" font-family="sans" font-size="10.00">manta_run_workflow_tn</text>
</g>
<!-- 26&#45;&gt;0 -->
<g id="edge10" class="edge">
<title>26&#45;&gt;0</title>
<path fill="none" stroke="grey" stroke-width="2" d="M507,-71.34C507,-64.75 507,-57.08 507,-49.67"/>
<polygon fill="grey" stroke="grey" stroke-width="2" points="510.5,-49.93 507,-39.93 503.5,-49.93 510.5,-49.93"/>
</g>
<!-- 27 -->
<g id="node31" class="node">
<title>27</title>
<path fill="none" stroke="#9fd856" stroke-width="2" d="M557,-180C557,-180 493,-180 493,-180 487,-180 481,-174 481,-168 481,-168 481,-156 481,-156 481,-150 487,-144 493,-144 493,-144 557,-144 557,-144 563,-144 569,-150 569,-156 569,-156 569,-168 569,-168 569,-174 563,-180 557,-180"/>
<text xml:space="preserve" text-anchor="middle" x="525" y="-158.12" font-family="sans" font-size="10.00">manta_config_tn</text>
</g>
<!-- 27&#45;&gt;26 -->
<g id="edge48" class="edge">
<title>27&#45;&gt;26</title>
<path fill="none" stroke="grey" stroke-width="2" d="M520.46,-143.34C518.74,-136.67 516.74,-128.89 514.81,-121.39"/>
<polygon fill="grey" stroke="grey" stroke-width="2" points="518.24,-120.65 512.36,-111.83 511.46,-122.39 518.24,-120.65"/>
</g>
<!-- 28 -->
<g id="node32" class="node">
<title>28</title>
<path fill="none" stroke="#56d873" stroke-width="2" d="M687.12,-108C687.12,-108 596.88,-108 596.88,-108 590.88,-108 584.88,-102 584.88,-96 584.88,-96 584.88,-84 584.88,-84 584.88,-78 590.88,-72 596.88,-72 596.88,-72 687.12,-72 687.12,-72 693.12,-72 699.12,-78 699.12,-84 699.12,-84 699.12,-96 699.12,-96 699.12,-102 693.12,-108 687.12,-108"/>
<text xml:space="preserve" text-anchor="middle" x="642" y="-86.12" font-family="sans" font-size="10.00">manta_run_workflow_t</text>
</g>
<!-- 28&#45;&gt;0 -->
<g id="edge6" class="edge">
<title>28&#45;&gt;0</title>
<path fill="none" stroke="grey" stroke-width="2" d="M607.58,-71.15C588.95,-61.49 565.85,-49.52 546.49,-39.48"/>
<polygon fill="grey" stroke="grey" stroke-width="2" points="548.17,-36.4 537.68,-34.91 544.95,-42.62 548.17,-36.4"/>
</g>
<!-- 29 -->
<g id="node33" class="node">
<title>29</title>
<path fill="none" stroke="#b6d856" stroke-width="2" d="M671.38,-180C671.38,-180 612.62,-180 612.62,-180 606.62,-180 600.62,-174 600.62,-168 600.62,-168 600.62,-156 600.62,-156 600.62,-150 606.62,-144 612.62,-144 612.62,-144 671.38,-144 671.38,-144 677.38,-144 683.38,-150 683.38,-156 683.38,-156 683.38,-168 683.38,-168 683.38,-174 677.38,-180 671.38,-180"/>
<text xml:space="preserve" text-anchor="middle" x="642" y="-158.12" font-family="sans" font-size="10.00">manta_config_t</text>
</g>
<!-- 29&#45;&gt;28 -->
<g id="edge49" class="edge">
<title>29&#45;&gt;28</title>
<path fill="none" stroke="grey" stroke-width="2" d="M642,-143.34C642,-136.75 642,-129.08 642,-121.67"/>
<polygon fill="grey" stroke="grey" stroke-width="2" points="645.5,-121.93 642,-111.93 638.5,-121.93 645.5,-121.93"/>
</g>
<!-- 30 -->
<g id="node34" class="node">
<title>30</title>
<path fill="none" stroke="#d86e56" stroke-width="2" d="M1021.25,-108C1021.25,-108 928.75,-108 928.75,-108 922.75,-108 916.75,-102 916.75,-96 916.75,-96 916.75,-84 916.75,-84 916.75,-78 922.75,-72 928.75,-72 928.75,-72 1021.25,-72 1021.25,-72 1027.25,-72 1033.25,-78 1033.25,-84 1033.25,-84 1033.25,-96 1033.25,-96 1033.25,-102 1027.25,-108 1021.25,-108"/>
<text xml:space="preserve" text-anchor="middle" x="975" y="-86.12" font-family="sans" font-size="10.00">manta_run_workflow_n</text>
</g>
<!-- 30&#45;&gt;0 -->
<g id="edge5" class="edge">
<title>30&#45;&gt;0</title>
<path fill="none" stroke="grey" stroke-width="2" d="M915.77,-74.53C911.46,-73.62 907.17,-72.77 903,-72 774.2,-48.23 619.95,-30.69 547.88,-23.12"/>
<polygon fill="grey" stroke="grey" stroke-width="2" points="548.32,-19.65 538.01,-22.1 547.59,-26.61 548.32,-19.65"/>
</g>
<!-- 31 -->
<g id="node35" class="node">
<title>31</title>
<path fill="none" stroke="#56d0d8" stroke-width="2" d="M990.5,-180C990.5,-180 929.5,-180 929.5,-180 923.5,-180 917.5,-174 917.5,-168 917.5,-168 917.5,-156 917.5,-156 917.5,-150 923.5,-144 929.5,-144 929.5,-144 990.5,-144 990.5,-144 996.5,-144 1002.5,-150 1002.5,-156 1002.5,-156 1002.5,-168 1002.5,-168 1002.5,-174 996.5,-180 990.5,-180"/>
<text xml:space="preserve" text-anchor="middle" x="960" y="-158.12" font-family="sans" font-size="10.00">manta_config_n</text>
</g>
<!-- 31&#45;&gt;30 -->
<g id="edge50" class="edge">
<title>31&#45;&gt;30</title>
<path fill="none" stroke="grey" stroke-width="2" d="M963.79,-143.34C965.21,-136.67 966.88,-128.89 968.49,-121.39"/>
<polygon fill="grey" stroke="grey" stroke-width="2" points="971.86,-122.37 970.53,-111.86 965.01,-120.91 971.86,-122.37"/>
</g>
<!-- 32 -->
<g id="node36" class="node">
<title>32</title>
<path fill="none" stroke="#68d856" stroke-width="2" d="M773.25,-108C773.25,-108 728.75,-108 728.75,-108 722.75,-108 716.75,-102 716.75,-96 716.75,-96 716.75,-84 716.75,-84 716.75,-78 722.75,-72 728.75,-72 728.75,-72 773.25,-72 773.25,-72 779.25,-72 785.25,-78 785.25,-84 785.25,-84 785.25,-96 785.25,-96 785.25,-102 779.25,-108 773.25,-108"/>
<text xml:space="preserve" text-anchor="middle" x="751" y="-86.12" font-family="sans" font-size="10.00">upd_regions</text>
</g>
<!-- 32&#45;&gt;0 -->
<g id="edge12" class="edge">
<title>32&#45;&gt;0</title>
<path fill="none" stroke="grey" stroke-width="2" d="M715.92,-74.74C713.26,-73.78 710.59,-72.85 708,-72 653.2,-54.01 588.48,-37.83 547.59,-28.21"/>
<polygon fill="grey" stroke="grey" stroke-width="2" points="548.42,-24.8 537.89,-25.95 546.83,-31.62 548.42,-24.8"/>
</g>
<!-- 33 -->
<g id="node37" class="node">
<title>33</title>
<path fill="none" stroke="#d8bc56" stroke-width="2" d="M849,-108C849,-108 815,-108 815,-108 809,-108 803,-102 803,-96 803,-96 803,-84 803,-84 803,-78 809,-72 815,-72 815,-72 849,-72 849,-72 855,-72 861,-78 861,-84 861,-84 861,-96 861,-96 861,-102 855,-108 849,-108"/>
<text xml:space="preserve" text-anchor="middle" x="832" y="-86.12" font-family="sans" font-size="10.00">upd_sites</text>
</g>
<!-- 33&#45;&gt;0 -->
<g id="edge14" class="edge">
<title>33&#45;&gt;0</title>
<path fill="none" stroke="grey" stroke-width="2" d="M802.39,-74.95C799.59,-73.86 796.76,-72.86 794,-72 708.41,-45.37 604.05,-30.23 547.74,-23.42"/>
<polygon fill="grey" stroke="grey" stroke-width="2" points="548.18,-19.95 537.84,-22.26 547.36,-26.9 548.18,-19.95"/>
</g>
<!-- 34&#45;&gt;0 -->
<g id="edge13" class="edge">
<title>34&#45;&gt;0</title>
<path fill="none" stroke="grey" stroke-width="2" d="M1170.41,-80.62C1152.83,-77.59 1132.52,-74.35 1114,-72 901.52,-45.06 645.43,-27.58 547.64,-21.45"/>
<polygon fill="grey" stroke="grey" stroke-width="2" points="548.13,-17.97 537.93,-20.85 547.7,-24.96 548.13,-17.97"/>
</g>
<!-- 38 -->
<g id="node39" class="node">
<title>38</title>
<path fill="none" stroke="#bed856" stroke-width="2" d="M891,-396C891,-396 861,-396 861,-396 855,-396 849,-390 849,-384 849,-384 849,-372 849,-372 849,-366 855,-360 861,-360 861,-360 891,-360 891,-360 897,-360 903,-366 903,-372 903,-372 903,-384 903,-384 903,-390 897,-396 891,-396"/>
<text xml:space="preserve" text-anchor="middle" x="876" y="-374.12" font-family="sans" font-size="10.00">melt</text>
</g>
<!-- 39 -->
<g id="node40" class="node">
<title>39</title>
<path fill="none" stroke="#bed856" stroke-width="2" d="M898.62,-324C898.62,-324 853.38,-324 853.38,-324 847.38,-324 841.38,-318 841.38,-312 841.38,-312 841.38,-300 841.38,-300 841.38,-294 847.38,-288 853.38,-288 853.38,-288 898.62,-288 898.62,-288 904.62,-288 910.62,-294 910.62,-300 910.62,-300 910.62,-312 910.62,-312 910.62,-318 904.62,-324 898.62,-324"/>
<text xml:space="preserve" text-anchor="middle" x="876" y="-302.12" font-family="sans" font-size="10.00">melt_concat</text>
</g>
<!-- 38&#45;&gt;39 -->
<g id="edge52" class="edge">
<title>38&#45;&gt;39</title>
<path fill="none" stroke="grey" stroke-width="2" d="M876,-359.34C876,-352.75 876,-345.08 876,-337.67"/>
<polygon fill="grey" stroke="grey" stroke-width="2" points="879.5,-337.93 876,-327.93 872.5,-337.93 879.5,-337.93"/>
</g>
<!-- 40 -->
<g id="node41" class="node">
<title>40</title>
<path fill="none" stroke="#bed856" stroke-width="2" d="M848,-252C848,-252 818,-252 818,-252 812,-252 806,-246 806,-240 806,-240 806,-228 806,-228 806,-222 812,-216 818,-216 818,-216 848,-216 848,-216 854,-216 860,-222 860,-228 860,-228 860,-240 860,-240 860,-246 854,-252 848,-252"/>
<text xml:space="preserve" text-anchor="middle" x="833" y="-230.12" font-family="sans" font-size="10.00">melt_vcf</text>
</g>
<!-- 39&#45;&gt;40 -->
<g id="edge53" class="edge">
<title>39&#45;&gt;40</title>
<path fill="none" stroke="grey" stroke-width="2" d="M865.15,-287.34C860.75,-280.18 855.56,-271.73 850.65,-263.73"/>
<polygon fill="grey" stroke="grey" stroke-width="2" points="853.8,-262.17 845.58,-255.48 847.83,-265.83 853.8,-262.17"/>
</g>
<!-- 40&#45;&gt;5 -->
<g id="edge54" class="edge">
<title>40&#45;&gt;5</title>
<path fill="none" stroke="grey" stroke-width="2" d="M805.07,-219.05C802.06,-217.88 799,-216.83 796,-216 660.34,-178.36 614.03,-217.15 476.24,-180.66"/>
<polygon fill="grey" stroke="grey" stroke-width="2" points="477.45,-177.36 466.87,-178.08 475.59,-184.11 477.45,-177.36"/>
</g>
<!-- 41 -->
<g id="node42" class="node">
<title>41</title>
<path fill="none" stroke="#56d8a9" stroke-width="2" d="M815.12,-396C815.12,-396 706.88,-396 706.88,-396 700.88,-396 694.88,-390 694.88,-384 694.88,-384 694.88,-372 694.88,-372 694.88,-366 700.88,-360 706.88,-360 706.88,-360 815.12,-360 815.12,-360 821.12,-360 827.12,-366 827.12,-372 827.12,-372 827.12,-384 827.12,-384 827.12,-390 821.12,-396 815.12,-396"/>
<text xml:space="preserve" text-anchor="middle" x="761" y="-374.12" font-family="sans" font-size="10.00">scramble_cluster_identifier</text>
</g>
<!-- 42 -->
<g id="node43" class="node">
<title>42</title>
<path fill="none" stroke="#56d8a9" stroke-width="2" d="M811.75,-324C811.75,-324 704.25,-324 704.25,-324 698.25,-324 692.25,-318 692.25,-312 692.25,-312 692.25,-300 692.25,-300 692.25,-294 698.25,-288 704.25,-288 704.25,-288 811.75,-288 811.75,-288 817.75,-288 823.75,-294 823.75,-300 823.75,-300 823.75,-312 823.75,-312 823.75,-318 817.75,-324 811.75,-324"/>
<text xml:space="preserve" text-anchor="middle" x="758" y="-302.12" font-family="sans" font-size="10.00">scramble_cluster_analysis</text>
</g>
<!-- 41&#45;&gt;42 -->
<g id="edge55" class="edge">
<title>41&#45;&gt;42</title>
<path fill="none" stroke="grey" stroke-width="2" d="M760.24,-359.34C759.96,-352.75 759.63,-345.08 759.31,-337.67"/>
<polygon fill="grey" stroke="grey" stroke-width="2" points="762.82,-337.77 758.9,-327.93 755.83,-338.07 762.82,-337.77"/>
</g>
<!-- 42&#45;&gt;0 -->
<g id="edge17" class="edge">
<title>42&#45;&gt;0</title>
<path fill="none" stroke="grey" stroke-width="2" d="M824.49,-287.51C841.91,-279.59 858.69,-268.22 869,-252 911.91,-184.48 922.32,-132.52 870,-72 828.68,-24.21 633.4,-18.66 547.6,-18.58"/>
<polygon fill="grey" stroke="grey" stroke-width="2" points="547.83,-15.08 537.84,-18.61 547.85,-22.08 547.83,-15.08"/>
</g>
<!-- 43 -->
<g id="node44" class="node">
<title>43</title>
<path fill="none" stroke="#56d8a9" stroke-width="2" d="M775.25,-252C775.25,-252 724.75,-252 724.75,-252 718.75,-252 712.75,-246 712.75,-240 712.75,-240 712.75,-228 712.75,-228 712.75,-222 718.75,-216 724.75,-216 724.75,-216 775.25,-216 775.25,-216 781.25,-216 787.25,-222 787.25,-228 787.25,-228 787.25,-240 787.25,-240 787.25,-246 781.25,-252 775.25,-252"/>
<text xml:space="preserve" text-anchor="middle" x="750" y="-230.12" font-family="sans" font-size="10.00">scramble_vcf</text>
</g>
<!-- 42&#45;&gt;43 -->
<g id="edge56" class="edge">
<title>42&#45;&gt;43</title>
<path fill="none" stroke="grey" stroke-width="2" d="M755.98,-287.34C755.23,-280.75 754.35,-273.08 753.5,-265.67"/>
<polygon fill="grey" stroke="grey" stroke-width="2" points="757,-265.45 752.39,-255.91 750.05,-266.24 757,-265.45"/>
</g>
<!-- 43&#45;&gt;5 -->
<g id="edge57" class="edge">
<title>43&#45;&gt;5</title>
<path fill="none" stroke="grey" stroke-width="2" d="M712.13,-224.84C698.54,-221.97 683.1,-218.77 669,-216 585.67,-199.64 559.16,-206.52 476.02,-180.85"/>
<polygon fill="grey" stroke="grey" stroke-width="2" points="477.09,-177.52 466.5,-177.83 474.98,-184.19 477.09,-177.52"/>
</g>
<!-- 44&#45;&gt;0 -->
<g id="edge19" class="edge">
<title>44&#45;&gt;0</title>
<path fill="none" stroke="grey" stroke-width="2" d="M257.72,-143.16C249.97,-123.5 241.8,-92.02 258,-72 283.77,-40.17 402.71,-26.65 466.43,-21.61"/>
<polygon fill="grey" stroke="grey" stroke-width="2" points="466.4,-25.12 476.12,-20.89 465.88,-18.14 466.4,-25.12"/>
</g>
<!-- 45&#45;&gt;0 -->
<g id="edge18" class="edge">
<title>45&#45;&gt;0</title>
<path fill="none" stroke="grey" stroke-width="2" d="M419.83,-71.15C434.54,-62.35 452.46,-51.63 468.22,-42.2"/>
<polygon fill="grey" stroke="grey" stroke-width="2" points="469.85,-45.3 476.64,-37.16 466.26,-39.3 469.85,-45.3"/>
</g>
</g>
</svg>
